<svg width="707" height="353" viewBox="0 0 707 353" fill="none" xmlns="http://www.w3.org/2000/svg">
<g filter="url(#filter0_f_3393_3142)">
<circle cx="544.5" cy="162" r="12" fill="white"/>
<circle cx="544.5" cy="162" r="11.5" stroke="white"/>
</g>
<g filter="url(#filter1_f_3393_3142)">
<circle cx="400.5" cy="217" r="12" fill="white"/>
<circle cx="400.5" cy="217" r="11.5" stroke="white"/>
</g>
<g filter="url(#filter2_f_3393_3142)">
<circle cx="259.5" cy="197" r="12" fill="white"/>
<circle cx="259.5" cy="197" r="11.5" stroke="white"/>
</g>
<g filter="url(#filter3_f_3393_3142)">
<circle cx="112.5" cy="241" r="12" fill="white"/>
<circle cx="112.5" cy="241" r="11.5" stroke="white"/>
</g>
<circle cx="112.5" cy="241" r="11.5" fill="white" stroke="white"/>
<circle cx="259.5" cy="208" r="11.5" fill="white" stroke="white"/>
<circle cx="390.5" cy="237" r="11.5" fill="white" stroke="white"/>
<rect x="463" y="179.5" width="132" height="39" rx="19.5" fill="white"/>
<rect x="463" y="179.5" width="132" height="39" rx="19.5" stroke="white"/>
<path d="M479.362 206H478.066V193.112H482.872C485.482 193.112 487.066 194.552 487.066 196.838C487.066 198.692 486.094 199.988 484.438 200.438L487.192 206H485.752L483.124 200.654H479.362V206ZM479.362 194.282V199.484H482.908C484.69 199.484 485.734 198.512 485.734 196.874C485.734 195.2 484.636 194.282 482.872 194.282H479.362ZM492.331 206.216C489.775 206.216 488.065 204.38 488.065 201.644C488.065 198.926 489.757 197.054 492.241 197.054C494.599 197.054 496.201 198.728 496.201 201.194V201.806H489.271C489.361 203.93 490.477 205.154 492.349 205.154C493.771 205.154 494.689 204.542 495.013 203.39H496.201C495.733 205.226 494.383 206.216 492.331 206.216ZM492.241 198.116C490.603 198.116 489.523 199.196 489.307 200.906H494.959C494.959 199.232 493.879 198.116 492.241 198.116ZM500.601 206.216C498.747 206.216 497.649 205.172 497.649 203.642C497.649 202.04 498.873 201.032 500.907 200.87L503.787 200.636V200.348C503.787 198.638 502.761 198.098 501.483 198.098C499.971 198.098 499.071 198.782 499.071 199.952H497.937C497.937 198.188 499.377 197.054 501.519 197.054C503.535 197.054 505.011 198.062 505.011 200.366V206H503.967L503.805 204.47C503.265 205.568 502.077 206.216 500.601 206.216ZM500.889 205.208C502.725 205.208 503.787 203.93 503.787 202.04V201.572L501.213 201.77C499.575 201.914 498.909 202.634 498.909 203.606C498.909 204.668 499.701 205.208 500.889 205.208ZM510.923 206.216C508.385 206.216 506.891 204.272 506.891 201.662C506.891 199.034 508.385 197.054 510.977 197.054C512.417 197.054 513.569 197.684 514.181 198.944V192.878H515.423V206H514.343L514.217 204.218C513.605 205.568 512.381 206.216 510.923 206.216ZM511.139 205.082C513.047 205.082 514.163 203.642 514.163 201.626C514.163 199.628 513.047 198.17 511.139 198.17C509.249 198.17 508.151 199.628 508.151 201.626C508.151 203.642 509.249 205.082 511.139 205.082ZM518.627 194.894C518.123 194.894 517.709 194.48 517.709 193.976C517.709 193.472 518.123 193.04 518.627 193.04C519.131 193.04 519.563 193.472 519.563 193.976C519.563 194.48 519.131 194.894 518.627 194.894ZM518.015 206V197.288H519.257V206H518.015ZM523.089 206H521.847V197.288H522.927L523.107 198.8C523.683 197.684 524.835 197.054 526.095 197.054C528.489 197.054 529.479 198.476 529.479 200.672V206H528.237V200.942C528.237 198.908 527.319 198.188 525.879 198.188C524.097 198.188 523.089 199.484 523.089 201.446V206ZM531.36 201.392C531.36 199.016 532.89 197.054 535.446 197.054C536.958 197.054 538.11 197.756 538.668 199.034L538.794 197.288H539.874V205.73C539.874 208.322 538.218 210.014 535.662 210.014C533.43 210.014 531.864 208.754 531.522 206.648H532.764C533.034 208.052 534.114 208.88 535.68 208.88C537.462 208.88 538.65 207.674 538.65 205.856V203.786C538.056 205.01 536.85 205.73 535.356 205.73C532.872 205.73 531.36 203.768 531.36 201.392ZM532.602 201.374C532.602 203.156 533.7 204.614 535.536 204.614C537.426 204.614 538.542 203.246 538.542 201.374C538.542 199.52 537.462 198.152 535.554 198.152C533.682 198.152 532.602 199.61 532.602 201.374ZM543.528 206.198C542.916 206.198 542.394 205.694 542.394 205.1C542.394 204.488 542.916 203.966 543.528 203.966C544.14 203.966 544.662 204.488 544.662 205.1C544.662 205.694 544.14 206.198 543.528 206.198ZM548.239 206.198C547.627 206.198 547.105 205.694 547.105 205.1C547.105 204.488 547.627 203.966 548.239 203.966C548.851 203.966 549.373 204.488 549.373 205.1C549.373 205.694 548.851 206.198 548.239 206.198ZM552.95 206.198C552.338 206.198 551.816 205.694 551.816 205.1C551.816 204.488 552.338 203.966 552.95 203.966C553.562 203.966 554.084 204.488 554.084 205.1C554.084 205.694 553.562 206.198 552.95 206.198Z" fill="#7256FF"/>
<circle cx="574.5" cy="199" r="7" fill="#7256FF"/>
<defs>
<filter id="filter0_f_3393_3142" x="382.5" y="0" width="324" height="324" filterUnits="userSpaceOnUse" color-interpolation-filters="sRGB">
<feFlood flood-opacity="0" result="BackgroundImageFix"/>
<feBlend mode="normal" in="SourceGraphic" in2="BackgroundImageFix" result="shape"/>
<feGaussianBlur stdDeviation="75" result="effect1_foregroundBlur_3393_3142"/>
</filter>
<filter id="filter1_f_3393_3142" x="288.5" y="105" width="224" height="224" filterUnits="userSpaceOnUse" color-interpolation-filters="sRGB">
<feFlood flood-opacity="0" result="BackgroundImageFix"/>
<feBlend mode="normal" in="SourceGraphic" in2="BackgroundImageFix" result="shape"/>
<feGaussianBlur stdDeviation="50" result="effect1_foregroundBlur_3393_3142"/>
</filter>
<filter id="filter2_f_3393_3142" x="147.5" y="85" width="224" height="224" filterUnits="userSpaceOnUse" color-interpolation-filters="sRGB">
<feFlood flood-opacity="0" result="BackgroundImageFix"/>
<feBlend mode="normal" in="SourceGraphic" in2="BackgroundImageFix" result="shape"/>
<feGaussianBlur stdDeviation="50" result="effect1_foregroundBlur_3393_3142"/>
</filter>
<filter id="filter3_f_3393_3142" x="0.5" y="129" width="224" height="224" filterUnits="userSpaceOnUse" color-interpolation-filters="sRGB">
<feFlood flood-opacity="0" result="BackgroundImageFix"/>
<feBlend mode="normal" in="SourceGraphic" in2="BackgroundImageFix" result="shape"/>
<feGaussianBlur stdDeviation="50" result="effect1_foregroundBlur_3393_3142"/>
</filter>
</defs>
</svg>
