<svg width="544" height="309" viewBox="0 0 544 309" fill="none" xmlns="http://www.w3.org/2000/svg">
<rect x="0.5" y="10.5" width="186" height="47" rx="9.5" fill="#F5F5F5"/>
<rect x="0.5" y="10.5" width="186" height="47" rx="9.5" stroke="#E1E1E1"/>
<path d="M65.8398 29.9287L62.5449 39H61.1982L64.9922 29.0469H65.8604L65.8398 29.9287ZM68.6016 39L65.2998 29.9287L65.2793 29.0469H66.1475L69.9551 39H68.6016ZM68.4307 35.3154V36.3955H62.8389V35.3154H68.4307ZM75.4033 37.0381C75.4033 36.8558 75.3623 36.6872 75.2803 36.5322C75.2028 36.3727 75.041 36.2292 74.7949 36.1016C74.5534 35.9694 74.1888 35.8555 73.7012 35.7598C73.291 35.6732 72.9196 35.5706 72.5869 35.4521C72.2588 35.3337 71.9785 35.1901 71.7461 35.0215C71.5182 34.8529 71.3428 34.6546 71.2197 34.4268C71.0967 34.1989 71.0352 33.9323 71.0352 33.627C71.0352 33.3353 71.099 33.0596 71.2266 32.7998C71.3587 32.54 71.5433 32.3099 71.7803 32.1094C72.0218 31.9089 72.3112 31.7516 72.6484 31.6377C72.9857 31.5238 73.3617 31.4668 73.7764 31.4668C74.3688 31.4668 74.8747 31.5716 75.2939 31.7812C75.7132 31.9909 76.0345 32.2712 76.2578 32.6221C76.4811 32.9684 76.5928 33.3535 76.5928 33.7773H75.3281C75.3281 33.5723 75.2666 33.374 75.1436 33.1826C75.0251 32.9867 74.8496 32.8249 74.6172 32.6973C74.3893 32.5697 74.109 32.5059 73.7764 32.5059C73.4255 32.5059 73.1406 32.5605 72.9219 32.6699C72.7077 32.7747 72.5505 32.9092 72.4502 33.0732C72.3545 33.2373 72.3066 33.4105 72.3066 33.5928C72.3066 33.7295 72.3294 33.8525 72.375 33.9619C72.4251 34.0667 72.5117 34.1647 72.6348 34.2559C72.7578 34.3424 72.931 34.4245 73.1543 34.502C73.3776 34.5794 73.6624 34.6569 74.0088 34.7344C74.6149 34.8711 75.1139 35.0352 75.5059 35.2266C75.8978 35.418 76.1895 35.6527 76.3809 35.9307C76.5723 36.2087 76.668 36.5459 76.668 36.9424C76.668 37.266 76.5996 37.5622 76.4629 37.8311C76.3307 38.0999 76.137 38.3324 75.8818 38.5283C75.6312 38.7197 75.3304 38.8701 74.9795 38.9795C74.6331 39.0843 74.2435 39.1367 73.8105 39.1367C73.1589 39.1367 72.6074 39.0205 72.1562 38.7881C71.7051 38.5557 71.3633 38.2549 71.1309 37.8857C70.8984 37.5166 70.7822 37.127 70.7822 36.7168H72.0537C72.0719 37.0632 72.1722 37.3389 72.3545 37.5439C72.5368 37.7445 72.7601 37.888 73.0244 37.9746C73.2887 38.0566 73.5508 38.0977 73.8105 38.0977C74.1569 38.0977 74.4463 38.0521 74.6787 37.9609C74.9157 37.8698 75.0957 37.7445 75.2188 37.585C75.3418 37.4255 75.4033 37.2432 75.4033 37.0381ZM82.6357 37.0381C82.6357 36.8558 82.5947 36.6872 82.5127 36.5322C82.4352 36.3727 82.2734 36.2292 82.0273 36.1016C81.7858 35.9694 81.4212 35.8555 80.9336 35.7598C80.5234 35.6732 80.152 35.5706 79.8193 35.4521C79.4912 35.3337 79.2109 35.1901 78.9785 35.0215C78.7507 34.8529 78.5752 34.6546 78.4521 34.4268C78.3291 34.1989 78.2676 33.9323 78.2676 33.627C78.2676 33.3353 78.3314 33.0596 78.459 32.7998C78.5911 32.54 78.7757 32.3099 79.0127 32.1094C79.2542 31.9089 79.5436 31.7516 79.8809 31.6377C80.2181 31.5238 80.5941 31.4668 81.0088 31.4668C81.6012 31.4668 82.1071 31.5716 82.5264 31.7812C82.9456 31.9909 83.2669 32.2712 83.4902 32.6221C83.7135 32.9684 83.8252 33.3535 83.8252 33.7773H82.5605C82.5605 33.5723 82.499 33.374 82.376 33.1826C82.2575 32.9867 82.082 32.8249 81.8496 32.6973C81.6217 32.5697 81.3415 32.5059 81.0088 32.5059C80.6579 32.5059 80.373 32.5605 80.1543 32.6699C79.9401 32.7747 79.7829 32.9092 79.6826 33.0732C79.5869 33.2373 79.5391 33.4105 79.5391 33.5928C79.5391 33.7295 79.5618 33.8525 79.6074 33.9619C79.6576 34.0667 79.7441 34.1647 79.8672 34.2559C79.9902 34.3424 80.1634 34.4245 80.3867 34.502C80.61 34.5794 80.8949 34.6569 81.2412 34.7344C81.8473 34.8711 82.3464 35.0352 82.7383 35.2266C83.1302 35.418 83.4219 35.6527 83.6133 35.9307C83.8047 36.2087 83.9004 36.5459 83.9004 36.9424C83.9004 37.266 83.832 37.5622 83.6953 37.8311C83.5632 38.0999 83.3695 38.3324 83.1143 38.5283C82.8636 38.7197 82.5628 38.8701 82.2119 38.9795C81.8656 39.0843 81.4759 39.1367 81.043 39.1367C80.3913 39.1367 79.8398 39.0205 79.3887 38.7881C78.9375 38.5557 78.5957 38.2549 78.3633 37.8857C78.1309 37.5166 78.0146 37.127 78.0146 36.7168H79.2861C79.3044 37.0632 79.4046 37.3389 79.5869 37.5439C79.7692 37.7445 79.9925 37.888 80.2568 37.9746C80.5212 38.0566 80.7832 38.0977 81.043 38.0977C81.3893 38.0977 81.6787 38.0521 81.9111 37.9609C82.1481 37.8698 82.3281 37.7445 82.4512 37.585C82.5742 37.4255 82.6357 37.2432 82.6357 37.0381ZM88.6309 39.1367C88.1159 39.1367 87.6488 39.0501 87.2295 38.877C86.8148 38.6992 86.457 38.4508 86.1562 38.1318C85.86 37.8128 85.6322 37.4346 85.4727 36.9971C85.3132 36.5596 85.2334 36.0811 85.2334 35.5615V35.2744C85.2334 34.6729 85.3223 34.1374 85.5 33.668C85.6777 33.194 85.9193 32.793 86.2246 32.4648C86.5299 32.1367 86.8763 31.8883 87.2637 31.7197C87.651 31.5511 88.0521 31.4668 88.4668 31.4668C88.9954 31.4668 89.4512 31.5579 89.834 31.7402C90.2214 31.9225 90.5381 32.1777 90.7842 32.5059C91.0303 32.8294 91.2126 33.2122 91.3311 33.6543C91.4495 34.0918 91.5088 34.5703 91.5088 35.0898V35.6572H85.9854V34.625H90.2441V34.5293C90.2259 34.2012 90.1576 33.8822 90.0391 33.5723C89.9251 33.2624 89.7428 33.0072 89.4922 32.8066C89.2415 32.6061 88.8997 32.5059 88.4668 32.5059C88.1797 32.5059 87.9154 32.5674 87.6738 32.6904C87.4323 32.8089 87.2249 32.9867 87.0518 33.2236C86.8786 33.4606 86.7441 33.75 86.6484 34.0918C86.5527 34.4336 86.5049 34.8278 86.5049 35.2744V35.5615C86.5049 35.9124 86.5527 36.2428 86.6484 36.5527C86.7487 36.8581 86.8923 37.127 87.0791 37.3594C87.2705 37.5918 87.5007 37.7741 87.7695 37.9062C88.043 38.0384 88.3529 38.1045 88.6992 38.1045C89.1458 38.1045 89.5241 38.0133 89.834 37.8311C90.1439 37.6488 90.415 37.4049 90.6475 37.0996L91.4131 37.708C91.2536 37.9495 91.0508 38.1797 90.8047 38.3984C90.5586 38.6172 90.2555 38.7949 89.8955 38.9316C89.54 39.0684 89.1185 39.1367 88.6309 39.1367ZM97.292 37.0381C97.292 36.8558 97.251 36.6872 97.1689 36.5322C97.0915 36.3727 96.9297 36.2292 96.6836 36.1016C96.4421 35.9694 96.0775 35.8555 95.5898 35.7598C95.1797 35.6732 94.8083 35.5706 94.4756 35.4521C94.1475 35.3337 93.8672 35.1901 93.6348 35.0215C93.4069 34.8529 93.2314 34.6546 93.1084 34.4268C92.9854 34.1989 92.9238 33.9323 92.9238 33.627C92.9238 33.3353 92.9876 33.0596 93.1152 32.7998C93.2474 32.54 93.432 32.3099 93.6689 32.1094C93.9105 31.9089 94.1999 31.7516 94.5371 31.6377C94.8743 31.5238 95.2503 31.4668 95.665 31.4668C96.2575 31.4668 96.7633 31.5716 97.1826 31.7812C97.6019 31.9909 97.9232 32.2712 98.1465 32.6221C98.3698 32.9684 98.4814 33.3535 98.4814 33.7773H97.2168C97.2168 33.5723 97.1553 33.374 97.0322 33.1826C96.9137 32.9867 96.7383 32.8249 96.5059 32.6973C96.278 32.5697 95.9977 32.5059 95.665 32.5059C95.3141 32.5059 95.0293 32.5605 94.8105 32.6699C94.5964 32.7747 94.4391 32.9092 94.3389 33.0732C94.2432 33.2373 94.1953 33.4105 94.1953 33.5928C94.1953 33.7295 94.2181 33.8525 94.2637 33.9619C94.3138 34.0667 94.4004 34.1647 94.5234 34.2559C94.6465 34.3424 94.8197 34.4245 95.043 34.502C95.2663 34.5794 95.5511 34.6569 95.8975 34.7344C96.5036 34.8711 97.0026 35.0352 97.3945 35.2266C97.7865 35.418 98.0781 35.6527 98.2695 35.9307C98.4609 36.2087 98.5566 36.5459 98.5566 36.9424C98.5566 37.266 98.4883 37.5622 98.3516 37.8311C98.2194 38.0999 98.0257 38.3324 97.7705 38.5283C97.5199 38.7197 97.2191 38.8701 96.8682 38.9795C96.5218 39.0843 96.1322 39.1367 95.6992 39.1367C95.0475 39.1367 94.4961 39.0205 94.0449 38.7881C93.5938 38.5557 93.252 38.2549 93.0195 37.8857C92.7871 37.5166 92.6709 37.127 92.6709 36.7168H93.9424C93.9606 37.0632 94.0609 37.3389 94.2432 37.5439C94.4255 37.7445 94.6488 37.888 94.9131 37.9746C95.1774 38.0566 95.4395 38.0977 95.6992 38.0977C96.0456 38.0977 96.335 38.0521 96.5674 37.9609C96.8044 37.8698 96.9844 37.7445 97.1074 37.585C97.2305 37.4255 97.292 37.2432 97.292 37.0381ZM104.524 37.0381C104.524 36.8558 104.483 36.6872 104.401 36.5322C104.324 36.3727 104.162 36.2292 103.916 36.1016C103.674 35.9694 103.31 35.8555 102.822 35.7598C102.412 35.6732 102.041 35.5706 101.708 35.4521C101.38 35.3337 101.1 35.1901 100.867 35.0215C100.639 34.8529 100.464 34.6546 100.341 34.4268C100.218 34.1989 100.156 33.9323 100.156 33.627C100.156 33.3353 100.22 33.0596 100.348 32.7998C100.48 32.54 100.664 32.3099 100.901 32.1094C101.143 31.9089 101.432 31.7516 101.77 31.6377C102.107 31.5238 102.483 31.4668 102.897 31.4668C103.49 31.4668 103.996 31.5716 104.415 31.7812C104.834 31.9909 105.156 32.2712 105.379 32.6221C105.602 32.9684 105.714 33.3535 105.714 33.7773H104.449C104.449 33.5723 104.388 33.374 104.265 33.1826C104.146 32.9867 103.971 32.8249 103.738 32.6973C103.51 32.5697 103.23 32.5059 102.897 32.5059C102.547 32.5059 102.262 32.5605 102.043 32.6699C101.829 32.7747 101.672 32.9092 101.571 33.0732C101.476 33.2373 101.428 33.4105 101.428 33.5928C101.428 33.7295 101.451 33.8525 101.496 33.9619C101.546 34.0667 101.633 34.1647 101.756 34.2559C101.879 34.3424 102.052 34.4245 102.275 34.502C102.499 34.5794 102.784 34.6569 103.13 34.7344C103.736 34.8711 104.235 35.0352 104.627 35.2266C105.019 35.418 105.311 35.6527 105.502 35.9307C105.693 36.2087 105.789 36.5459 105.789 36.9424C105.789 37.266 105.721 37.5622 105.584 37.8311C105.452 38.0999 105.258 38.3324 105.003 38.5283C104.752 38.7197 104.451 38.8701 104.101 38.9795C103.754 39.0843 103.365 39.1367 102.932 39.1367C102.28 39.1367 101.729 39.0205 101.277 38.7881C100.826 38.5557 100.484 38.2549 100.252 37.8857C100.02 37.5166 99.9033 37.127 99.9033 36.7168H101.175C101.193 37.0632 101.293 37.3389 101.476 37.5439C101.658 37.7445 101.881 37.888 102.146 37.9746C102.41 38.0566 102.672 38.0977 102.932 38.0977C103.278 38.0977 103.567 38.0521 103.8 37.9609C104.037 37.8698 104.217 37.7445 104.34 37.585C104.463 37.4255 104.524 37.2432 104.524 37.0381ZM108.824 31.6035V39H107.553V31.6035H108.824ZM107.457 29.6416C107.457 29.4365 107.519 29.2633 107.642 29.1221C107.769 28.9808 107.956 28.9102 108.202 28.9102C108.444 28.9102 108.628 28.9808 108.756 29.1221C108.888 29.2633 108.954 29.4365 108.954 29.6416C108.954 29.8376 108.888 30.0062 108.756 30.1475C108.628 30.2842 108.444 30.3525 108.202 30.3525C107.956 30.3525 107.769 30.2842 107.642 30.1475C107.519 30.0062 107.457 29.8376 107.457 29.6416ZM112.119 33.1826V39H110.854V31.6035H112.051L112.119 33.1826ZM111.818 35.0215L111.292 35.001C111.297 34.4951 111.372 34.028 111.518 33.5996C111.663 33.1667 111.868 32.7907 112.133 32.4717C112.397 32.1527 112.712 31.9066 113.076 31.7334C113.445 31.5557 113.853 31.4668 114.3 31.4668C114.664 31.4668 114.993 31.5169 115.284 31.6172C115.576 31.7129 115.824 31.8678 116.029 32.082C116.239 32.2962 116.398 32.5742 116.508 32.916C116.617 33.2533 116.672 33.6657 116.672 34.1533V39H115.4V34.1396C115.4 33.7523 115.343 33.4424 115.229 33.21C115.116 32.973 114.949 32.8021 114.73 32.6973C114.512 32.5879 114.243 32.5332 113.924 32.5332C113.609 32.5332 113.322 32.5993 113.062 32.7314C112.807 32.8636 112.586 33.0459 112.399 33.2783C112.217 33.5107 112.074 33.7773 111.969 34.0781C111.868 34.3743 111.818 34.6888 111.818 35.0215ZM123.385 31.6035H124.533V38.8428C124.533 39.4945 124.401 40.0505 124.137 40.5107C123.872 40.971 123.503 41.3197 123.029 41.5566C122.56 41.7982 122.018 41.9189 121.402 41.9189C121.147 41.9189 120.846 41.8779 120.5 41.7959C120.158 41.7184 119.821 41.584 119.488 41.3926C119.16 41.2057 118.884 40.9528 118.661 40.6338L119.324 39.8818C119.634 40.2555 119.958 40.5153 120.295 40.6611C120.637 40.807 120.974 40.8799 121.307 40.8799C121.708 40.8799 122.054 40.8047 122.346 40.6543C122.637 40.5039 122.863 40.2806 123.022 39.9844C123.187 39.6927 123.269 39.3327 123.269 38.9043V33.2305L123.385 31.6035ZM118.292 35.3838V35.2402C118.292 34.6751 118.358 34.1624 118.49 33.7021C118.627 33.2373 118.821 32.8385 119.071 32.5059C119.326 32.1732 119.634 31.918 119.994 31.7402C120.354 31.5579 120.76 31.4668 121.211 31.4668C121.676 31.4668 122.081 31.5488 122.428 31.7129C122.779 31.8724 123.075 32.1071 123.316 32.417C123.562 32.7223 123.756 33.0915 123.897 33.5244C124.039 33.9574 124.137 34.4473 124.191 34.9941V35.623C124.141 36.1654 124.043 36.653 123.897 37.0859C123.756 37.5189 123.562 37.888 123.316 38.1934C123.075 38.4987 122.779 38.7334 122.428 38.8975C122.077 39.057 121.667 39.1367 121.197 39.1367C120.755 39.1367 120.354 39.0433 119.994 38.8564C119.639 38.6696 119.333 38.4076 119.078 38.0703C118.823 37.7331 118.627 37.3366 118.49 36.8809C118.358 36.4206 118.292 35.9215 118.292 35.3838ZM119.557 35.2402V35.3838C119.557 35.7529 119.593 36.0993 119.666 36.4229C119.743 36.7464 119.86 37.0312 120.015 37.2773C120.174 37.5234 120.377 37.7171 120.623 37.8584C120.869 37.9951 121.163 38.0635 121.505 38.0635C121.924 38.0635 122.271 37.9746 122.544 37.7969C122.817 37.6191 123.034 37.3844 123.193 37.0928C123.357 36.8011 123.485 36.4844 123.576 36.1426V34.4951C123.526 34.2445 123.449 34.0029 123.344 33.7705C123.243 33.5335 123.111 33.3239 122.947 33.1416C122.788 32.9548 122.59 32.8066 122.353 32.6973C122.116 32.5879 121.838 32.5332 121.519 32.5332C121.172 32.5332 120.874 32.6061 120.623 32.752C120.377 32.8932 120.174 33.0892 120.015 33.3398C119.86 33.5859 119.743 33.873 119.666 34.2012C119.593 34.5247 119.557 34.8711 119.557 35.2402Z" fill="#A5A5A5"/>
<rect x="357.5" y="0.5" width="186" height="67" rx="9.5" fill="#DFEAFF"/>
<rect x="357.5" y="0.5" width="186" height="67" rx="9.5" stroke="#97ADD7"/>
<path d="M412.826 35.0967H410.167V34.0234H412.826C413.341 34.0234 413.758 33.9414 414.077 33.7773C414.396 33.6133 414.629 33.3854 414.774 33.0938C414.925 32.8021 415 32.4694 415 32.0957C415 31.7539 414.925 31.4326 414.774 31.1318C414.629 30.8311 414.396 30.5895 414.077 30.4072C413.758 30.2204 413.341 30.127 412.826 30.127H410.475V39H409.155V29.0469H412.826C413.578 29.0469 414.214 29.1768 414.733 29.4365C415.253 29.6963 415.647 30.0563 415.916 30.5166C416.185 30.9723 416.319 31.4941 416.319 32.082C416.319 32.7201 416.185 33.2646 415.916 33.7158C415.647 34.167 415.253 34.5111 414.733 34.748C414.214 34.9805 413.578 35.0967 412.826 35.0967ZM420.77 39.1367C420.255 39.1367 419.787 39.0501 419.368 38.877C418.953 38.6992 418.596 38.4508 418.295 38.1318C417.999 37.8128 417.771 37.4346 417.611 36.9971C417.452 36.5596 417.372 36.0811 417.372 35.5615V35.2744C417.372 34.6729 417.461 34.1374 417.639 33.668C417.816 33.194 418.058 32.793 418.363 32.4648C418.669 32.1367 419.015 31.8883 419.402 31.7197C419.79 31.5511 420.191 31.4668 420.605 31.4668C421.134 31.4668 421.59 31.5579 421.973 31.7402C422.36 31.9225 422.677 32.1777 422.923 32.5059C423.169 32.8294 423.351 33.2122 423.47 33.6543C423.588 34.0918 423.647 34.5703 423.647 35.0898V35.6572H418.124V34.625H422.383V34.5293C422.365 34.2012 422.296 33.8822 422.178 33.5723C422.064 33.2624 421.882 33.0072 421.631 32.8066C421.38 32.6061 421.038 32.5059 420.605 32.5059C420.318 32.5059 420.054 32.5674 419.812 32.6904C419.571 32.8089 419.364 32.9867 419.19 33.2236C419.017 33.4606 418.883 33.75 418.787 34.0918C418.691 34.4336 418.644 34.8278 418.644 35.2744V35.5615C418.644 35.9124 418.691 36.2428 418.787 36.5527C418.887 36.8581 419.031 37.127 419.218 37.3594C419.409 37.5918 419.639 37.7741 419.908 37.9062C420.182 38.0384 420.492 38.1045 420.838 38.1045C421.285 38.1045 421.663 38.0133 421.973 37.8311C422.283 37.6488 422.554 37.4049 422.786 37.0996L423.552 37.708C423.392 37.9495 423.189 38.1797 422.943 38.3984C422.697 38.6172 422.394 38.7949 422.034 38.9316C421.679 39.0684 421.257 39.1367 420.77 39.1367ZM426.389 32.7656V39H425.124V31.6035H426.354L426.389 32.7656ZM428.699 31.5625L428.692 32.7383C428.588 32.7155 428.487 32.7018 428.392 32.6973C428.3 32.6882 428.196 32.6836 428.077 32.6836C427.785 32.6836 427.528 32.7292 427.305 32.8203C427.081 32.9115 426.892 33.0391 426.737 33.2031C426.582 33.3672 426.459 33.5632 426.368 33.791C426.282 34.0143 426.225 34.2604 426.197 34.5293L425.842 34.7344C425.842 34.2878 425.885 33.8685 425.972 33.4766C426.063 33.0846 426.202 32.7383 426.389 32.4375C426.576 32.1322 426.812 31.8952 427.1 31.7266C427.391 31.5534 427.738 31.4668 428.139 31.4668C428.23 31.4668 428.335 31.4782 428.453 31.501C428.572 31.5192 428.654 31.5397 428.699 31.5625ZM434.175 37.0381C434.175 36.8558 434.134 36.6872 434.052 36.5322C433.974 36.3727 433.812 36.2292 433.566 36.1016C433.325 35.9694 432.96 35.8555 432.473 35.7598C432.062 35.6732 431.691 35.5706 431.358 35.4521C431.03 35.3337 430.75 35.1901 430.518 35.0215C430.29 34.8529 430.114 34.6546 429.991 34.4268C429.868 34.1989 429.807 33.9323 429.807 33.627C429.807 33.3353 429.87 33.0596 429.998 32.7998C430.13 32.54 430.315 32.3099 430.552 32.1094C430.793 31.9089 431.083 31.7516 431.42 31.6377C431.757 31.5238 432.133 31.4668 432.548 31.4668C433.14 31.4668 433.646 31.5716 434.065 31.7812C434.485 31.9909 434.806 32.2712 435.029 32.6221C435.253 32.9684 435.364 33.3535 435.364 33.7773H434.1C434.1 33.5723 434.038 33.374 433.915 33.1826C433.797 32.9867 433.621 32.8249 433.389 32.6973C433.161 32.5697 432.881 32.5059 432.548 32.5059C432.197 32.5059 431.912 32.5605 431.693 32.6699C431.479 32.7747 431.322 32.9092 431.222 33.0732C431.126 33.2373 431.078 33.4105 431.078 33.5928C431.078 33.7295 431.101 33.8525 431.146 33.9619C431.197 34.0667 431.283 34.1647 431.406 34.2559C431.529 34.3424 431.702 34.4245 431.926 34.502C432.149 34.5794 432.434 34.6569 432.78 34.7344C433.386 34.8711 433.885 35.0352 434.277 35.2266C434.669 35.418 434.961 35.6527 435.152 35.9307C435.344 36.2087 435.439 36.5459 435.439 36.9424C435.439 37.266 435.371 37.5622 435.234 37.8311C435.102 38.0999 434.909 38.3324 434.653 38.5283C434.403 38.7197 434.102 38.8701 433.751 38.9795C433.405 39.0843 433.015 39.1367 432.582 39.1367C431.93 39.1367 431.379 39.0205 430.928 38.7881C430.477 38.5557 430.135 38.2549 429.902 37.8857C429.67 37.5166 429.554 37.127 429.554 36.7168H430.825C430.843 37.0632 430.944 37.3389 431.126 37.5439C431.308 37.7445 431.532 37.888 431.796 37.9746C432.06 38.0566 432.322 38.0977 432.582 38.0977C432.928 38.0977 433.218 38.0521 433.45 37.9609C433.687 37.8698 433.867 37.7445 433.99 37.585C434.113 37.4255 434.175 37.2432 434.175 37.0381ZM436.766 35.3838V35.2266C436.766 34.6934 436.843 34.1989 436.998 33.7432C437.153 33.2829 437.376 32.8841 437.668 32.5469C437.96 32.2051 438.313 31.9408 438.728 31.7539C439.142 31.5625 439.607 31.4668 440.122 31.4668C440.642 31.4668 441.109 31.5625 441.523 31.7539C441.943 31.9408 442.298 32.2051 442.59 32.5469C442.886 32.8841 443.112 33.2829 443.267 33.7432C443.422 34.1989 443.499 34.6934 443.499 35.2266V35.3838C443.499 35.917 443.422 36.4115 443.267 36.8672C443.112 37.3229 442.886 37.7217 442.59 38.0635C442.298 38.4007 441.945 38.665 441.53 38.8564C441.12 39.0433 440.655 39.1367 440.136 39.1367C439.616 39.1367 439.149 39.0433 438.734 38.8564C438.32 38.665 437.964 38.4007 437.668 38.0635C437.376 37.7217 437.153 37.3229 436.998 36.8672C436.843 36.4115 436.766 35.917 436.766 35.3838ZM438.03 35.2266V35.3838C438.03 35.7529 438.074 36.1016 438.16 36.4297C438.247 36.7533 438.377 37.0404 438.55 37.291C438.728 37.5417 438.949 37.7399 439.213 37.8857C439.477 38.027 439.785 38.0977 440.136 38.0977C440.482 38.0977 440.785 38.027 441.045 37.8857C441.309 37.7399 441.528 37.5417 441.701 37.291C441.874 37.0404 442.004 36.7533 442.091 36.4297C442.182 36.1016 442.228 35.7529 442.228 35.3838V35.2266C442.228 34.862 442.182 34.5179 442.091 34.1943C442.004 33.8662 441.872 33.5768 441.694 33.3262C441.521 33.071 441.302 32.8704 441.038 32.7246C440.778 32.5788 440.473 32.5059 440.122 32.5059C439.776 32.5059 439.47 32.5788 439.206 32.7246C438.946 32.8704 438.728 33.071 438.55 33.3262C438.377 33.5768 438.247 33.8662 438.16 34.1943C438.074 34.5179 438.03 34.862 438.03 35.2266ZM446.35 33.1826V39H445.085V31.6035H446.281L446.35 33.1826ZM446.049 35.0215L445.522 35.001C445.527 34.4951 445.602 34.028 445.748 33.5996C445.894 33.1667 446.099 32.7907 446.363 32.4717C446.628 32.1527 446.942 31.9066 447.307 31.7334C447.676 31.5557 448.084 31.4668 448.53 31.4668C448.895 31.4668 449.223 31.5169 449.515 31.6172C449.806 31.7129 450.055 31.8678 450.26 32.082C450.469 32.2962 450.629 32.5742 450.738 32.916C450.848 33.2533 450.902 33.6657 450.902 34.1533V39H449.631V34.1396C449.631 33.7523 449.574 33.4424 449.46 33.21C449.346 32.973 449.18 32.8021 448.961 32.6973C448.742 32.5879 448.473 32.5332 448.154 32.5332C447.84 32.5332 447.553 32.5993 447.293 32.7314C447.038 32.8636 446.817 33.0459 446.63 33.2783C446.448 33.5107 446.304 33.7773 446.199 34.0781C446.099 34.3743 446.049 34.6888 446.049 35.0215ZM457.185 37.7354V33.9277C457.185 33.6361 457.125 33.3831 457.007 33.1689C456.893 32.9502 456.72 32.7816 456.487 32.6631C456.255 32.5446 455.968 32.4854 455.626 32.4854C455.307 32.4854 455.027 32.54 454.785 32.6494C454.548 32.7588 454.361 32.9023 454.225 33.0801C454.092 33.2578 454.026 33.4492 454.026 33.6543H452.762C452.762 33.39 452.83 33.1279 452.967 32.8682C453.104 32.6084 453.299 32.3737 453.555 32.1641C453.814 31.9499 454.124 31.7812 454.484 31.6582C454.849 31.5306 455.255 31.4668 455.701 31.4668C456.239 31.4668 456.713 31.5579 457.123 31.7402C457.538 31.9225 457.861 32.1982 458.094 32.5674C458.331 32.932 458.449 33.39 458.449 33.9414V37.3867C458.449 37.6328 458.47 37.8949 458.511 38.1729C458.556 38.4508 458.622 38.6901 458.709 38.8906V39H457.39C457.326 38.8542 457.276 38.6605 457.239 38.4189C457.203 38.1729 457.185 37.945 457.185 37.7354ZM457.403 34.5156L457.417 35.4043H456.139C455.779 35.4043 455.457 35.4339 455.175 35.4932C454.892 35.5479 454.655 35.6322 454.464 35.7461C454.272 35.86 454.127 36.0036 454.026 36.1768C453.926 36.3454 453.876 36.5436 453.876 36.7715C453.876 37.0039 453.928 37.2158 454.033 37.4072C454.138 37.5986 454.295 37.7513 454.505 37.8652C454.719 37.9746 454.981 38.0293 455.291 38.0293C455.678 38.0293 456.02 37.9473 456.316 37.7832C456.613 37.6191 456.847 37.4186 457.021 37.1816C457.198 36.9447 457.294 36.7145 457.308 36.4912L457.848 37.0996C457.816 37.291 457.729 37.5029 457.588 37.7354C457.447 37.9678 457.257 38.1911 457.021 38.4053C456.788 38.6149 456.51 38.7904 456.187 38.9316C455.868 39.0684 455.507 39.1367 455.106 39.1367C454.605 39.1367 454.165 39.0387 453.787 38.8428C453.413 38.6468 453.122 38.3848 452.912 38.0566C452.707 37.724 452.604 37.3525 452.604 36.9424C452.604 36.5459 452.682 36.1973 452.837 35.8965C452.992 35.5911 453.215 35.3382 453.507 35.1377C453.799 34.9326 454.149 34.7777 454.56 34.6729C454.97 34.568 455.428 34.5156 455.934 34.5156H457.403ZM461.812 28.5V39H460.541V28.5H461.812ZM465.217 31.6035V39H463.945V31.6035H465.217ZM463.85 29.6416C463.85 29.4365 463.911 29.2633 464.034 29.1221C464.162 28.9808 464.349 28.9102 464.595 28.9102C464.836 28.9102 465.021 28.9808 465.148 29.1221C465.281 29.2633 465.347 29.4365 465.347 29.6416C465.347 29.8376 465.281 30.0062 465.148 30.1475C465.021 30.2842 464.836 30.3525 464.595 30.3525C464.349 30.3525 464.162 30.2842 464.034 30.1475C463.911 30.0062 463.85 29.8376 463.85 29.6416ZM472.757 37.9609V39H467.377V37.9609H472.757ZM472.559 32.499L467.664 39H466.892V38.0703L471.752 31.6035H472.559V32.499ZM471.998 31.6035V32.6494H466.946V31.6035H471.998ZM475.566 31.6035V39H474.295V31.6035H475.566ZM474.199 29.6416C474.199 29.4365 474.261 29.2633 474.384 29.1221C474.511 28.9808 474.698 28.9102 474.944 28.9102C475.186 28.9102 475.37 28.9808 475.498 29.1221C475.63 29.2633 475.696 29.4365 475.696 29.6416C475.696 29.8376 475.63 30.0062 475.498 30.1475C475.37 30.2842 475.186 30.3525 474.944 30.3525C474.698 30.3525 474.511 30.2842 474.384 30.1475C474.261 30.0062 474.199 29.8376 474.199 29.6416ZM478.861 33.1826V39H477.597V31.6035H478.793L478.861 33.1826ZM478.561 35.0215L478.034 35.001C478.039 34.4951 478.114 34.028 478.26 33.5996C478.406 33.1667 478.611 32.7907 478.875 32.4717C479.139 32.1527 479.454 31.9066 479.818 31.7334C480.188 31.5557 480.595 31.4668 481.042 31.4668C481.407 31.4668 481.735 31.5169 482.026 31.6172C482.318 31.7129 482.566 31.8678 482.771 32.082C482.981 32.2962 483.141 32.5742 483.25 32.916C483.359 33.2533 483.414 33.6657 483.414 34.1533V39H482.143V34.1396C482.143 33.7523 482.086 33.4424 481.972 33.21C481.858 32.973 481.691 32.8021 481.473 32.6973C481.254 32.5879 480.985 32.5332 480.666 32.5332C480.352 32.5332 480.064 32.5993 479.805 32.7314C479.549 32.8636 479.328 33.0459 479.142 33.2783C478.959 33.5107 478.816 33.7773 478.711 34.0781C478.611 34.3743 478.561 34.6888 478.561 35.0215ZM490.127 31.6035H491.275V38.8428C491.275 39.4945 491.143 40.0505 490.879 40.5107C490.615 40.971 490.245 41.3197 489.771 41.5566C489.302 41.7982 488.76 41.9189 488.145 41.9189C487.889 41.9189 487.589 41.8779 487.242 41.7959C486.9 41.7184 486.563 41.584 486.23 41.3926C485.902 41.2057 485.627 40.9528 485.403 40.6338L486.066 39.8818C486.376 40.2555 486.7 40.5153 487.037 40.6611C487.379 40.807 487.716 40.8799 488.049 40.8799C488.45 40.8799 488.796 40.8047 489.088 40.6543C489.38 40.5039 489.605 40.2806 489.765 39.9844C489.929 39.6927 490.011 39.3327 490.011 38.9043V33.2305L490.127 31.6035ZM485.034 35.3838V35.2402C485.034 34.6751 485.1 34.1624 485.232 33.7021C485.369 33.2373 485.563 32.8385 485.813 32.5059C486.069 32.1732 486.376 31.918 486.736 31.7402C487.096 31.5579 487.502 31.4668 487.953 31.4668C488.418 31.4668 488.824 31.5488 489.17 31.7129C489.521 31.8724 489.817 32.1071 490.059 32.417C490.305 32.7223 490.498 33.0915 490.64 33.5244C490.781 33.9574 490.879 34.4473 490.934 34.9941V35.623C490.883 36.1654 490.785 36.653 490.64 37.0859C490.498 37.5189 490.305 37.888 490.059 38.1934C489.817 38.4987 489.521 38.7334 489.17 38.8975C488.819 39.057 488.409 39.1367 487.939 39.1367C487.497 39.1367 487.096 39.0433 486.736 38.8564C486.381 38.6696 486.076 38.4076 485.82 38.0703C485.565 37.7331 485.369 37.3366 485.232 36.8809C485.1 36.4206 485.034 35.9215 485.034 35.3838ZM486.299 35.2402V35.3838C486.299 35.7529 486.335 36.0993 486.408 36.4229C486.486 36.7464 486.602 37.0312 486.757 37.2773C486.916 37.5234 487.119 37.7171 487.365 37.8584C487.611 37.9951 487.905 38.0635 488.247 38.0635C488.666 38.0635 489.013 37.9746 489.286 37.7969C489.56 37.6191 489.776 37.3844 489.936 37.0928C490.1 36.8011 490.227 36.4844 490.318 36.1426V34.4951C490.268 34.2445 490.191 34.0029 490.086 33.7705C489.986 33.5335 489.854 33.3239 489.689 33.1416C489.53 32.9548 489.332 32.8066 489.095 32.6973C488.858 32.5879 488.58 32.5332 488.261 32.5332C487.914 32.5332 487.616 32.6061 487.365 32.752C487.119 32.8932 486.916 33.0892 486.757 33.3398C486.602 33.5859 486.486 33.873 486.408 34.2012C486.335 34.5247 486.299 34.8711 486.299 35.2402Z" fill="#1362F3"/>
<rect x="3.5" y="184.5" width="186" height="105" rx="9.5" fill="#FFD6C7"/>
<rect x="3.5" y="184.5" width="186" height="105" rx="9.5" stroke="#FFB499"/>
<path d="M72.833 232.047V242H71.5342V232.047H72.833ZM76.0322 232.047V233.127H68.3418V232.047H76.0322ZM79.7031 242.137C79.1882 242.137 78.721 242.05 78.3018 241.877C77.887 241.699 77.5293 241.451 77.2285 241.132C76.9323 240.813 76.7044 240.435 76.5449 239.997C76.3854 239.56 76.3057 239.081 76.3057 238.562V238.274C76.3057 237.673 76.3945 237.137 76.5723 236.668C76.75 236.194 76.9915 235.793 77.2969 235.465C77.6022 235.137 77.9486 234.888 78.3359 234.72C78.7233 234.551 79.1243 234.467 79.5391 234.467C80.0677 234.467 80.5234 234.558 80.9062 234.74C81.2936 234.923 81.6104 235.178 81.8564 235.506C82.1025 235.829 82.2848 236.212 82.4033 236.654C82.5218 237.092 82.5811 237.57 82.5811 238.09V238.657H77.0576V237.625H81.3164V237.529C81.2982 237.201 81.2298 236.882 81.1113 236.572C80.9974 236.262 80.8151 236.007 80.5645 235.807C80.3138 235.606 79.972 235.506 79.5391 235.506C79.252 235.506 78.9876 235.567 78.7461 235.69C78.5046 235.809 78.2972 235.987 78.124 236.224C77.9508 236.461 77.8164 236.75 77.7207 237.092C77.625 237.434 77.5771 237.828 77.5771 238.274V238.562C77.5771 238.912 77.625 239.243 77.7207 239.553C77.821 239.858 77.9645 240.127 78.1514 240.359C78.3428 240.592 78.5729 240.774 78.8418 240.906C79.1152 241.038 79.4251 241.104 79.7715 241.104C80.2181 241.104 80.5964 241.013 80.9062 240.831C81.2161 240.649 81.4873 240.405 81.7197 240.1L82.4854 240.708C82.3258 240.95 82.123 241.18 81.877 241.398C81.6309 241.617 81.3278 241.795 80.9678 241.932C80.6123 242.068 80.1908 242.137 79.7031 242.137ZM88.4189 240.735V236.928C88.4189 236.636 88.3597 236.383 88.2412 236.169C88.1273 235.95 87.9541 235.782 87.7217 235.663C87.4893 235.545 87.2021 235.485 86.8604 235.485C86.5413 235.485 86.2611 235.54 86.0195 235.649C85.7826 235.759 85.5957 235.902 85.459 236.08C85.3268 236.258 85.2607 236.449 85.2607 236.654H83.9961C83.9961 236.39 84.0645 236.128 84.2012 235.868C84.3379 235.608 84.5339 235.374 84.7891 235.164C85.0488 234.95 85.3587 234.781 85.7188 234.658C86.0833 234.531 86.4889 234.467 86.9355 234.467C87.4733 234.467 87.9473 234.558 88.3574 234.74C88.7721 234.923 89.0957 235.198 89.3281 235.567C89.5651 235.932 89.6836 236.39 89.6836 236.941V240.387C89.6836 240.633 89.7041 240.895 89.7451 241.173C89.7907 241.451 89.8568 241.69 89.9434 241.891V242H88.624C88.5602 241.854 88.5101 241.66 88.4736 241.419C88.4372 241.173 88.4189 240.945 88.4189 240.735ZM88.6377 237.516L88.6514 238.404H87.373C87.013 238.404 86.6917 238.434 86.4092 238.493C86.1266 238.548 85.8896 238.632 85.6982 238.746C85.5068 238.86 85.361 239.004 85.2607 239.177C85.1605 239.345 85.1104 239.544 85.1104 239.771C85.1104 240.004 85.1628 240.216 85.2676 240.407C85.3724 240.599 85.5296 240.751 85.7393 240.865C85.9535 240.975 86.2155 241.029 86.5254 241.029C86.9128 241.029 87.2546 240.947 87.5508 240.783C87.847 240.619 88.0817 240.419 88.2549 240.182C88.4326 239.945 88.5283 239.715 88.542 239.491L89.082 240.1C89.0501 240.291 88.9635 240.503 88.8223 240.735C88.681 240.968 88.4919 241.191 88.2549 241.405C88.0225 241.615 87.7445 241.79 87.4209 241.932C87.1019 242.068 86.7419 242.137 86.3408 242.137C85.8395 242.137 85.3997 242.039 85.0215 241.843C84.6478 241.647 84.3561 241.385 84.1465 241.057C83.9414 240.724 83.8389 240.353 83.8389 239.942C83.8389 239.546 83.9163 239.197 84.0713 238.896C84.2262 238.591 84.4495 238.338 84.7412 238.138C85.0329 237.933 85.3838 237.778 85.7939 237.673C86.2041 237.568 86.6621 237.516 87.168 237.516H88.6377ZM94.6328 241.098C94.9336 241.098 95.2116 241.036 95.4668 240.913C95.722 240.79 95.9316 240.621 96.0957 240.407C96.2598 240.188 96.3532 239.94 96.376 239.662H97.5791C97.5563 240.1 97.4082 240.507 97.1348 240.886C96.8659 241.259 96.5127 241.562 96.0752 241.795C95.6377 242.023 95.1569 242.137 94.6328 242.137C94.0768 242.137 93.5915 242.039 93.1768 241.843C92.7666 241.647 92.4248 241.378 92.1514 241.036C91.8825 240.694 91.6797 240.302 91.543 239.86C91.4108 239.414 91.3447 238.942 91.3447 238.445V238.158C91.3447 237.661 91.4108 237.192 91.543 236.75C91.6797 236.303 91.8825 235.909 92.1514 235.567C92.4248 235.226 92.7666 234.957 93.1768 234.761C93.5915 234.565 94.0768 234.467 94.6328 234.467C95.2116 234.467 95.7174 234.585 96.1504 234.822C96.5833 235.055 96.9229 235.374 97.1689 235.779C97.4196 236.18 97.5563 236.636 97.5791 237.146H96.376C96.3532 236.841 96.2666 236.565 96.1162 236.319C95.9704 236.073 95.7699 235.877 95.5146 235.731C95.264 235.581 94.9701 235.506 94.6328 235.506C94.2454 235.506 93.9196 235.583 93.6553 235.738C93.3955 235.889 93.1882 236.094 93.0332 236.354C92.8828 236.609 92.7734 236.894 92.7051 237.208C92.6413 237.518 92.6094 237.835 92.6094 238.158V238.445C92.6094 238.769 92.6413 239.088 92.7051 239.402C92.7689 239.717 92.876 240.002 93.0264 240.257C93.1813 240.512 93.3887 240.717 93.6484 240.872C93.9128 241.022 94.2409 241.098 94.6328 241.098ZM100.266 231.5V242H99.001V231.5H100.266ZM99.9648 238.021L99.4385 238.001C99.443 237.495 99.5182 237.028 99.6641 236.6C99.8099 236.167 100.015 235.791 100.279 235.472C100.544 235.153 100.858 234.907 101.223 234.733C101.592 234.556 102 234.467 102.446 234.467C102.811 234.467 103.139 234.517 103.431 234.617C103.722 234.713 103.971 234.868 104.176 235.082C104.385 235.296 104.545 235.574 104.654 235.916C104.764 236.253 104.818 236.666 104.818 237.153V242H103.547V237.14C103.547 236.752 103.49 236.442 103.376 236.21C103.262 235.973 103.096 235.802 102.877 235.697C102.658 235.588 102.389 235.533 102.07 235.533C101.756 235.533 101.469 235.599 101.209 235.731C100.954 235.864 100.733 236.046 100.546 236.278C100.364 236.511 100.22 236.777 100.115 237.078C100.015 237.374 99.9648 237.689 99.9648 238.021ZM108.086 234.604V242H106.814V234.604H108.086ZM106.719 232.642C106.719 232.437 106.78 232.263 106.903 232.122C107.031 231.981 107.218 231.91 107.464 231.91C107.705 231.91 107.89 231.981 108.018 232.122C108.15 232.263 108.216 232.437 108.216 232.642C108.216 232.838 108.15 233.006 108.018 233.147C107.89 233.284 107.705 233.353 107.464 233.353C107.218 233.353 107.031 233.284 106.903 233.147C106.78 233.006 106.719 232.838 106.719 232.642ZM111.381 236.183V242H110.116V234.604H111.312L111.381 236.183ZM111.08 238.021L110.554 238.001C110.558 237.495 110.633 237.028 110.779 236.6C110.925 236.167 111.13 235.791 111.395 235.472C111.659 235.153 111.973 234.907 112.338 234.733C112.707 234.556 113.115 234.467 113.562 234.467C113.926 234.467 114.254 234.517 114.546 234.617C114.838 234.713 115.086 234.868 115.291 235.082C115.501 235.296 115.66 235.574 115.77 235.916C115.879 236.253 115.934 236.666 115.934 237.153V242H114.662V237.14C114.662 236.752 114.605 236.442 114.491 236.21C114.377 235.973 114.211 235.802 113.992 235.697C113.773 235.588 113.505 235.533 113.186 235.533C112.871 235.533 112.584 235.599 112.324 235.731C112.069 235.864 111.848 236.046 111.661 236.278C111.479 236.511 111.335 236.777 111.23 237.078C111.13 237.374 111.08 237.689 111.08 238.021ZM122.646 234.604H123.795V241.843C123.795 242.494 123.663 243.05 123.398 243.511C123.134 243.971 122.765 244.32 122.291 244.557C121.822 244.798 121.279 244.919 120.664 244.919C120.409 244.919 120.108 244.878 119.762 244.796C119.42 244.718 119.083 244.584 118.75 244.393C118.422 244.206 118.146 243.953 117.923 243.634L118.586 242.882C118.896 243.256 119.219 243.515 119.557 243.661C119.898 243.807 120.236 243.88 120.568 243.88C120.969 243.88 121.316 243.805 121.607 243.654C121.899 243.504 122.125 243.281 122.284 242.984C122.448 242.693 122.53 242.333 122.53 241.904V236.23L122.646 234.604ZM117.554 238.384V238.24C117.554 237.675 117.62 237.162 117.752 236.702C117.889 236.237 118.082 235.839 118.333 235.506C118.588 235.173 118.896 234.918 119.256 234.74C119.616 234.558 120.021 234.467 120.473 234.467C120.938 234.467 121.343 234.549 121.689 234.713C122.04 234.872 122.337 235.107 122.578 235.417C122.824 235.722 123.018 236.091 123.159 236.524C123.3 236.957 123.398 237.447 123.453 237.994V238.623C123.403 239.165 123.305 239.653 123.159 240.086C123.018 240.519 122.824 240.888 122.578 241.193C122.337 241.499 122.04 241.733 121.689 241.897C121.339 242.057 120.928 242.137 120.459 242.137C120.017 242.137 119.616 242.043 119.256 241.856C118.9 241.67 118.595 241.408 118.34 241.07C118.085 240.733 117.889 240.337 117.752 239.881C117.62 239.421 117.554 238.922 117.554 238.384ZM118.818 238.24V238.384C118.818 238.753 118.855 239.099 118.928 239.423C119.005 239.746 119.121 240.031 119.276 240.277C119.436 240.523 119.639 240.717 119.885 240.858C120.131 240.995 120.425 241.063 120.767 241.063C121.186 241.063 121.532 240.975 121.806 240.797C122.079 240.619 122.296 240.384 122.455 240.093C122.619 239.801 122.747 239.484 122.838 239.143V237.495C122.788 237.244 122.71 237.003 122.605 236.771C122.505 236.534 122.373 236.324 122.209 236.142C122.049 235.955 121.851 235.807 121.614 235.697C121.377 235.588 121.099 235.533 120.78 235.533C120.434 235.533 120.135 235.606 119.885 235.752C119.639 235.893 119.436 236.089 119.276 236.34C119.121 236.586 119.005 236.873 118.928 237.201C118.855 237.525 118.818 237.871 118.818 238.24Z" fill="#FF662F"/>
<rect x="357.5" y="165.5" width="186" height="143" rx="9.5" fill="#B4E9C6"/>
<rect x="357.5" y="165.5" width="186" height="143" rx="9.5" stroke="#4CC375"/>
<path d="M428.333 232.047V242H427.034V232.047H428.333ZM431.532 232.047V233.127H423.842V232.047H431.532ZM433.562 235.766V242H432.298V234.604H433.528L433.562 235.766ZM435.873 234.562L435.866 235.738C435.761 235.715 435.661 235.702 435.565 235.697C435.474 235.688 435.369 235.684 435.251 235.684C434.959 235.684 434.702 235.729 434.479 235.82C434.255 235.911 434.066 236.039 433.911 236.203C433.756 236.367 433.633 236.563 433.542 236.791C433.455 237.014 433.398 237.26 433.371 237.529L433.016 237.734C433.016 237.288 433.059 236.868 433.146 236.477C433.237 236.085 433.376 235.738 433.562 235.438C433.749 235.132 433.986 234.895 434.273 234.727C434.565 234.553 434.911 234.467 435.312 234.467C435.404 234.467 435.508 234.478 435.627 234.501C435.745 234.519 435.827 234.54 435.873 234.562ZM441.13 240.735V236.928C441.13 236.636 441.071 236.383 440.952 236.169C440.838 235.95 440.665 235.782 440.433 235.663C440.2 235.545 439.913 235.485 439.571 235.485C439.252 235.485 438.972 235.54 438.73 235.649C438.493 235.759 438.307 235.902 438.17 236.08C438.038 236.258 437.972 236.449 437.972 236.654H436.707C436.707 236.39 436.775 236.128 436.912 235.868C437.049 235.608 437.245 235.374 437.5 235.164C437.76 234.95 438.07 234.781 438.43 234.658C438.794 234.531 439.2 234.467 439.646 234.467C440.184 234.467 440.658 234.558 441.068 234.74C441.483 234.923 441.807 235.198 442.039 235.567C442.276 235.932 442.395 236.39 442.395 236.941V240.387C442.395 240.633 442.415 240.895 442.456 241.173C442.502 241.451 442.568 241.69 442.654 241.891V242H441.335C441.271 241.854 441.221 241.66 441.185 241.419C441.148 241.173 441.13 240.945 441.13 240.735ZM441.349 237.516L441.362 238.404H440.084C439.724 238.404 439.403 238.434 439.12 238.493C438.838 238.548 438.601 238.632 438.409 238.746C438.218 238.86 438.072 239.004 437.972 239.177C437.871 239.345 437.821 239.544 437.821 239.771C437.821 240.004 437.874 240.216 437.979 240.407C438.083 240.599 438.241 240.751 438.45 240.865C438.664 240.975 438.926 241.029 439.236 241.029C439.624 241.029 439.965 240.947 440.262 240.783C440.558 240.619 440.793 240.419 440.966 240.182C441.144 239.945 441.239 239.715 441.253 239.491L441.793 240.1C441.761 240.291 441.674 240.503 441.533 240.735C441.392 240.968 441.203 241.191 440.966 241.405C440.733 241.615 440.455 241.79 440.132 241.932C439.813 242.068 439.453 242.137 439.052 242.137C438.55 242.137 438.111 242.039 437.732 241.843C437.359 241.647 437.067 241.385 436.857 241.057C436.652 240.724 436.55 240.353 436.55 239.942C436.55 239.546 436.627 239.197 436.782 238.896C436.937 238.591 437.16 238.338 437.452 238.138C437.744 237.933 438.095 237.778 438.505 237.673C438.915 237.568 439.373 237.516 439.879 237.516H441.349ZM447.344 241.098C447.645 241.098 447.923 241.036 448.178 240.913C448.433 240.79 448.643 240.621 448.807 240.407C448.971 240.188 449.064 239.94 449.087 239.662H450.29C450.267 240.1 450.119 240.507 449.846 240.886C449.577 241.259 449.224 241.562 448.786 241.795C448.349 242.023 447.868 242.137 447.344 242.137C446.788 242.137 446.302 242.039 445.888 241.843C445.478 241.647 445.136 241.378 444.862 241.036C444.593 240.694 444.391 240.302 444.254 239.86C444.122 239.414 444.056 238.942 444.056 238.445V238.158C444.056 237.661 444.122 237.192 444.254 236.75C444.391 236.303 444.593 235.909 444.862 235.567C445.136 235.226 445.478 234.957 445.888 234.761C446.302 234.565 446.788 234.467 447.344 234.467C447.923 234.467 448.428 234.585 448.861 234.822C449.294 235.055 449.634 235.374 449.88 235.779C450.131 236.18 450.267 236.636 450.29 237.146H449.087C449.064 236.841 448.978 236.565 448.827 236.319C448.681 236.073 448.481 235.877 448.226 235.731C447.975 235.581 447.681 235.506 447.344 235.506C446.956 235.506 446.631 235.583 446.366 235.738C446.106 235.889 445.899 236.094 445.744 236.354C445.594 236.609 445.484 236.894 445.416 237.208C445.352 237.518 445.32 237.835 445.32 238.158V238.445C445.32 238.769 445.352 239.088 445.416 239.402C445.48 239.717 445.587 240.002 445.737 240.257C445.892 240.512 446.1 240.717 446.359 240.872C446.624 241.022 446.952 241.098 447.344 241.098ZM452.983 231.5V242H451.712V231.5H452.983ZM457.502 234.604L454.275 238.056L452.471 239.929L452.368 238.582L453.66 237.037L455.957 234.604H457.502ZM456.347 242L453.708 238.473L454.364 237.345L457.837 242H456.347ZM460.182 234.604V242H458.91V234.604H460.182ZM458.814 232.642C458.814 232.437 458.876 232.263 458.999 232.122C459.127 231.981 459.313 231.91 459.56 231.91C459.801 231.91 459.986 231.981 460.113 232.122C460.245 232.263 460.312 232.437 460.312 232.642C460.312 232.838 460.245 233.006 460.113 233.147C459.986 233.284 459.801 233.353 459.56 233.353C459.313 233.353 459.127 233.284 458.999 233.147C458.876 233.006 458.814 232.838 458.814 232.642ZM463.477 236.183V242H462.212V234.604H463.408L463.477 236.183ZM463.176 238.021L462.649 238.001C462.654 237.495 462.729 237.028 462.875 236.6C463.021 236.167 463.226 235.791 463.49 235.472C463.755 235.153 464.069 234.907 464.434 234.733C464.803 234.556 465.211 234.467 465.657 234.467C466.022 234.467 466.35 234.517 466.642 234.617C466.933 234.713 467.182 234.868 467.387 235.082C467.596 235.296 467.756 235.574 467.865 235.916C467.975 236.253 468.029 236.666 468.029 237.153V242H466.758V237.14C466.758 236.752 466.701 236.442 466.587 236.21C466.473 235.973 466.307 235.802 466.088 235.697C465.869 235.588 465.6 235.533 465.281 235.533C464.967 235.533 464.68 235.599 464.42 235.731C464.165 235.864 463.944 236.046 463.757 236.278C463.575 236.511 463.431 236.777 463.326 237.078C463.226 237.374 463.176 237.689 463.176 238.021ZM474.742 234.604H475.891V241.843C475.891 242.494 475.758 243.05 475.494 243.511C475.23 243.971 474.861 244.32 474.387 244.557C473.917 244.798 473.375 244.919 472.76 244.919C472.505 244.919 472.204 244.878 471.857 244.796C471.516 244.718 471.178 244.584 470.846 244.393C470.518 244.206 470.242 243.953 470.019 243.634L470.682 242.882C470.992 243.256 471.315 243.515 471.652 243.661C471.994 243.807 472.331 243.88 472.664 243.88C473.065 243.88 473.411 243.805 473.703 243.654C473.995 243.504 474.22 243.281 474.38 242.984C474.544 242.693 474.626 242.333 474.626 241.904V236.23L474.742 234.604ZM469.649 238.384V238.24C469.649 237.675 469.715 237.162 469.848 236.702C469.984 236.237 470.178 235.839 470.429 235.506C470.684 235.173 470.992 234.918 471.352 234.74C471.712 234.558 472.117 234.467 472.568 234.467C473.033 234.467 473.439 234.549 473.785 234.713C474.136 234.872 474.432 235.107 474.674 235.417C474.92 235.722 475.114 236.091 475.255 236.524C475.396 236.957 475.494 237.447 475.549 237.994V238.623C475.499 239.165 475.401 239.653 475.255 240.086C475.114 240.519 474.92 240.888 474.674 241.193C474.432 241.499 474.136 241.733 473.785 241.897C473.434 242.057 473.024 242.137 472.555 242.137C472.113 242.137 471.712 242.043 471.352 241.856C470.996 241.67 470.691 241.408 470.436 241.07C470.18 240.733 469.984 240.337 469.848 239.881C469.715 239.421 469.649 238.922 469.649 238.384ZM470.914 238.24V238.384C470.914 238.753 470.951 239.099 471.023 239.423C471.101 239.746 471.217 240.031 471.372 240.277C471.532 240.523 471.734 240.717 471.98 240.858C472.227 240.995 472.521 241.063 472.862 241.063C473.282 241.063 473.628 240.975 473.901 240.797C474.175 240.619 474.391 240.384 474.551 240.093C474.715 239.801 474.842 239.484 474.934 239.143V237.495C474.883 237.244 474.806 237.003 474.701 236.771C474.601 236.534 474.469 236.324 474.305 236.142C474.145 235.955 473.947 235.807 473.71 235.697C473.473 235.588 473.195 235.533 472.876 235.533C472.53 235.533 472.231 235.606 471.98 235.752C471.734 235.893 471.532 236.089 471.372 236.34C471.217 236.586 471.101 236.873 471.023 237.201C470.951 237.525 470.914 237.871 470.914 238.24Z" fill="#00AD3C"/>
<path d="M187 34H357.5" stroke="black"/>
<circle cx="186.5" cy="33.5" r="3" fill="white" stroke="black"/>
<circle cx="358.5" cy="33.5" r="3" fill="white" stroke="black"/>
<path d="M459 68L89 184" stroke="black"/>
<circle cx="460.5" cy="67.5" r="3" fill="white" stroke="black"/>
<circle cx="89.5" cy="183.5" r="3" fill="white" stroke="black"/>
<path d="M183 234H353.5" stroke="black"/>
<circle cx="182.5" cy="233.5" r="3" fill="white" stroke="black"/>
<circle cx="354.5" cy="233.5" r="3" fill="white" stroke="black"/>
</svg>
