<svg width="544" height="309" viewBox="0 0 544 309" fill="none" xmlns="http://www.w3.org/2000/svg">
<rect x="0.5" y="10.5" width="186" height="50" rx="9.5" fill="#F5F5F5"/>
<rect x="0.5" y="10.5" width="186" height="50" rx="9.5" stroke="#E1E1E1"/>
<path d="M37.517 43L45.107 26.785H48.442L56.032 43H51.8L49.891 38.538L51.501 39.711H42.025L43.658 38.538L41.749 43H37.517ZM46.74 31.201L44.072 37.572L43.428 36.468H50.121L49.477 37.572L46.786 31.201H46.74ZM61.0438 43.253C60.3538 43.253 59.6868 43.207 59.0428 43.115C58.4142 43.023 57.8392 42.885 57.3178 42.701C56.7965 42.517 56.3288 42.2947 55.9148 42.034L56.8578 39.389C57.2412 39.6037 57.6628 39.7953 58.1228 39.964C58.5982 40.1327 59.0888 40.263 59.5948 40.355C60.1008 40.447 60.5915 40.493 61.0668 40.493C61.6342 40.493 62.0405 40.4163 62.2858 40.263C62.5312 40.0943 62.6538 39.8797 62.6538 39.619C62.6538 39.389 62.5695 39.2127 62.4008 39.09C62.2475 38.9673 62.0252 38.883 61.7338 38.837L59.1808 38.423C58.2302 38.2543 57.4942 37.9093 56.9728 37.388C56.4515 36.8513 56.1908 36.1537 56.1908 35.295C56.1908 34.4977 56.4132 33.8153 56.8578 33.248C57.3178 32.6653 57.9388 32.2207 58.7208 31.914C59.5182 31.592 60.4305 31.431 61.4578 31.431C62.0098 31.431 62.5542 31.477 63.0908 31.569C63.6275 31.6457 64.1412 31.776 64.6318 31.96C65.1225 32.1287 65.5672 32.3587 65.9658 32.65L64.9538 35.249C64.6625 35.0343 64.3175 34.8503 63.9188 34.697C63.5202 34.5437 63.1062 34.421 62.6768 34.329C62.2628 34.2217 61.8795 34.168 61.5268 34.168C60.8982 34.168 60.4535 34.2523 60.1928 34.421C59.9322 34.5897 59.8018 34.8043 59.8018 35.065C59.8018 35.2643 59.8708 35.433 60.0088 35.571C60.1468 35.6937 60.3615 35.778 60.6528 35.824L63.2058 36.261C64.1872 36.4143 64.9385 36.7517 65.4598 37.273C65.9965 37.779 66.2648 38.469 66.2648 39.343C66.2648 40.171 66.0502 40.8763 65.6208 41.459C65.1915 42.0417 64.5858 42.4863 63.8038 42.793C63.0218 43.0997 62.1018 43.253 61.0438 43.253ZM72.454 43.253C71.764 43.253 71.097 43.207 70.453 43.115C69.8243 43.023 69.2493 42.885 68.728 42.701C68.2067 42.517 67.739 42.2947 67.325 42.034L68.268 39.389C68.6513 39.6037 69.073 39.7953 69.533 39.964C70.0083 40.1327 70.499 40.263 71.005 40.355C71.511 40.447 72.0017 40.493 72.477 40.493C73.0443 40.493 73.4507 40.4163 73.696 40.263C73.9413 40.0943 74.064 39.8797 74.064 39.619C74.064 39.389 73.9797 39.2127 73.811 39.09C73.6577 38.9673 73.4353 38.883 73.144 38.837L70.591 38.423C69.6403 38.2543 68.9043 37.9093 68.383 37.388C67.8617 36.8513 67.601 36.1537 67.601 35.295C67.601 34.4977 67.8233 33.8153 68.268 33.248C68.728 32.6653 69.349 32.2207 70.131 31.914C70.9283 31.592 71.8407 31.431 72.868 31.431C73.42 31.431 73.9643 31.477 74.501 31.569C75.0377 31.6457 75.5513 31.776 76.042 31.96C76.5327 32.1287 76.9773 32.3587 77.376 32.65L76.364 35.249C76.0727 35.0343 75.7277 34.8503 75.329 34.697C74.9303 34.5437 74.5163 34.421 74.087 34.329C73.673 34.2217 73.2897 34.168 72.937 34.168C72.3083 34.168 71.8637 34.2523 71.603 34.421C71.3423 34.5897 71.212 34.8043 71.212 35.065C71.212 35.2643 71.281 35.433 71.419 35.571C71.557 35.6937 71.7717 35.778 72.063 35.824L74.616 36.261C75.5973 36.4143 76.3487 36.7517 76.87 37.273C77.4067 37.779 77.675 38.469 77.675 39.343C77.675 40.171 77.4603 40.8763 77.031 41.459C76.6017 42.0417 75.996 42.4863 75.214 42.793C74.432 43.0997 73.512 43.253 72.454 43.253ZM85.5202 43.253C84.1402 43.253 82.9442 43.0153 81.9322 42.54C80.9355 42.0493 80.1688 41.3593 79.6322 40.47C79.0955 39.5807 78.8272 38.5303 78.8272 37.319C78.8272 36.1537 79.0802 35.134 79.5862 34.26C80.1075 33.3707 80.8128 32.6807 81.7022 32.19C82.6068 31.684 83.6342 31.431 84.7842 31.431C85.9342 31.431 86.9232 31.6687 87.7512 32.144C88.5792 32.6193 89.2155 33.3017 89.6602 34.191C90.1202 35.065 90.3502 36.0923 90.3502 37.273V38.17H82.2542V36.238H87.3602L86.9922 36.537C86.9922 35.709 86.8158 35.0957 86.4632 34.697C86.1105 34.283 85.6122 34.076 84.9682 34.076C84.4928 34.076 84.0788 34.191 83.7262 34.421C83.3888 34.6357 83.1282 34.9577 82.9442 35.387C82.7602 35.8163 82.6682 36.353 82.6682 36.997V37.204C82.6682 37.9247 82.7678 38.5073 82.9672 38.952C83.1818 39.3967 83.5115 39.7263 83.9562 39.941C84.4008 40.1403 84.9605 40.24 85.6352 40.24C86.2178 40.24 86.8235 40.1557 87.4522 39.987C88.0962 39.803 88.6635 39.5423 89.1542 39.205L90.1662 41.896C89.5835 42.31 88.8705 42.6397 88.0272 42.885C87.1838 43.1303 86.3482 43.253 85.5202 43.253ZM96.622 43.253C95.932 43.253 95.265 43.207 94.621 43.115C93.9923 43.023 93.4173 42.885 92.896 42.701C92.3746 42.517 91.907 42.2947 91.493 42.034L92.436 39.389C92.8193 39.6037 93.241 39.7953 93.701 39.964C94.1763 40.1327 94.667 40.263 95.173 40.355C95.679 40.447 96.1696 40.493 96.645 40.493C97.2123 40.493 97.6186 40.4163 97.864 40.263C98.1093 40.0943 98.232 39.8797 98.232 39.619C98.232 39.389 98.1476 39.2127 97.979 39.09C97.8256 38.9673 97.6033 38.883 97.312 38.837L94.759 38.423C93.8083 38.2543 93.0723 37.9093 92.551 37.388C92.0296 36.8513 91.769 36.1537 91.769 35.295C91.769 34.4977 91.9913 33.8153 92.436 33.248C92.896 32.6653 93.517 32.2207 94.299 31.914C95.0963 31.592 96.0086 31.431 97.036 31.431C97.588 31.431 98.1323 31.477 98.669 31.569C99.2056 31.6457 99.7193 31.776 100.21 31.96C100.701 32.1287 101.145 32.3587 101.544 32.65L100.532 35.249C100.241 35.0343 99.8956 34.8503 99.497 34.697C99.0983 34.5437 98.6843 34.421 98.255 34.329C97.841 34.2217 97.4576 34.168 97.105 34.168C96.4763 34.168 96.0316 34.2523 95.771 34.421C95.5103 34.5897 95.38 34.8043 95.38 35.065C95.38 35.2643 95.449 35.433 95.587 35.571C95.725 35.6937 95.9396 35.778 96.231 35.824L98.784 36.261C99.7653 36.4143 100.517 36.7517 101.038 37.273C101.575 37.779 101.843 38.469 101.843 39.343C101.843 40.171 101.628 40.8763 101.199 41.459C100.77 42.0417 100.164 42.4863 99.382 42.793C98.6 43.0997 97.68 43.253 96.622 43.253ZM108.032 43.253C107.342 43.253 106.675 43.207 106.031 43.115C105.402 43.023 104.827 42.885 104.306 42.701C103.785 42.517 103.317 42.2947 102.903 42.034L103.846 39.389C104.229 39.6037 104.651 39.7953 105.111 39.964C105.586 40.1327 106.077 40.263 106.583 40.355C107.089 40.447 107.58 40.493 108.055 40.493C108.622 40.493 109.029 40.4163 109.274 40.263C109.519 40.0943 109.642 39.8797 109.642 39.619C109.642 39.389 109.558 39.2127 109.389 39.09C109.236 38.9673 109.013 38.883 108.722 38.837L106.169 38.423C105.218 38.2543 104.482 37.9093 103.961 37.388C103.44 36.8513 103.179 36.1537 103.179 35.295C103.179 34.4977 103.401 33.8153 103.846 33.248C104.306 32.6653 104.927 32.2207 105.709 31.914C106.506 31.592 107.419 31.431 108.446 31.431C108.998 31.431 109.542 31.477 110.079 31.569C110.616 31.6457 111.129 31.776 111.62 31.96C112.111 32.1287 112.555 32.3587 112.954 32.65L111.942 35.249C111.651 35.0343 111.306 34.8503 110.907 34.697C110.508 34.5437 110.094 34.421 109.665 34.329C109.251 34.2217 108.868 34.168 108.515 34.168C107.886 34.168 107.442 34.2523 107.181 34.421C106.92 34.5897 106.79 34.8043 106.79 35.065C106.79 35.2643 106.859 35.433 106.997 35.571C107.135 35.6937 107.35 35.778 107.641 35.824L110.194 36.261C111.175 36.4143 111.927 36.7517 112.448 37.273C112.985 37.779 113.253 38.469 113.253 39.343C113.253 40.171 113.038 40.8763 112.609 41.459C112.18 42.0417 111.574 42.4863 110.792 42.793C110.01 43.0997 109.09 43.253 108.032 43.253ZM114.819 29.729V26.026H119.12V29.729H114.819ZM114.934 43V31.684H119.028V43H114.934ZM121.403 43V31.684H125.382V33.662H125.129C125.497 32.9413 126.018 32.3893 126.693 32.006C127.383 31.6227 128.165 31.431 129.039 31.431C129.944 31.431 130.687 31.6073 131.27 31.96C131.853 32.2973 132.29 32.834 132.581 33.57C132.872 34.2907 133.018 35.203 133.018 36.307V43H128.924V36.468C128.924 36.008 128.87 35.64 128.763 35.364C128.656 35.0727 128.495 34.8657 128.28 34.743C128.081 34.6203 127.828 34.559 127.521 34.559C127.107 34.559 126.747 34.651 126.44 34.835C126.133 35.0037 125.896 35.249 125.727 35.571C125.574 35.893 125.497 36.2763 125.497 36.721V43H121.403ZM140.963 47.393C139.829 47.393 138.763 47.2857 137.766 47.071C136.785 46.8563 135.942 46.5037 135.236 46.013L136.294 43.253C136.693 43.483 137.138 43.6823 137.628 43.851C138.134 44.035 138.64 44.1653 139.146 44.242C139.652 44.334 140.128 44.38 140.572 44.38C141.508 44.38 142.205 44.1807 142.665 43.782C143.141 43.3987 143.378 42.793 143.378 41.965V40.516H143.562C143.332 41.16 142.865 41.689 142.159 42.103C141.454 42.5017 140.687 42.701 139.859 42.701C138.847 42.701 137.966 42.471 137.214 42.011C136.463 41.5357 135.873 40.8763 135.443 40.033C135.029 39.1897 134.822 38.2007 134.822 37.066C134.822 35.9313 135.029 34.9423 135.443 34.099C135.873 33.2557 136.463 32.604 137.214 32.144C137.966 31.6687 138.847 31.431 139.859 31.431C140.718 31.431 141.485 31.6303 142.159 32.029C142.849 32.4277 143.309 32.949 143.539 33.593H143.355V31.684H147.357V41.482C147.357 42.8007 147.112 43.897 146.621 44.771C146.131 45.645 145.41 46.2967 144.459 46.726C143.509 47.1707 142.343 47.393 140.963 47.393ZM141.124 39.688C141.799 39.688 142.336 39.458 142.734 38.998C143.133 38.538 143.332 37.894 143.332 37.066C143.332 36.238 143.133 35.594 142.734 35.134C142.336 34.674 141.799 34.444 141.124 34.444C140.465 34.444 139.936 34.674 139.537 35.134C139.139 35.594 138.939 36.238 138.939 37.066C138.939 37.894 139.139 38.538 139.537 38.998C139.936 39.458 140.465 39.688 141.124 39.688Z" fill="#A5A5A5"/>
<rect x="357.5" y="0.5" width="186" height="67" rx="9.5" fill="#DFEAFF"/>
<rect x="357.5" y="0.5" width="186" height="67" rx="9.5" stroke="#97ADD7"/>
<path d="M376.472 41.5V25.285H384.269C385.496 25.285 386.538 25.4997 387.397 25.929C388.256 26.343 388.907 26.9487 389.352 27.746C389.812 28.528 390.042 29.4787 390.042 30.598C390.042 31.6867 389.812 32.6373 389.352 33.45C388.907 34.2473 388.256 34.8607 387.397 35.29C386.538 35.704 385.496 35.911 384.269 35.911H380.704V41.5H376.472ZM380.704 32.668H383.533C384.33 32.668 384.944 32.4993 385.373 32.162C385.802 31.8093 386.017 31.288 386.017 30.598C386.017 29.8927 385.802 29.3713 385.373 29.034C384.944 28.6967 384.33 28.528 383.533 28.528H380.704V32.668ZM397.274 41.753C395.894 41.753 394.698 41.5153 393.686 41.04C392.689 40.5493 391.923 39.8593 391.386 38.97C390.849 38.0807 390.581 37.0303 390.581 35.819C390.581 34.6537 390.834 33.634 391.34 32.76C391.861 31.8707 392.567 31.1807 393.456 30.69C394.361 30.184 395.388 29.931 396.538 29.931C397.688 29.931 398.677 30.1687 399.505 30.644C400.333 31.1193 400.969 31.8017 401.414 32.691C401.874 33.565 402.104 34.5923 402.104 35.773V36.67H394.008V34.738H399.114L398.746 35.037C398.746 34.209 398.57 33.5957 398.217 33.197C397.864 32.783 397.366 32.576 396.722 32.576C396.247 32.576 395.833 32.691 395.48 32.921C395.143 33.1357 394.882 33.4577 394.698 33.887C394.514 34.3163 394.422 34.853 394.422 35.497V35.704C394.422 36.4247 394.522 37.0073 394.721 37.452C394.936 37.8967 395.265 38.2263 395.71 38.441C396.155 38.6403 396.714 38.74 397.389 38.74C397.972 38.74 398.577 38.6557 399.206 38.487C399.85 38.303 400.417 38.0423 400.908 37.705L401.92 40.396C401.337 40.81 400.624 41.1397 399.781 41.385C398.938 41.6303 398.102 41.753 397.274 41.753ZM403.868 41.5V30.184H407.847V32.967H407.617C407.77 32.047 408.154 31.334 408.767 30.828C409.396 30.3067 410.216 30.0153 411.228 29.954L412.355 29.862L412.585 33.312L410.354 33.519C409.541 33.5957 408.951 33.8257 408.583 34.209C408.215 34.577 408.031 35.129 408.031 35.865V41.5H403.868ZM418.236 41.753C417.546 41.753 416.879 41.707 416.235 41.615C415.607 41.523 415.032 41.385 414.51 41.201C413.989 41.017 413.521 40.7947 413.107 40.534L414.05 37.889C414.434 38.1037 414.855 38.2953 415.315 38.464C415.791 38.6327 416.281 38.763 416.787 38.855C417.293 38.947 417.784 38.993 418.259 38.993C418.827 38.993 419.233 38.9163 419.478 38.763C419.724 38.5943 419.846 38.3797 419.846 38.119C419.846 37.889 419.762 37.7127 419.593 37.59C419.44 37.4673 419.218 37.383 418.926 37.337L416.373 36.923C415.423 36.7543 414.687 36.4093 414.165 35.888C413.644 35.3513 413.383 34.6537 413.383 33.795C413.383 32.9977 413.606 32.3153 414.05 31.748C414.51 31.1653 415.131 30.7207 415.913 30.414C416.711 30.092 417.623 29.931 418.65 29.931C419.202 29.931 419.747 29.977 420.283 30.069C420.82 30.1457 421.334 30.276 421.824 30.46C422.315 30.6287 422.76 30.8587 423.158 31.15L422.146 33.749C421.855 33.5343 421.51 33.3503 421.111 33.197C420.713 33.0437 420.299 32.921 419.869 32.829C419.455 32.7217 419.072 32.668 418.719 32.668C418.091 32.668 417.646 32.7523 417.385 32.921C417.125 33.0897 416.994 33.3043 416.994 33.565C416.994 33.7643 417.063 33.933 417.201 34.071C417.339 34.1937 417.554 34.278 417.845 34.324L420.398 34.761C421.38 34.9143 422.131 35.2517 422.652 35.773C423.189 36.279 423.457 36.969 423.457 37.843C423.457 38.671 423.243 39.3763 422.813 39.959C422.384 40.5417 421.778 40.9863 420.996 41.293C420.214 41.5997 419.294 41.753 418.236 41.753ZM430.865 41.753C429.608 41.753 428.512 41.5153 427.576 41.04C426.641 40.5647 425.913 39.8823 425.391 38.993C424.87 38.1037 424.609 37.0533 424.609 35.842C424.609 34.6153 424.87 33.565 425.391 32.691C425.913 31.8017 426.641 31.1193 427.576 30.644C428.512 30.1687 429.608 29.931 430.865 29.931C432.123 29.931 433.219 30.1687 434.154 30.644C435.09 31.1193 435.81 31.8017 436.316 32.691C436.838 33.565 437.098 34.6153 437.098 35.842C437.098 37.0533 436.838 38.1037 436.316 38.993C435.81 39.8823 435.09 40.5647 434.154 41.04C433.219 41.5153 432.123 41.753 430.865 41.753ZM430.865 38.74C431.479 38.74 431.985 38.51 432.383 38.05C432.782 37.59 432.981 36.854 432.981 35.842C432.981 34.8147 432.782 34.0787 432.383 33.634C431.985 33.174 431.479 32.944 430.865 32.944C430.237 32.944 429.723 33.174 429.324 33.634C428.926 34.0787 428.726 34.8147 428.726 35.842C428.726 36.854 428.926 37.59 429.324 38.05C429.723 38.51 430.237 38.74 430.865 38.74ZM438.974 41.5V30.184H442.953V32.162H442.7C443.068 31.4413 443.59 30.8893 444.264 30.506C444.954 30.1227 445.736 29.931 446.61 29.931C447.515 29.931 448.259 30.1073 448.841 30.46C449.424 30.7973 449.861 31.334 450.152 32.07C450.444 32.7907 450.589 33.703 450.589 34.807V41.5H446.495V34.968C446.495 34.508 446.442 34.14 446.334 33.864C446.227 33.5727 446.066 33.3657 445.851 33.243C445.652 33.1203 445.399 33.059 445.092 33.059C444.678 33.059 444.318 33.151 444.011 33.335C443.705 33.5037 443.467 33.749 443.298 34.071C443.145 34.393 443.068 34.7763 443.068 35.221V41.5H438.974ZM456.856 41.753C455.982 41.753 455.207 41.592 454.533 41.27C453.873 40.948 453.352 40.511 452.969 39.959C452.601 39.3917 452.417 38.7477 452.417 38.027C452.417 37.199 452.631 36.5473 453.061 36.072C453.49 35.5967 454.18 35.2593 455.131 35.06C456.081 34.8453 457.346 34.738 458.926 34.738H460.191V36.67H458.926C458.481 36.67 458.09 36.693 457.753 36.739C457.431 36.785 457.162 36.8617 456.948 36.969C456.733 37.061 456.572 37.1837 456.465 37.337C456.357 37.4903 456.304 37.6667 456.304 37.866C456.304 38.2187 456.426 38.51 456.672 38.74C456.932 38.97 457.3 39.085 457.776 39.085C458.159 39.085 458.496 39.0007 458.788 38.832C459.094 38.6633 459.34 38.4333 459.524 38.142C459.708 37.8353 459.8 37.4827 459.8 37.084V34.416C459.8 33.864 459.654 33.473 459.363 33.243C459.087 33.013 458.604 32.898 457.914 32.898C457.331 32.898 456.687 32.99 455.982 33.174C455.276 33.358 454.586 33.6417 453.912 34.025L452.877 31.334C453.275 31.058 453.766 30.8127 454.349 30.598C454.947 30.3833 455.575 30.2223 456.235 30.115C456.909 29.9923 457.53 29.931 458.098 29.931C459.355 29.931 460.39 30.115 461.203 30.483C462.031 30.8357 462.644 31.3877 463.043 32.139C463.457 32.875 463.664 33.8257 463.664 34.991V41.5H459.846V39.361H459.984C459.907 39.8517 459.731 40.2733 459.455 40.626C459.179 40.9787 458.818 41.2547 458.374 41.454C457.929 41.6533 457.423 41.753 456.856 41.753ZM470.457 41.753C468.893 41.753 467.758 41.362 467.053 40.58C466.347 39.7827 465.995 38.5867 465.995 36.992V25.285H470.089V36.854C470.089 37.1913 470.135 37.4827 470.227 37.728C470.334 37.9733 470.495 38.1573 470.71 38.28C470.94 38.4027 471.223 38.464 471.561 38.464C471.714 38.464 471.867 38.4563 472.021 38.441C472.189 38.4257 472.35 38.4027 472.504 38.372L472.458 41.5C472.151 41.592 471.829 41.6533 471.492 41.684C471.17 41.73 470.825 41.753 470.457 41.753ZM473.876 28.229V24.526H478.177V28.229H473.876ZM473.991 41.5V30.184H478.085V41.5H473.991ZM480.23 41.5V38.878L486.095 32.277V33.197H480.23V30.184H489.706V32.783L483.726 39.545V38.487H489.959V41.5H480.23ZM491.553 28.229V24.526H495.854V28.229H491.553ZM491.668 41.5V30.184H495.762V41.5H491.668ZM498.136 41.5V30.184H502.115V32.162H501.862C502.23 31.4413 502.752 30.8893 503.426 30.506C504.116 30.1227 504.898 29.931 505.772 29.931C506.677 29.931 507.421 30.1073 508.003 30.46C508.586 30.7973 509.023 31.334 509.314 32.07C509.606 32.7907 509.751 33.703 509.751 34.807V41.5H505.657V34.968C505.657 34.508 505.604 34.14 505.496 33.864C505.389 33.5727 505.228 33.3657 505.013 33.243C504.814 33.1203 504.561 33.059 504.254 33.059C503.84 33.059 503.48 33.151 503.173 33.335C502.867 33.5037 502.629 33.749 502.46 34.071C502.307 34.393 502.23 34.7763 502.23 35.221V41.5H498.136ZM517.697 45.893C516.562 45.893 515.496 45.7857 514.5 45.571C513.518 45.3563 512.675 45.0037 511.97 44.513L513.028 41.753C513.426 41.983 513.871 42.1823 514.362 42.351C514.868 42.535 515.374 42.6653 515.88 42.742C516.386 42.834 516.861 42.88 517.306 42.88C518.241 42.88 518.939 42.6807 519.399 42.282C519.874 41.8987 520.112 41.293 520.112 40.465V39.016H520.296C520.066 39.66 519.598 40.189 518.893 40.603C518.187 41.0017 517.421 41.201 516.593 41.201C515.581 41.201 514.699 40.971 513.948 40.511C513.196 40.0357 512.606 39.3763 512.177 38.533C511.763 37.6897 511.556 36.7007 511.556 35.566C511.556 34.4313 511.763 33.4423 512.177 32.599C512.606 31.7557 513.196 31.104 513.948 30.644C514.699 30.1687 515.581 29.931 516.593 29.931C517.451 29.931 518.218 30.1303 518.893 30.529C519.583 30.9277 520.043 31.449 520.273 32.093H520.089V30.184H524.091V39.982C524.091 41.3007 523.845 42.397 523.355 43.271C522.864 44.145 522.143 44.7967 521.193 45.226C520.242 45.6707 519.077 45.893 517.697 45.893ZM517.858 38.188C518.532 38.188 519.069 37.958 519.468 37.498C519.866 37.038 520.066 36.394 520.066 35.566C520.066 34.738 519.866 34.094 519.468 33.634C519.069 33.174 518.532 32.944 517.858 32.944C517.198 32.944 516.669 33.174 516.271 33.634C515.872 34.094 515.673 34.738 515.673 35.566C515.673 36.394 515.872 37.038 516.271 37.498C516.669 37.958 517.198 38.188 517.858 38.188Z" fill="#1362F3"/>
<rect x="3.5" y="184.5" width="186" height="105" rx="9.5" fill="#FFD6C7"/>
<rect x="3.5" y="184.5" width="186" height="105" rx="9.5" stroke="#FFB499"/>
<path d="M52.29 244.5V231.735H47.138V228.285H61.674V231.735H56.522V244.5H52.29ZM67.3424 244.753C65.9624 244.753 64.7664 244.515 63.7544 244.04C62.7578 243.549 61.9911 242.859 61.4544 241.97C60.9178 241.081 60.6494 240.03 60.6494 238.819C60.6494 237.654 60.9024 236.634 61.4084 235.76C61.9298 234.871 62.6351 234.181 63.5244 233.69C64.4291 233.184 65.4564 232.931 66.6064 232.931C67.7564 232.931 68.7454 233.169 69.5734 233.644C70.4014 234.119 71.0378 234.802 71.4824 235.691C71.9424 236.565 72.1724 237.592 72.1724 238.773V239.67H64.0764V237.738H69.1824L68.8144 238.037C68.8144 237.209 68.6381 236.596 68.2854 236.197C67.9328 235.783 67.4344 235.576 66.7904 235.576C66.3151 235.576 65.9011 235.691 65.5484 235.921C65.2111 236.136 64.9504 236.458 64.7664 236.887C64.5824 237.316 64.4904 237.853 64.4904 238.497V238.704C64.4904 239.425 64.5901 240.007 64.7894 240.452C65.0041 240.897 65.3338 241.226 65.7784 241.441C66.2231 241.64 66.7828 241.74 67.4574 241.74C68.0401 241.74 68.6458 241.656 69.2744 241.487C69.9184 241.303 70.4858 241.042 70.9764 240.705L71.9884 243.396C71.4058 243.81 70.6928 244.14 69.8494 244.385C69.0061 244.63 68.1704 244.753 67.3424 244.753ZM77.8692 244.753C76.9952 244.753 76.2209 244.592 75.5462 244.27C74.8869 243.948 74.3656 243.511 73.9822 242.959C73.6142 242.392 73.4302 241.748 73.4302 241.027C73.4302 240.199 73.6449 239.547 74.0742 239.072C74.5036 238.597 75.1936 238.259 76.1442 238.06C77.0949 237.845 78.3599 237.738 79.9392 237.738H81.2042V239.67H79.9392C79.4946 239.67 79.1036 239.693 78.7662 239.739C78.4442 239.785 78.1759 239.862 77.9612 239.969C77.7466 240.061 77.5856 240.184 77.4782 240.337C77.3709 240.49 77.3172 240.667 77.3172 240.866C77.3172 241.219 77.4399 241.51 77.6852 241.74C77.9459 241.97 78.3139 242.085 78.7892 242.085C79.1726 242.085 79.5099 242.001 79.8012 241.832C80.1079 241.663 80.3532 241.433 80.5372 241.142C80.7212 240.835 80.8132 240.483 80.8132 240.084V237.416C80.8132 236.864 80.6676 236.473 80.3762 236.243C80.1002 236.013 79.6172 235.898 78.9272 235.898C78.3446 235.898 77.7006 235.99 76.9952 236.174C76.2899 236.358 75.5999 236.642 74.9252 237.025L73.8902 234.334C74.2889 234.058 74.7796 233.813 75.3622 233.598C75.9602 233.383 76.5889 233.222 77.2482 233.115C77.9229 232.992 78.5439 232.931 79.1112 232.931C80.3686 232.931 81.4036 233.115 82.2162 233.483C83.0442 233.836 83.6576 234.388 84.0562 235.139C84.4702 235.875 84.6772 236.826 84.6772 237.991V244.5H80.8592V242.361H80.9972C80.9206 242.852 80.7442 243.273 80.4682 243.626C80.1922 243.979 79.8319 244.255 79.3872 244.454C78.9426 244.653 78.4366 244.753 77.8692 244.753ZM92.7815 244.753C91.5088 244.753 90.3972 244.515 89.4465 244.04C88.5112 243.565 87.7828 242.882 87.2615 241.993C86.7402 241.088 86.4795 240.03 86.4795 238.819C86.4795 237.592 86.7402 236.542 87.2615 235.668C87.7828 234.779 88.5112 234.104 89.4465 233.644C90.3972 233.169 91.5088 232.931 92.7815 232.931C93.5328 232.931 94.2842 233.031 95.0355 233.23C95.7868 233.429 96.3925 233.721 96.8525 234.104L95.7715 236.91C95.4188 236.634 95.0048 236.419 94.5295 236.266C94.0695 236.097 93.6325 236.013 93.2185 236.013C92.4058 236.013 91.7772 236.258 91.3325 236.749C90.8878 237.224 90.6655 237.914 90.6655 238.819C90.6655 239.708 90.8878 240.406 91.3325 240.912C91.7772 241.418 92.4058 241.671 93.2185 241.671C93.6325 241.671 94.0695 241.594 94.5295 241.441C95.0048 241.272 95.4188 241.05 95.7715 240.774L96.8525 243.58C96.3925 243.933 95.7868 244.216 95.0355 244.431C94.2842 244.646 93.5328 244.753 92.7815 244.753ZM98.1491 244.5V228.285H102.243V235.162H101.875C102.243 234.441 102.764 233.889 103.439 233.506C104.129 233.123 104.911 232.931 105.785 232.931C106.69 232.931 107.433 233.107 108.016 233.46C108.599 233.797 109.036 234.334 109.327 235.07C109.618 235.791 109.764 236.703 109.764 237.807V244.5H105.67V237.968C105.67 237.508 105.616 237.14 105.509 236.864C105.402 236.573 105.241 236.366 105.026 236.243C104.827 236.12 104.574 236.059 104.267 236.059C103.853 236.059 103.493 236.151 103.186 236.335C102.879 236.504 102.642 236.749 102.473 237.071C102.32 237.393 102.243 237.776 102.243 238.221V244.5H98.1491ZM111.982 231.229V227.526H116.283V231.229H111.982ZM112.097 244.5V233.184H116.191V244.5H112.097ZM118.566 244.5V233.184H122.545V235.162H122.292C122.66 234.441 123.181 233.889 123.856 233.506C124.546 233.123 125.328 232.931 126.202 232.931C127.107 232.931 127.85 233.107 128.433 233.46C129.016 233.797 129.453 234.334 129.744 235.07C130.035 235.791 130.181 236.703 130.181 237.807V244.5H126.087V237.968C126.087 237.508 126.033 237.14 125.926 236.864C125.819 236.573 125.658 236.366 125.443 236.243C125.244 236.12 124.991 236.059 124.684 236.059C124.27 236.059 123.91 236.151 123.603 236.335C123.296 236.504 123.059 236.749 122.89 237.071C122.737 237.393 122.66 237.776 122.66 238.221V244.5H118.566ZM138.126 248.893C136.992 248.893 135.926 248.786 134.929 248.571C133.948 248.356 133.105 248.004 132.399 247.513L133.457 244.753C133.856 244.983 134.301 245.182 134.791 245.351C135.297 245.535 135.803 245.665 136.309 245.742C136.815 245.834 137.291 245.88 137.735 245.88C138.671 245.88 139.368 245.681 139.828 245.282C140.304 244.899 140.541 244.293 140.541 243.465V242.016H140.725C140.495 242.66 140.028 243.189 139.322 243.603C138.617 244.002 137.85 244.201 137.022 244.201C136.01 244.201 135.129 243.971 134.377 243.511C133.626 243.036 133.036 242.376 132.606 241.533C132.192 240.69 131.985 239.701 131.985 238.566C131.985 237.431 132.192 236.442 132.606 235.599C133.036 234.756 133.626 234.104 134.377 233.644C135.129 233.169 136.01 232.931 137.022 232.931C137.881 232.931 138.648 233.13 139.322 233.529C140.012 233.928 140.472 234.449 140.702 235.093H140.518V233.184H144.52V242.982C144.52 244.301 144.275 245.397 143.784 246.271C143.294 247.145 142.573 247.797 141.622 248.226C140.672 248.671 139.506 248.893 138.126 248.893ZM138.287 241.188C138.962 241.188 139.499 240.958 139.897 240.498C140.296 240.038 140.495 239.394 140.495 238.566C140.495 237.738 140.296 237.094 139.897 236.634C139.499 236.174 138.962 235.944 138.287 235.944C137.628 235.944 137.099 236.174 136.7 236.634C136.302 237.094 136.102 237.738 136.102 238.566C136.102 239.394 136.302 240.038 136.7 240.498C137.099 240.958 137.628 241.188 138.287 241.188Z" fill="#FF662F"/>
<rect x="357.5" y="165.5" width="186" height="143" rx="9.5" fill="#B4E9C6"/>
<rect x="357.5" y="165.5" width="186" height="143" rx="9.5" stroke="#4CC375"/>
<path d="M407.79 244.5V231.735H402.638V228.285H417.174V231.735H412.022V244.5H407.79ZM416.678 244.5V233.184H420.657V235.967H420.427C420.581 235.047 420.964 234.334 421.577 233.828C422.206 233.307 423.026 233.015 424.038 232.954L425.165 232.862L425.395 236.312L423.164 236.519C422.352 236.596 421.761 236.826 421.393 237.209C421.025 237.577 420.841 238.129 420.841 238.865V244.5H416.678ZM430.472 244.753C429.598 244.753 428.823 244.592 428.149 244.27C427.489 243.948 426.968 243.511 426.585 242.959C426.217 242.392 426.033 241.748 426.033 241.027C426.033 240.199 426.247 239.547 426.677 239.072C427.106 238.597 427.796 238.259 428.747 238.06C429.697 237.845 430.962 237.738 432.542 237.738H433.807V239.67H432.542C432.097 239.67 431.706 239.693 431.369 239.739C431.047 239.785 430.778 239.862 430.564 239.969C430.349 240.061 430.188 240.184 430.081 240.337C429.973 240.49 429.92 240.667 429.92 240.866C429.92 241.219 430.042 241.51 430.288 241.74C430.548 241.97 430.916 242.085 431.392 242.085C431.775 242.085 432.112 242.001 432.404 241.832C432.71 241.663 432.956 241.433 433.14 241.142C433.324 240.835 433.416 240.483 433.416 240.084V237.416C433.416 236.864 433.27 236.473 432.979 236.243C432.703 236.013 432.22 235.898 431.53 235.898C430.947 235.898 430.303 235.99 429.598 236.174C428.892 236.358 428.202 236.642 427.528 237.025L426.493 234.334C426.891 234.058 427.382 233.813 427.965 233.598C428.563 233.383 429.191 233.222 429.851 233.115C430.525 232.992 431.146 232.931 431.714 232.931C432.971 232.931 434.006 233.115 434.819 233.483C435.647 233.836 436.26 234.388 436.659 235.139C437.073 235.875 437.28 236.826 437.28 237.991V244.5H433.462V242.361H433.6C433.523 242.852 433.347 243.273 433.071 243.626C432.795 243.979 432.434 244.255 431.99 244.454C431.545 244.653 431.039 244.753 430.472 244.753ZM445.384 244.753C444.111 244.753 443 244.515 442.049 244.04C441.114 243.565 440.385 242.882 439.864 241.993C439.343 241.088 439.082 240.03 439.082 238.819C439.082 237.592 439.343 236.542 439.864 235.668C440.385 234.779 441.114 234.104 442.049 233.644C443 233.169 444.111 232.931 445.384 232.931C446.135 232.931 446.887 233.031 447.638 233.23C448.389 233.429 448.995 233.721 449.455 234.104L448.374 236.91C448.021 236.634 447.607 236.419 447.132 236.266C446.672 236.097 446.235 236.013 445.821 236.013C445.008 236.013 444.38 236.258 443.935 236.749C443.49 237.224 443.268 237.914 443.268 238.819C443.268 239.708 443.49 240.406 443.935 240.912C444.38 241.418 445.008 241.671 445.821 241.671C446.235 241.671 446.672 241.594 447.132 241.441C447.607 241.272 448.021 241.05 448.374 240.774L449.455 243.58C448.995 243.933 448.389 244.216 447.638 244.431C446.887 244.646 446.135 244.753 445.384 244.753ZM450.752 244.5V228.285H454.846V237.738H454.892L458.618 233.184H463.425L458.365 239.256V237.83L463.586 244.5H458.687L454.892 239.785H454.846V244.5H450.752ZM463.978 231.229V227.526H468.279V231.229H463.978ZM464.093 244.5V233.184H468.187V244.5H464.093ZM470.562 244.5V233.184H474.541V235.162H474.288C474.656 234.441 475.178 233.889 475.852 233.506C476.542 233.123 477.324 232.931 478.198 232.931C479.103 232.931 479.847 233.107 480.429 233.46C481.012 233.797 481.449 234.334 481.74 235.07C482.032 235.791 482.177 236.703 482.177 237.807V244.5H478.083V237.968C478.083 237.508 478.03 237.14 477.922 236.864C477.815 236.573 477.654 236.366 477.439 236.243C477.24 236.12 476.987 236.059 476.68 236.059C476.266 236.059 475.906 236.151 475.599 236.335C475.293 236.504 475.055 236.749 474.886 237.071C474.733 237.393 474.656 237.776 474.656 238.221V244.5H470.562ZM490.122 248.893C488.988 248.893 487.922 248.786 486.925 248.571C485.944 248.356 485.101 248.004 484.395 247.513L485.453 244.753C485.852 244.983 486.297 245.182 486.787 245.351C487.293 245.535 487.799 245.665 488.305 245.742C488.811 245.834 489.287 245.88 489.731 245.88C490.667 245.88 491.364 245.681 491.824 245.282C492.3 244.899 492.537 244.293 492.537 243.465V242.016H492.721C492.491 242.66 492.024 243.189 491.318 243.603C490.613 244.002 489.846 244.201 489.018 244.201C488.006 244.201 487.125 243.971 486.373 243.511C485.622 243.036 485.032 242.376 484.602 241.533C484.188 240.69 483.981 239.701 483.981 238.566C483.981 237.431 484.188 236.442 484.602 235.599C485.032 234.756 485.622 234.104 486.373 233.644C487.125 233.169 488.006 232.931 489.018 232.931C489.877 232.931 490.644 233.13 491.318 233.529C492.008 233.928 492.468 234.449 492.698 235.093H492.514V233.184H496.516V242.982C496.516 244.301 496.271 245.397 495.78 246.271C495.29 247.145 494.569 247.797 493.618 248.226C492.668 248.671 491.502 248.893 490.122 248.893ZM490.283 241.188C490.958 241.188 491.495 240.958 491.893 240.498C492.292 240.038 492.491 239.394 492.491 238.566C492.491 237.738 492.292 237.094 491.893 236.634C491.495 236.174 490.958 235.944 490.283 235.944C489.624 235.944 489.095 236.174 488.696 236.634C488.298 237.094 488.098 237.738 488.098 238.566C488.098 239.394 488.298 240.038 488.696 240.498C489.095 240.958 489.624 241.188 490.283 241.188Z" fill="#00AD3C"/>
<path d="M187 34H357.5" stroke="black"/>
<circle cx="186.5" cy="33.5" r="3" fill="white" stroke="black"/>
<circle cx="358.5" cy="33.5" r="3" fill="white" stroke="black"/>
<path d="M459 68L89 184" stroke="black"/>
<circle cx="460.5" cy="67.5" r="3" fill="white" stroke="black"/>
<circle cx="89.5" cy="183.5" r="3" fill="white" stroke="black"/>
<path d="M183 234H353.5" stroke="black"/>
<circle cx="182.5" cy="233.5" r="3" fill="white" stroke="black"/>
<circle cx="354.5" cy="233.5" r="3" fill="white" stroke="black"/>
</svg>
