<svg width="1259" height="144" viewBox="0 0 1259 144" fill="none" xmlns="http://www.w3.org/2000/svg">
<rect x="0.5" y="46.5" width="186" height="47" rx="9.5" fill="#F5F5F5"/>
<rect x="0.5" y="46.5" width="186" height="47" rx="9.5" stroke="#E1E1E1"/>
<path d="M65.8398 65.9287L62.5449 75H61.1982L64.9922 65.0469H65.8604L65.8398 65.9287ZM68.6016 75L65.2998 65.9287L65.2793 65.0469H66.1475L69.9551 75H68.6016ZM68.4307 71.3154V72.3955H62.8389V71.3154H68.4307ZM75.4033 73.0381C75.4033 72.8558 75.3623 72.6872 75.2803 72.5322C75.2028 72.3727 75.041 72.2292 74.7949 72.1016C74.5534 71.9694 74.1888 71.8555 73.7012 71.7598C73.291 71.6732 72.9196 71.5706 72.5869 71.4521C72.2588 71.3337 71.9785 71.1901 71.7461 71.0215C71.5182 70.8529 71.3428 70.6546 71.2197 70.4268C71.0967 70.1989 71.0352 69.9323 71.0352 69.627C71.0352 69.3353 71.099 69.0596 71.2266 68.7998C71.3587 68.54 71.5433 68.3099 71.7803 68.1094C72.0218 67.9089 72.3112 67.7516 72.6484 67.6377C72.9857 67.5238 73.3617 67.4668 73.7764 67.4668C74.3688 67.4668 74.8747 67.5716 75.2939 67.7812C75.7132 67.9909 76.0345 68.2712 76.2578 68.6221C76.4811 68.9684 76.5928 69.3535 76.5928 69.7773H75.3281C75.3281 69.5723 75.2666 69.374 75.1436 69.1826C75.0251 68.9867 74.8496 68.8249 74.6172 68.6973C74.3893 68.5697 74.109 68.5059 73.7764 68.5059C73.4255 68.5059 73.1406 68.5605 72.9219 68.6699C72.7077 68.7747 72.5505 68.9092 72.4502 69.0732C72.3545 69.2373 72.3066 69.4105 72.3066 69.5928C72.3066 69.7295 72.3294 69.8525 72.375 69.9619C72.4251 70.0667 72.5117 70.1647 72.6348 70.2559C72.7578 70.3424 72.931 70.4245 73.1543 70.502C73.3776 70.5794 73.6624 70.6569 74.0088 70.7344C74.6149 70.8711 75.1139 71.0352 75.5059 71.2266C75.8978 71.418 76.1895 71.6527 76.3809 71.9307C76.5723 72.2087 76.668 72.5459 76.668 72.9424C76.668 73.266 76.5996 73.5622 76.4629 73.8311C76.3307 74.0999 76.137 74.3324 75.8818 74.5283C75.6312 74.7197 75.3304 74.8701 74.9795 74.9795C74.6331 75.0843 74.2435 75.1367 73.8105 75.1367C73.1589 75.1367 72.6074 75.0205 72.1562 74.7881C71.7051 74.5557 71.3633 74.2549 71.1309 73.8857C70.8984 73.5166 70.7822 73.127 70.7822 72.7168H72.0537C72.0719 73.0632 72.1722 73.3389 72.3545 73.5439C72.5368 73.7445 72.7601 73.888 73.0244 73.9746C73.2887 74.0566 73.5508 74.0977 73.8105 74.0977C74.1569 74.0977 74.4463 74.0521 74.6787 73.9609C74.9157 73.8698 75.0957 73.7445 75.2188 73.585C75.3418 73.4255 75.4033 73.2432 75.4033 73.0381ZM82.6357 73.0381C82.6357 72.8558 82.5947 72.6872 82.5127 72.5322C82.4352 72.3727 82.2734 72.2292 82.0273 72.1016C81.7858 71.9694 81.4212 71.8555 80.9336 71.7598C80.5234 71.6732 80.152 71.5706 79.8193 71.4521C79.4912 71.3337 79.2109 71.1901 78.9785 71.0215C78.7507 70.8529 78.5752 70.6546 78.4521 70.4268C78.3291 70.1989 78.2676 69.9323 78.2676 69.627C78.2676 69.3353 78.3314 69.0596 78.459 68.7998C78.5911 68.54 78.7757 68.3099 79.0127 68.1094C79.2542 67.9089 79.5436 67.7516 79.8809 67.6377C80.2181 67.5238 80.5941 67.4668 81.0088 67.4668C81.6012 67.4668 82.1071 67.5716 82.5264 67.7812C82.9456 67.9909 83.2669 68.2712 83.4902 68.6221C83.7135 68.9684 83.8252 69.3535 83.8252 69.7773H82.5605C82.5605 69.5723 82.499 69.374 82.376 69.1826C82.2575 68.9867 82.082 68.8249 81.8496 68.6973C81.6217 68.5697 81.3415 68.5059 81.0088 68.5059C80.6579 68.5059 80.373 68.5605 80.1543 68.6699C79.9401 68.7747 79.7829 68.9092 79.6826 69.0732C79.5869 69.2373 79.5391 69.4105 79.5391 69.5928C79.5391 69.7295 79.5618 69.8525 79.6074 69.9619C79.6576 70.0667 79.7441 70.1647 79.8672 70.2559C79.9902 70.3424 80.1634 70.4245 80.3867 70.502C80.61 70.5794 80.8949 70.6569 81.2412 70.7344C81.8473 70.8711 82.3464 71.0352 82.7383 71.2266C83.1302 71.418 83.4219 71.6527 83.6133 71.9307C83.8047 72.2087 83.9004 72.5459 83.9004 72.9424C83.9004 73.266 83.832 73.5622 83.6953 73.8311C83.5632 74.0999 83.3695 74.3324 83.1143 74.5283C82.8636 74.7197 82.5628 74.8701 82.2119 74.9795C81.8656 75.0843 81.4759 75.1367 81.043 75.1367C80.3913 75.1367 79.8398 75.0205 79.3887 74.7881C78.9375 74.5557 78.5957 74.2549 78.3633 73.8857C78.1309 73.5166 78.0146 73.127 78.0146 72.7168H79.2861C79.3044 73.0632 79.4046 73.3389 79.5869 73.5439C79.7692 73.7445 79.9925 73.888 80.2568 73.9746C80.5212 74.0566 80.7832 74.0977 81.043 74.0977C81.3893 74.0977 81.6787 74.0521 81.9111 73.9609C82.1481 73.8698 82.3281 73.7445 82.4512 73.585C82.5742 73.4255 82.6357 73.2432 82.6357 73.0381ZM88.6309 75.1367C88.1159 75.1367 87.6488 75.0501 87.2295 74.877C86.8148 74.6992 86.457 74.4508 86.1562 74.1318C85.86 73.8128 85.6322 73.4346 85.4727 72.9971C85.3132 72.5596 85.2334 72.0811 85.2334 71.5615V71.2744C85.2334 70.6729 85.3223 70.1374 85.5 69.668C85.6777 69.194 85.9193 68.793 86.2246 68.4648C86.5299 68.1367 86.8763 67.8883 87.2637 67.7197C87.651 67.5511 88.0521 67.4668 88.4668 67.4668C88.9954 67.4668 89.4512 67.5579 89.834 67.7402C90.2214 67.9225 90.5381 68.1777 90.7842 68.5059C91.0303 68.8294 91.2126 69.2122 91.3311 69.6543C91.4495 70.0918 91.5088 70.5703 91.5088 71.0898V71.6572H85.9854V70.625H90.2441V70.5293C90.2259 70.2012 90.1576 69.8822 90.0391 69.5723C89.9251 69.2624 89.7428 69.0072 89.4922 68.8066C89.2415 68.6061 88.8997 68.5059 88.4668 68.5059C88.1797 68.5059 87.9154 68.5674 87.6738 68.6904C87.4323 68.8089 87.2249 68.9867 87.0518 69.2236C86.8786 69.4606 86.7441 69.75 86.6484 70.0918C86.5527 70.4336 86.5049 70.8278 86.5049 71.2744V71.5615C86.5049 71.9124 86.5527 72.2428 86.6484 72.5527C86.7487 72.8581 86.8923 73.127 87.0791 73.3594C87.2705 73.5918 87.5007 73.7741 87.7695 73.9062C88.043 74.0384 88.3529 74.1045 88.6992 74.1045C89.1458 74.1045 89.5241 74.0133 89.834 73.8311C90.1439 73.6488 90.415 73.4049 90.6475 73.0996L91.4131 73.708C91.2536 73.9495 91.0508 74.1797 90.8047 74.3984C90.5586 74.6172 90.2555 74.7949 89.8955 74.9316C89.54 75.0684 89.1185 75.1367 88.6309 75.1367ZM97.292 73.0381C97.292 72.8558 97.251 72.6872 97.1689 72.5322C97.0915 72.3727 96.9297 72.2292 96.6836 72.1016C96.4421 71.9694 96.0775 71.8555 95.5898 71.7598C95.1797 71.6732 94.8083 71.5706 94.4756 71.4521C94.1475 71.3337 93.8672 71.1901 93.6348 71.0215C93.4069 70.8529 93.2314 70.6546 93.1084 70.4268C92.9854 70.1989 92.9238 69.9323 92.9238 69.627C92.9238 69.3353 92.9876 69.0596 93.1152 68.7998C93.2474 68.54 93.432 68.3099 93.6689 68.1094C93.9105 67.9089 94.1999 67.7516 94.5371 67.6377C94.8743 67.5238 95.2503 67.4668 95.665 67.4668C96.2575 67.4668 96.7633 67.5716 97.1826 67.7812C97.6019 67.9909 97.9232 68.2712 98.1465 68.6221C98.3698 68.9684 98.4814 69.3535 98.4814 69.7773H97.2168C97.2168 69.5723 97.1553 69.374 97.0322 69.1826C96.9137 68.9867 96.7383 68.8249 96.5059 68.6973C96.278 68.5697 95.9977 68.5059 95.665 68.5059C95.3141 68.5059 95.0293 68.5605 94.8105 68.6699C94.5964 68.7747 94.4391 68.9092 94.3389 69.0732C94.2432 69.2373 94.1953 69.4105 94.1953 69.5928C94.1953 69.7295 94.2181 69.8525 94.2637 69.9619C94.3138 70.0667 94.4004 70.1647 94.5234 70.2559C94.6465 70.3424 94.8197 70.4245 95.043 70.502C95.2663 70.5794 95.5511 70.6569 95.8975 70.7344C96.5036 70.8711 97.0026 71.0352 97.3945 71.2266C97.7865 71.418 98.0781 71.6527 98.2695 71.9307C98.4609 72.2087 98.5566 72.5459 98.5566 72.9424C98.5566 73.266 98.4883 73.5622 98.3516 73.8311C98.2194 74.0999 98.0257 74.3324 97.7705 74.5283C97.5199 74.7197 97.2191 74.8701 96.8682 74.9795C96.5218 75.0843 96.1322 75.1367 95.6992 75.1367C95.0475 75.1367 94.4961 75.0205 94.0449 74.7881C93.5938 74.5557 93.252 74.2549 93.0195 73.8857C92.7871 73.5166 92.6709 73.127 92.6709 72.7168H93.9424C93.9606 73.0632 94.0609 73.3389 94.2432 73.5439C94.4255 73.7445 94.6488 73.888 94.9131 73.9746C95.1774 74.0566 95.4395 74.0977 95.6992 74.0977C96.0456 74.0977 96.335 74.0521 96.5674 73.9609C96.8044 73.8698 96.9844 73.7445 97.1074 73.585C97.2305 73.4255 97.292 73.2432 97.292 73.0381ZM104.524 73.0381C104.524 72.8558 104.483 72.6872 104.401 72.5322C104.324 72.3727 104.162 72.2292 103.916 72.1016C103.674 71.9694 103.31 71.8555 102.822 71.7598C102.412 71.6732 102.041 71.5706 101.708 71.4521C101.38 71.3337 101.1 71.1901 100.867 71.0215C100.639 70.8529 100.464 70.6546 100.341 70.4268C100.218 70.1989 100.156 69.9323 100.156 69.627C100.156 69.3353 100.22 69.0596 100.348 68.7998C100.48 68.54 100.664 68.3099 100.901 68.1094C101.143 67.9089 101.432 67.7516 101.77 67.6377C102.107 67.5238 102.483 67.4668 102.897 67.4668C103.49 67.4668 103.996 67.5716 104.415 67.7812C104.834 67.9909 105.156 68.2712 105.379 68.6221C105.602 68.9684 105.714 69.3535 105.714 69.7773H104.449C104.449 69.5723 104.388 69.374 104.265 69.1826C104.146 68.9867 103.971 68.8249 103.738 68.6973C103.51 68.5697 103.23 68.5059 102.897 68.5059C102.547 68.5059 102.262 68.5605 102.043 68.6699C101.829 68.7747 101.672 68.9092 101.571 69.0732C101.476 69.2373 101.428 69.4105 101.428 69.5928C101.428 69.7295 101.451 69.8525 101.496 69.9619C101.546 70.0667 101.633 70.1647 101.756 70.2559C101.879 70.3424 102.052 70.4245 102.275 70.502C102.499 70.5794 102.784 70.6569 103.13 70.7344C103.736 70.8711 104.235 71.0352 104.627 71.2266C105.019 71.418 105.311 71.6527 105.502 71.9307C105.693 72.2087 105.789 72.5459 105.789 72.9424C105.789 73.266 105.721 73.5622 105.584 73.8311C105.452 74.0999 105.258 74.3324 105.003 74.5283C104.752 74.7197 104.451 74.8701 104.101 74.9795C103.754 75.0843 103.365 75.1367 102.932 75.1367C102.28 75.1367 101.729 75.0205 101.277 74.7881C100.826 74.5557 100.484 74.2549 100.252 73.8857C100.02 73.5166 99.9033 73.127 99.9033 72.7168H101.175C101.193 73.0632 101.293 73.3389 101.476 73.5439C101.658 73.7445 101.881 73.888 102.146 73.9746C102.41 74.0566 102.672 74.0977 102.932 74.0977C103.278 74.0977 103.567 74.0521 103.8 73.9609C104.037 73.8698 104.217 73.7445 104.34 73.585C104.463 73.4255 104.524 73.2432 104.524 73.0381ZM108.824 67.6035V75H107.553V67.6035H108.824ZM107.457 65.6416C107.457 65.4365 107.519 65.2633 107.642 65.1221C107.769 64.9808 107.956 64.9102 108.202 64.9102C108.444 64.9102 108.628 64.9808 108.756 65.1221C108.888 65.2633 108.954 65.4365 108.954 65.6416C108.954 65.8376 108.888 66.0062 108.756 66.1475C108.628 66.2842 108.444 66.3525 108.202 66.3525C107.956 66.3525 107.769 66.2842 107.642 66.1475C107.519 66.0062 107.457 65.8376 107.457 65.6416ZM112.119 69.1826V75H110.854V67.6035H112.051L112.119 69.1826ZM111.818 71.0215L111.292 71.001C111.297 70.4951 111.372 70.028 111.518 69.5996C111.663 69.1667 111.868 68.7907 112.133 68.4717C112.397 68.1527 112.712 67.9066 113.076 67.7334C113.445 67.5557 113.853 67.4668 114.3 67.4668C114.664 67.4668 114.993 67.5169 115.284 67.6172C115.576 67.7129 115.824 67.8678 116.029 68.082C116.239 68.2962 116.398 68.5742 116.508 68.916C116.617 69.2533 116.672 69.6657 116.672 70.1533V75H115.4V70.1396C115.4 69.7523 115.343 69.4424 115.229 69.21C115.116 68.973 114.949 68.8021 114.73 68.6973C114.512 68.5879 114.243 68.5332 113.924 68.5332C113.609 68.5332 113.322 68.5993 113.062 68.7314C112.807 68.8636 112.586 69.0459 112.399 69.2783C112.217 69.5107 112.074 69.7773 111.969 70.0781C111.868 70.3743 111.818 70.6888 111.818 71.0215ZM123.385 67.6035H124.533V74.8428C124.533 75.4945 124.401 76.0505 124.137 76.5107C123.872 76.971 123.503 77.3197 123.029 77.5566C122.56 77.7982 122.018 77.9189 121.402 77.9189C121.147 77.9189 120.846 77.8779 120.5 77.7959C120.158 77.7184 119.821 77.584 119.488 77.3926C119.16 77.2057 118.884 76.9528 118.661 76.6338L119.324 75.8818C119.634 76.2555 119.958 76.5153 120.295 76.6611C120.637 76.807 120.974 76.8799 121.307 76.8799C121.708 76.8799 122.054 76.8047 122.346 76.6543C122.637 76.5039 122.863 76.2806 123.022 75.9844C123.187 75.6927 123.269 75.3327 123.269 74.9043V69.2305L123.385 67.6035ZM118.292 71.3838V71.2402C118.292 70.6751 118.358 70.1624 118.49 69.7021C118.627 69.2373 118.821 68.8385 119.071 68.5059C119.326 68.1732 119.634 67.918 119.994 67.7402C120.354 67.5579 120.76 67.4668 121.211 67.4668C121.676 67.4668 122.081 67.5488 122.428 67.7129C122.779 67.8724 123.075 68.1071 123.316 68.417C123.562 68.7223 123.756 69.0915 123.897 69.5244C124.039 69.9574 124.137 70.4473 124.191 70.9941V71.623C124.141 72.1654 124.043 72.653 123.897 73.0859C123.756 73.5189 123.562 73.888 123.316 74.1934C123.075 74.4987 122.779 74.7334 122.428 74.8975C122.077 75.057 121.667 75.1367 121.197 75.1367C120.755 75.1367 120.354 75.0433 119.994 74.8564C119.639 74.6696 119.333 74.4076 119.078 74.0703C118.823 73.7331 118.627 73.3366 118.49 72.8809C118.358 72.4206 118.292 71.9215 118.292 71.3838ZM119.557 71.2402V71.3838C119.557 71.7529 119.593 72.0993 119.666 72.4229C119.743 72.7464 119.86 73.0312 120.015 73.2773C120.174 73.5234 120.377 73.7171 120.623 73.8584C120.869 73.9951 121.163 74.0635 121.505 74.0635C121.924 74.0635 122.271 73.9746 122.544 73.7969C122.817 73.6191 123.034 73.3844 123.193 73.0928C123.357 72.8011 123.485 72.4844 123.576 72.1426V70.4951C123.526 70.2445 123.449 70.0029 123.344 69.7705C123.243 69.5335 123.111 69.3239 122.947 69.1416C122.788 68.9548 122.59 68.8066 122.353 68.6973C122.116 68.5879 121.838 68.5332 121.519 68.5332C121.172 68.5332 120.874 68.6061 120.623 68.752C120.377 68.8932 120.174 69.0892 120.015 69.3398C119.86 69.5859 119.743 69.873 119.666 70.2012C119.593 70.5247 119.557 70.8711 119.557 71.2402Z" fill="#A5A5A5"/>
<rect x="357.5" y="36.5" width="186" height="67" rx="9.5" fill="#DFEAFF"/>
<rect x="357.5" y="36.5" width="186" height="67" rx="9.5" stroke="#97ADD7"/>
<path d="M412.826 71.0967H410.167V70.0234H412.826C413.341 70.0234 413.758 69.9414 414.077 69.7773C414.396 69.6133 414.629 69.3854 414.774 69.0938C414.925 68.8021 415 68.4694 415 68.0957C415 67.7539 414.925 67.4326 414.774 67.1318C414.629 66.8311 414.396 66.5895 414.077 66.4072C413.758 66.2204 413.341 66.127 412.826 66.127H410.475V75H409.155V65.0469H412.826C413.578 65.0469 414.214 65.1768 414.733 65.4365C415.253 65.6963 415.647 66.0563 415.916 66.5166C416.185 66.9723 416.319 67.4941 416.319 68.082C416.319 68.7201 416.185 69.2646 415.916 69.7158C415.647 70.167 415.253 70.5111 414.733 70.748C414.214 70.9805 413.578 71.0967 412.826 71.0967ZM420.77 75.1367C420.255 75.1367 419.787 75.0501 419.368 74.877C418.953 74.6992 418.596 74.4508 418.295 74.1318C417.999 73.8128 417.771 73.4346 417.611 72.9971C417.452 72.5596 417.372 72.0811 417.372 71.5615V71.2744C417.372 70.6729 417.461 70.1374 417.639 69.668C417.816 69.194 418.058 68.793 418.363 68.4648C418.669 68.1367 419.015 67.8883 419.402 67.7197C419.79 67.5511 420.191 67.4668 420.605 67.4668C421.134 67.4668 421.59 67.5579 421.973 67.7402C422.36 67.9225 422.677 68.1777 422.923 68.5059C423.169 68.8294 423.351 69.2122 423.47 69.6543C423.588 70.0918 423.647 70.5703 423.647 71.0898V71.6572H418.124V70.625H422.383V70.5293C422.365 70.2012 422.296 69.8822 422.178 69.5723C422.064 69.2624 421.882 69.0072 421.631 68.8066C421.38 68.6061 421.038 68.5059 420.605 68.5059C420.318 68.5059 420.054 68.5674 419.812 68.6904C419.571 68.8089 419.364 68.9867 419.19 69.2236C419.017 69.4606 418.883 69.75 418.787 70.0918C418.691 70.4336 418.644 70.8278 418.644 71.2744V71.5615C418.644 71.9124 418.691 72.2428 418.787 72.5527C418.887 72.8581 419.031 73.127 419.218 73.3594C419.409 73.5918 419.639 73.7741 419.908 73.9062C420.182 74.0384 420.492 74.1045 420.838 74.1045C421.285 74.1045 421.663 74.0133 421.973 73.8311C422.283 73.6488 422.554 73.4049 422.786 73.0996L423.552 73.708C423.392 73.9495 423.189 74.1797 422.943 74.3984C422.697 74.6172 422.394 74.7949 422.034 74.9316C421.679 75.0684 421.257 75.1367 420.77 75.1367ZM426.389 68.7656V75H425.124V67.6035H426.354L426.389 68.7656ZM428.699 67.5625L428.692 68.7383C428.588 68.7155 428.487 68.7018 428.392 68.6973C428.3 68.6882 428.196 68.6836 428.077 68.6836C427.785 68.6836 427.528 68.7292 427.305 68.8203C427.081 68.9115 426.892 69.0391 426.737 69.2031C426.582 69.3672 426.459 69.5632 426.368 69.791C426.282 70.0143 426.225 70.2604 426.197 70.5293L425.842 70.7344C425.842 70.2878 425.885 69.8685 425.972 69.4766C426.063 69.0846 426.202 68.7383 426.389 68.4375C426.576 68.1322 426.812 67.8952 427.1 67.7266C427.391 67.5534 427.738 67.4668 428.139 67.4668C428.23 67.4668 428.335 67.4782 428.453 67.501C428.572 67.5192 428.654 67.5397 428.699 67.5625ZM434.175 73.0381C434.175 72.8558 434.134 72.6872 434.052 72.5322C433.974 72.3727 433.812 72.2292 433.566 72.1016C433.325 71.9694 432.96 71.8555 432.473 71.7598C432.062 71.6732 431.691 71.5706 431.358 71.4521C431.03 71.3337 430.75 71.1901 430.518 71.0215C430.29 70.8529 430.114 70.6546 429.991 70.4268C429.868 70.1989 429.807 69.9323 429.807 69.627C429.807 69.3353 429.87 69.0596 429.998 68.7998C430.13 68.54 430.315 68.3099 430.552 68.1094C430.793 67.9089 431.083 67.7516 431.42 67.6377C431.757 67.5238 432.133 67.4668 432.548 67.4668C433.14 67.4668 433.646 67.5716 434.065 67.7812C434.485 67.9909 434.806 68.2712 435.029 68.6221C435.253 68.9684 435.364 69.3535 435.364 69.7773H434.1C434.1 69.5723 434.038 69.374 433.915 69.1826C433.797 68.9867 433.621 68.8249 433.389 68.6973C433.161 68.5697 432.881 68.5059 432.548 68.5059C432.197 68.5059 431.912 68.5605 431.693 68.6699C431.479 68.7747 431.322 68.9092 431.222 69.0732C431.126 69.2373 431.078 69.4105 431.078 69.5928C431.078 69.7295 431.101 69.8525 431.146 69.9619C431.197 70.0667 431.283 70.1647 431.406 70.2559C431.529 70.3424 431.702 70.4245 431.926 70.502C432.149 70.5794 432.434 70.6569 432.78 70.7344C433.386 70.8711 433.885 71.0352 434.277 71.2266C434.669 71.418 434.961 71.6527 435.152 71.9307C435.344 72.2087 435.439 72.5459 435.439 72.9424C435.439 73.266 435.371 73.5622 435.234 73.8311C435.102 74.0999 434.909 74.3324 434.653 74.5283C434.403 74.7197 434.102 74.8701 433.751 74.9795C433.405 75.0843 433.015 75.1367 432.582 75.1367C431.93 75.1367 431.379 75.0205 430.928 74.7881C430.477 74.5557 430.135 74.2549 429.902 73.8857C429.67 73.5166 429.554 73.127 429.554 72.7168H430.825C430.843 73.0632 430.944 73.3389 431.126 73.5439C431.308 73.7445 431.532 73.888 431.796 73.9746C432.06 74.0566 432.322 74.0977 432.582 74.0977C432.928 74.0977 433.218 74.0521 433.45 73.9609C433.687 73.8698 433.867 73.7445 433.99 73.585C434.113 73.4255 434.175 73.2432 434.175 73.0381ZM436.766 71.3838V71.2266C436.766 70.6934 436.843 70.1989 436.998 69.7432C437.153 69.2829 437.376 68.8841 437.668 68.5469C437.96 68.2051 438.313 67.9408 438.728 67.7539C439.142 67.5625 439.607 67.4668 440.122 67.4668C440.642 67.4668 441.109 67.5625 441.523 67.7539C441.943 67.9408 442.298 68.2051 442.59 68.5469C442.886 68.8841 443.112 69.2829 443.267 69.7432C443.422 70.1989 443.499 70.6934 443.499 71.2266V71.3838C443.499 71.917 443.422 72.4115 443.267 72.8672C443.112 73.3229 442.886 73.7217 442.59 74.0635C442.298 74.4007 441.945 74.665 441.53 74.8564C441.12 75.0433 440.655 75.1367 440.136 75.1367C439.616 75.1367 439.149 75.0433 438.734 74.8564C438.32 74.665 437.964 74.4007 437.668 74.0635C437.376 73.7217 437.153 73.3229 436.998 72.8672C436.843 72.4115 436.766 71.917 436.766 71.3838ZM438.03 71.2266V71.3838C438.03 71.7529 438.074 72.1016 438.16 72.4297C438.247 72.7533 438.377 73.0404 438.55 73.291C438.728 73.5417 438.949 73.7399 439.213 73.8857C439.477 74.027 439.785 74.0977 440.136 74.0977C440.482 74.0977 440.785 74.027 441.045 73.8857C441.309 73.7399 441.528 73.5417 441.701 73.291C441.874 73.0404 442.004 72.7533 442.091 72.4297C442.182 72.1016 442.228 71.7529 442.228 71.3838V71.2266C442.228 70.862 442.182 70.5179 442.091 70.1943C442.004 69.8662 441.872 69.5768 441.694 69.3262C441.521 69.071 441.302 68.8704 441.038 68.7246C440.778 68.5788 440.473 68.5059 440.122 68.5059C439.776 68.5059 439.47 68.5788 439.206 68.7246C438.946 68.8704 438.728 69.071 438.55 69.3262C438.377 69.5768 438.247 69.8662 438.16 70.1943C438.074 70.5179 438.03 70.862 438.03 71.2266ZM446.35 69.1826V75H445.085V67.6035H446.281L446.35 69.1826ZM446.049 71.0215L445.522 71.001C445.527 70.4951 445.602 70.028 445.748 69.5996C445.894 69.1667 446.099 68.7907 446.363 68.4717C446.628 68.1527 446.942 67.9066 447.307 67.7334C447.676 67.5557 448.084 67.4668 448.53 67.4668C448.895 67.4668 449.223 67.5169 449.515 67.6172C449.806 67.7129 450.055 67.8678 450.26 68.082C450.469 68.2962 450.629 68.5742 450.738 68.916C450.848 69.2533 450.902 69.6657 450.902 70.1533V75H449.631V70.1396C449.631 69.7523 449.574 69.4424 449.46 69.21C449.346 68.973 449.18 68.8021 448.961 68.6973C448.742 68.5879 448.473 68.5332 448.154 68.5332C447.84 68.5332 447.553 68.5993 447.293 68.7314C447.038 68.8636 446.817 69.0459 446.63 69.2783C446.448 69.5107 446.304 69.7773 446.199 70.0781C446.099 70.3743 446.049 70.6888 446.049 71.0215ZM457.185 73.7354V69.9277C457.185 69.6361 457.125 69.3831 457.007 69.1689C456.893 68.9502 456.72 68.7816 456.487 68.6631C456.255 68.5446 455.968 68.4854 455.626 68.4854C455.307 68.4854 455.027 68.54 454.785 68.6494C454.548 68.7588 454.361 68.9023 454.225 69.0801C454.092 69.2578 454.026 69.4492 454.026 69.6543H452.762C452.762 69.39 452.83 69.1279 452.967 68.8682C453.104 68.6084 453.299 68.3737 453.555 68.1641C453.814 67.9499 454.124 67.7812 454.484 67.6582C454.849 67.5306 455.255 67.4668 455.701 67.4668C456.239 67.4668 456.713 67.5579 457.123 67.7402C457.538 67.9225 457.861 68.1982 458.094 68.5674C458.331 68.932 458.449 69.39 458.449 69.9414V73.3867C458.449 73.6328 458.47 73.8949 458.511 74.1729C458.556 74.4508 458.622 74.6901 458.709 74.8906V75H457.39C457.326 74.8542 457.276 74.6605 457.239 74.4189C457.203 74.1729 457.185 73.945 457.185 73.7354ZM457.403 70.5156L457.417 71.4043H456.139C455.779 71.4043 455.457 71.4339 455.175 71.4932C454.892 71.5479 454.655 71.6322 454.464 71.7461C454.272 71.86 454.127 72.0036 454.026 72.1768C453.926 72.3454 453.876 72.5436 453.876 72.7715C453.876 73.0039 453.928 73.2158 454.033 73.4072C454.138 73.5986 454.295 73.7513 454.505 73.8652C454.719 73.9746 454.981 74.0293 455.291 74.0293C455.678 74.0293 456.02 73.9473 456.316 73.7832C456.613 73.6191 456.847 73.4186 457.021 73.1816C457.198 72.9447 457.294 72.7145 457.308 72.4912L457.848 73.0996C457.816 73.291 457.729 73.5029 457.588 73.7354C457.447 73.9678 457.257 74.1911 457.021 74.4053C456.788 74.6149 456.51 74.7904 456.187 74.9316C455.868 75.0684 455.507 75.1367 455.106 75.1367C454.605 75.1367 454.165 75.0387 453.787 74.8428C453.413 74.6468 453.122 74.3848 452.912 74.0566C452.707 73.724 452.604 73.3525 452.604 72.9424C452.604 72.5459 452.682 72.1973 452.837 71.8965C452.992 71.5911 453.215 71.3382 453.507 71.1377C453.799 70.9326 454.149 70.7777 454.56 70.6729C454.97 70.568 455.428 70.5156 455.934 70.5156H457.403ZM461.812 64.5V75H460.541V64.5H461.812ZM465.217 67.6035V75H463.945V67.6035H465.217ZM463.85 65.6416C463.85 65.4365 463.911 65.2633 464.034 65.1221C464.162 64.9808 464.349 64.9102 464.595 64.9102C464.836 64.9102 465.021 64.9808 465.148 65.1221C465.281 65.2633 465.347 65.4365 465.347 65.6416C465.347 65.8376 465.281 66.0062 465.148 66.1475C465.021 66.2842 464.836 66.3525 464.595 66.3525C464.349 66.3525 464.162 66.2842 464.034 66.1475C463.911 66.0062 463.85 65.8376 463.85 65.6416ZM472.757 73.9609V75H467.377V73.9609H472.757ZM472.559 68.499L467.664 75H466.892V74.0703L471.752 67.6035H472.559V68.499ZM471.998 67.6035V68.6494H466.946V67.6035H471.998ZM475.566 67.6035V75H474.295V67.6035H475.566ZM474.199 65.6416C474.199 65.4365 474.261 65.2633 474.384 65.1221C474.511 64.9808 474.698 64.9102 474.944 64.9102C475.186 64.9102 475.37 64.9808 475.498 65.1221C475.63 65.2633 475.696 65.4365 475.696 65.6416C475.696 65.8376 475.63 66.0062 475.498 66.1475C475.37 66.2842 475.186 66.3525 474.944 66.3525C474.698 66.3525 474.511 66.2842 474.384 66.1475C474.261 66.0062 474.199 65.8376 474.199 65.6416ZM478.861 69.1826V75H477.597V67.6035H478.793L478.861 69.1826ZM478.561 71.0215L478.034 71.001C478.039 70.4951 478.114 70.028 478.26 69.5996C478.406 69.1667 478.611 68.7907 478.875 68.4717C479.139 68.1527 479.454 67.9066 479.818 67.7334C480.188 67.5557 480.595 67.4668 481.042 67.4668C481.407 67.4668 481.735 67.5169 482.026 67.6172C482.318 67.7129 482.566 67.8678 482.771 68.082C482.981 68.2962 483.141 68.5742 483.25 68.916C483.359 69.2533 483.414 69.6657 483.414 70.1533V75H482.143V70.1396C482.143 69.7523 482.086 69.4424 481.972 69.21C481.858 68.973 481.691 68.8021 481.473 68.6973C481.254 68.5879 480.985 68.5332 480.666 68.5332C480.352 68.5332 480.064 68.5993 479.805 68.7314C479.549 68.8636 479.328 69.0459 479.142 69.2783C478.959 69.5107 478.816 69.7773 478.711 70.0781C478.611 70.3743 478.561 70.6888 478.561 71.0215ZM490.127 67.6035H491.275V74.8428C491.275 75.4945 491.143 76.0505 490.879 76.5107C490.615 76.971 490.245 77.3197 489.771 77.5566C489.302 77.7982 488.76 77.9189 488.145 77.9189C487.889 77.9189 487.589 77.8779 487.242 77.7959C486.9 77.7184 486.563 77.584 486.23 77.3926C485.902 77.2057 485.627 76.9528 485.403 76.6338L486.066 75.8818C486.376 76.2555 486.7 76.5153 487.037 76.6611C487.379 76.807 487.716 76.8799 488.049 76.8799C488.45 76.8799 488.796 76.8047 489.088 76.6543C489.38 76.5039 489.605 76.2806 489.765 75.9844C489.929 75.6927 490.011 75.3327 490.011 74.9043V69.2305L490.127 67.6035ZM485.034 71.3838V71.2402C485.034 70.6751 485.1 70.1624 485.232 69.7021C485.369 69.2373 485.563 68.8385 485.813 68.5059C486.069 68.1732 486.376 67.918 486.736 67.7402C487.096 67.5579 487.502 67.4668 487.953 67.4668C488.418 67.4668 488.824 67.5488 489.17 67.7129C489.521 67.8724 489.817 68.1071 490.059 68.417C490.305 68.7223 490.498 69.0915 490.64 69.5244C490.781 69.9574 490.879 70.4473 490.934 70.9941V71.623C490.883 72.1654 490.785 72.653 490.64 73.0859C490.498 73.5189 490.305 73.888 490.059 74.1934C489.817 74.4987 489.521 74.7334 489.17 74.8975C488.819 75.057 488.409 75.1367 487.939 75.1367C487.497 75.1367 487.096 75.0433 486.736 74.8564C486.381 74.6696 486.076 74.4076 485.82 74.0703C485.565 73.7331 485.369 73.3366 485.232 72.8809C485.1 72.4206 485.034 71.9215 485.034 71.3838ZM486.299 71.2402V71.3838C486.299 71.7529 486.335 72.0993 486.408 72.4229C486.486 72.7464 486.602 73.0312 486.757 73.2773C486.916 73.5234 487.119 73.7171 487.365 73.8584C487.611 73.9951 487.905 74.0635 488.247 74.0635C488.666 74.0635 489.013 73.9746 489.286 73.7969C489.56 73.6191 489.776 73.3844 489.936 73.0928C490.1 72.8011 490.227 72.4844 490.318 72.1426V70.4951C490.268 70.2445 490.191 70.0029 490.086 69.7705C489.986 69.5335 489.854 69.3239 489.689 69.1416C489.53 68.9548 489.332 68.8066 489.095 68.6973C488.858 68.5879 488.58 68.5332 488.261 68.5332C487.914 68.5332 487.616 68.6061 487.365 68.752C487.119 68.8932 486.916 69.0892 486.757 69.3398C486.602 69.5859 486.486 69.873 486.408 70.2012C486.335 70.5247 486.299 70.8711 486.299 71.2402Z" fill="#1362F3"/>
<rect x="715.5" y="14.5" width="186" height="105" rx="9.5" fill="#FFD6C7"/>
<rect x="715.5" y="14.5" width="186" height="105" rx="9.5" stroke="#FFB499"/>
<path d="M784.833 62.0469V72H783.534V62.0469H784.833ZM788.032 62.0469V63.127H780.342V62.0469H788.032ZM791.703 72.1367C791.188 72.1367 790.721 72.0501 790.302 71.877C789.887 71.6992 789.529 71.4508 789.229 71.1318C788.932 70.8128 788.704 70.4346 788.545 69.9971C788.385 69.5596 788.306 69.0811 788.306 68.5615V68.2744C788.306 67.6729 788.395 67.1374 788.572 66.668C788.75 66.194 788.992 65.793 789.297 65.4648C789.602 65.1367 789.949 64.8883 790.336 64.7197C790.723 64.5511 791.124 64.4668 791.539 64.4668C792.068 64.4668 792.523 64.5579 792.906 64.7402C793.294 64.9225 793.61 65.1777 793.856 65.5059C794.103 65.8294 794.285 66.2122 794.403 66.6543C794.522 67.0918 794.581 67.5703 794.581 68.0898V68.6572H789.058V67.625H793.316V67.5293C793.298 67.2012 793.23 66.8822 793.111 66.5723C792.997 66.2624 792.815 66.0072 792.564 65.8066C792.314 65.6061 791.972 65.5059 791.539 65.5059C791.252 65.5059 790.988 65.5674 790.746 65.6904C790.505 65.8089 790.297 65.9867 790.124 66.2236C789.951 66.4606 789.816 66.75 789.721 67.0918C789.625 67.4336 789.577 67.8278 789.577 68.2744V68.5615C789.577 68.9124 789.625 69.2428 789.721 69.5527C789.821 69.8581 789.965 70.127 790.151 70.3594C790.343 70.5918 790.573 70.7741 790.842 70.9062C791.115 71.0384 791.425 71.1045 791.771 71.1045C792.218 71.1045 792.596 71.0133 792.906 70.8311C793.216 70.6488 793.487 70.4049 793.72 70.0996L794.485 70.708C794.326 70.9495 794.123 71.1797 793.877 71.3984C793.631 71.6172 793.328 71.7949 792.968 71.9316C792.612 72.0684 792.191 72.1367 791.703 72.1367ZM800.419 70.7354V66.9277C800.419 66.6361 800.36 66.3831 800.241 66.1689C800.127 65.9502 799.954 65.7816 799.722 65.6631C799.489 65.5446 799.202 65.4854 798.86 65.4854C798.541 65.4854 798.261 65.54 798.02 65.6494C797.783 65.7588 797.596 65.9023 797.459 66.0801C797.327 66.2578 797.261 66.4492 797.261 66.6543H795.996C795.996 66.39 796.064 66.1279 796.201 65.8682C796.338 65.6084 796.534 65.3737 796.789 65.1641C797.049 64.9499 797.359 64.7812 797.719 64.6582C798.083 64.5306 798.489 64.4668 798.936 64.4668C799.473 64.4668 799.947 64.5579 800.357 64.7402C800.772 64.9225 801.096 65.1982 801.328 65.5674C801.565 65.932 801.684 66.39 801.684 66.9414V70.3867C801.684 70.6328 801.704 70.8949 801.745 71.1729C801.791 71.4508 801.857 71.6901 801.943 71.8906V72H800.624C800.56 71.8542 800.51 71.6605 800.474 71.4189C800.437 71.1729 800.419 70.945 800.419 70.7354ZM800.638 67.5156L800.651 68.4043H799.373C799.013 68.4043 798.692 68.4339 798.409 68.4932C798.127 68.5479 797.89 68.6322 797.698 68.7461C797.507 68.86 797.361 69.0036 797.261 69.1768C797.16 69.3454 797.11 69.5436 797.11 69.7715C797.11 70.0039 797.163 70.2158 797.268 70.4072C797.372 70.5986 797.53 70.7513 797.739 70.8652C797.953 70.9746 798.215 71.0293 798.525 71.0293C798.913 71.0293 799.255 70.9473 799.551 70.7832C799.847 70.6191 800.082 70.4186 800.255 70.1816C800.433 69.9447 800.528 69.7145 800.542 69.4912L801.082 70.0996C801.05 70.291 800.964 70.5029 800.822 70.7354C800.681 70.9678 800.492 71.1911 800.255 71.4053C800.022 71.6149 799.744 71.7904 799.421 71.9316C799.102 72.0684 798.742 72.1367 798.341 72.1367C797.84 72.1367 797.4 72.0387 797.021 71.8428C796.648 71.6468 796.356 71.3848 796.146 71.0566C795.941 70.724 795.839 70.3525 795.839 69.9424C795.839 69.5459 795.916 69.1973 796.071 68.8965C796.226 68.5911 796.45 68.3382 796.741 68.1377C797.033 67.9326 797.384 67.7777 797.794 67.6729C798.204 67.568 798.662 67.5156 799.168 67.5156H800.638ZM806.633 71.0977C806.934 71.0977 807.212 71.0361 807.467 70.9131C807.722 70.79 807.932 70.6214 808.096 70.4072C808.26 70.1885 808.353 69.9401 808.376 69.6621H809.579C809.556 70.0996 809.408 70.5075 809.135 70.8857C808.866 71.2594 808.513 71.5625 808.075 71.7949C807.638 72.0228 807.157 72.1367 806.633 72.1367C806.077 72.1367 805.591 72.0387 805.177 71.8428C804.767 71.6468 804.425 71.3779 804.151 71.0361C803.882 70.6943 803.68 70.3024 803.543 69.8604C803.411 69.4137 803.345 68.9421 803.345 68.4453V68.1582C803.345 67.6615 803.411 67.1921 803.543 66.75C803.68 66.3034 803.882 65.9092 804.151 65.5674C804.425 65.2256 804.767 64.9567 805.177 64.7607C805.591 64.5648 806.077 64.4668 806.633 64.4668C807.212 64.4668 807.717 64.5853 808.15 64.8223C808.583 65.0547 808.923 65.3737 809.169 65.7793C809.42 66.1803 809.556 66.6361 809.579 67.1465H808.376C808.353 66.8411 808.267 66.5654 808.116 66.3193C807.97 66.0732 807.77 65.8773 807.515 65.7314C807.264 65.5811 806.97 65.5059 806.633 65.5059C806.245 65.5059 805.92 65.5833 805.655 65.7383C805.396 65.8887 805.188 66.0938 805.033 66.3535C804.883 66.6087 804.773 66.8936 804.705 67.208C804.641 67.5179 804.609 67.8346 804.609 68.1582V68.4453C804.609 68.7689 804.641 69.0879 804.705 69.4023C804.769 69.7168 804.876 70.0016 805.026 70.2568C805.181 70.512 805.389 70.7171 805.648 70.8721C805.913 71.0225 806.241 71.0977 806.633 71.0977ZM812.266 61.5V72H811.001V61.5H812.266ZM811.965 68.0215L811.438 68.001C811.443 67.4951 811.518 67.028 811.664 66.5996C811.81 66.1667 812.015 65.7907 812.279 65.4717C812.544 65.1527 812.858 64.9066 813.223 64.7334C813.592 64.5557 814 64.4668 814.446 64.4668C814.811 64.4668 815.139 64.5169 815.431 64.6172C815.722 64.7129 815.971 64.8678 816.176 65.082C816.385 65.2962 816.545 65.5742 816.654 65.916C816.764 66.2533 816.818 66.6657 816.818 67.1533V72H815.547V67.1396C815.547 66.7523 815.49 66.4424 815.376 66.21C815.262 65.973 815.096 65.8021 814.877 65.6973C814.658 65.5879 814.389 65.5332 814.07 65.5332C813.756 65.5332 813.469 65.5993 813.209 65.7314C812.954 65.8636 812.733 66.0459 812.546 66.2783C812.364 66.5107 812.22 66.7773 812.115 67.0781C812.015 67.3743 811.965 67.6888 811.965 68.0215ZM820.086 64.6035V72H818.814V64.6035H820.086ZM818.719 62.6416C818.719 62.4365 818.78 62.2633 818.903 62.1221C819.031 61.9808 819.218 61.9102 819.464 61.9102C819.705 61.9102 819.89 61.9808 820.018 62.1221C820.15 62.2633 820.216 62.4365 820.216 62.6416C820.216 62.8376 820.15 63.0062 820.018 63.1475C819.89 63.2842 819.705 63.3525 819.464 63.3525C819.218 63.3525 819.031 63.2842 818.903 63.1475C818.78 63.0062 818.719 62.8376 818.719 62.6416ZM823.381 66.1826V72H822.116V64.6035H823.312L823.381 66.1826ZM823.08 68.0215L822.554 68.001C822.558 67.4951 822.633 67.028 822.779 66.5996C822.925 66.1667 823.13 65.7907 823.395 65.4717C823.659 65.1527 823.973 64.9066 824.338 64.7334C824.707 64.5557 825.115 64.4668 825.562 64.4668C825.926 64.4668 826.254 64.5169 826.546 64.6172C826.838 64.7129 827.086 64.8678 827.291 65.082C827.501 65.2962 827.66 65.5742 827.77 65.916C827.879 66.2533 827.934 66.6657 827.934 67.1533V72H826.662V67.1396C826.662 66.7523 826.605 66.4424 826.491 66.21C826.377 65.973 826.211 65.8021 825.992 65.6973C825.773 65.5879 825.505 65.5332 825.186 65.5332C824.871 65.5332 824.584 65.5993 824.324 65.7314C824.069 65.8636 823.848 66.0459 823.661 66.2783C823.479 66.5107 823.335 66.7773 823.23 67.0781C823.13 67.3743 823.08 67.6888 823.08 68.0215ZM834.646 64.6035H835.795V71.8428C835.795 72.4945 835.663 73.0505 835.398 73.5107C835.134 73.971 834.765 74.3197 834.291 74.5566C833.822 74.7982 833.279 74.9189 832.664 74.9189C832.409 74.9189 832.108 74.8779 831.762 74.7959C831.42 74.7184 831.083 74.584 830.75 74.3926C830.422 74.2057 830.146 73.9528 829.923 73.6338L830.586 72.8818C830.896 73.2555 831.219 73.5153 831.557 73.6611C831.898 73.807 832.236 73.8799 832.568 73.8799C832.969 73.8799 833.316 73.8047 833.607 73.6543C833.899 73.5039 834.125 73.2806 834.284 72.9844C834.448 72.6927 834.53 72.3327 834.53 71.9043V66.2305L834.646 64.6035ZM829.554 68.3838V68.2402C829.554 67.6751 829.62 67.1624 829.752 66.7021C829.889 66.2373 830.082 65.8385 830.333 65.5059C830.588 65.1732 830.896 64.918 831.256 64.7402C831.616 64.5579 832.021 64.4668 832.473 64.4668C832.938 64.4668 833.343 64.5488 833.689 64.7129C834.04 64.8724 834.337 65.1071 834.578 65.417C834.824 65.7223 835.018 66.0915 835.159 66.5244C835.3 66.9574 835.398 67.4473 835.453 67.9941V68.623C835.403 69.1654 835.305 69.653 835.159 70.0859C835.018 70.5189 834.824 70.888 834.578 71.1934C834.337 71.4987 834.04 71.7334 833.689 71.8975C833.339 72.057 832.928 72.1367 832.459 72.1367C832.017 72.1367 831.616 72.0433 831.256 71.8564C830.9 71.6696 830.595 71.4076 830.34 71.0703C830.085 70.7331 829.889 70.3366 829.752 69.8809C829.62 69.4206 829.554 68.9215 829.554 68.3838ZM830.818 68.2402V68.3838C830.818 68.7529 830.855 69.0993 830.928 69.4229C831.005 69.7464 831.121 70.0312 831.276 70.2773C831.436 70.5234 831.639 70.7171 831.885 70.8584C832.131 70.9951 832.425 71.0635 832.767 71.0635C833.186 71.0635 833.532 70.9746 833.806 70.7969C834.079 70.6191 834.296 70.3844 834.455 70.0928C834.619 69.8011 834.747 69.4844 834.838 69.1426V67.4951C834.788 67.2445 834.71 67.0029 834.605 66.7705C834.505 66.5335 834.373 66.3239 834.209 66.1416C834.049 65.9548 833.851 65.8066 833.614 65.6973C833.377 65.5879 833.099 65.5332 832.78 65.5332C832.434 65.5332 832.135 65.6061 831.885 65.752C831.639 65.8932 831.436 66.0892 831.276 66.3398C831.121 66.5859 831.005 66.873 830.928 67.2012C830.855 67.5247 830.818 67.8711 830.818 68.2402Z" fill="#FF662F"/>
<rect x="1072.5" y="0.5" width="186" height="143" rx="9.5" fill="#B4E9C6"/>
<rect x="1072.5" y="0.5" width="186" height="143" rx="9.5" stroke="#4CC375"/>
<path d="M1143.33 67.0469V77H1142.03V67.0469H1143.33ZM1146.53 67.0469V68.127H1138.84V67.0469H1146.53ZM1148.56 70.7656V77H1147.3V69.6035H1148.53L1148.56 70.7656ZM1150.87 69.5625L1150.87 70.7383C1150.76 70.7155 1150.66 70.7018 1150.57 70.6973C1150.47 70.6882 1150.37 70.6836 1150.25 70.6836C1149.96 70.6836 1149.7 70.7292 1149.48 70.8203C1149.26 70.9115 1149.07 71.0391 1148.91 71.2031C1148.76 71.3672 1148.63 71.5632 1148.54 71.791C1148.46 72.0143 1148.4 72.2604 1148.37 72.5293L1148.02 72.7344C1148.02 72.2878 1148.06 71.8685 1148.15 71.4766C1148.24 71.0846 1148.38 70.7383 1148.56 70.4375C1148.75 70.1322 1148.99 69.8952 1149.27 69.7266C1149.57 69.5534 1149.91 69.4668 1150.31 69.4668C1150.4 69.4668 1150.51 69.4782 1150.63 69.501C1150.75 69.5192 1150.83 69.5397 1150.87 69.5625ZM1156.13 75.7354V71.9277C1156.13 71.6361 1156.07 71.3831 1155.95 71.1689C1155.84 70.9502 1155.67 70.7816 1155.43 70.6631C1155.2 70.5446 1154.91 70.4854 1154.57 70.4854C1154.25 70.4854 1153.97 70.54 1153.73 70.6494C1153.49 70.7588 1153.31 70.9023 1153.17 71.0801C1153.04 71.2578 1152.97 71.4492 1152.97 71.6543H1151.71C1151.71 71.39 1151.78 71.1279 1151.91 70.8682C1152.05 70.6084 1152.24 70.3737 1152.5 70.1641C1152.76 69.9499 1153.07 69.7812 1153.43 69.6582C1153.79 69.5306 1154.2 69.4668 1154.65 69.4668C1155.18 69.4668 1155.66 69.5579 1156.07 69.7402C1156.48 69.9225 1156.81 70.1982 1157.04 70.5674C1157.28 70.932 1157.39 71.39 1157.39 71.9414V75.3867C1157.39 75.6328 1157.42 75.8949 1157.46 76.1729C1157.5 76.4508 1157.57 76.6901 1157.65 76.8906V77H1156.33C1156.27 76.8542 1156.22 76.6605 1156.18 76.4189C1156.15 76.1729 1156.13 75.945 1156.13 75.7354ZM1156.35 72.5156L1156.36 73.4043H1155.08C1154.72 73.4043 1154.4 73.4339 1154.12 73.4932C1153.84 73.5479 1153.6 73.6322 1153.41 73.7461C1153.22 73.86 1153.07 74.0036 1152.97 74.1768C1152.87 74.3454 1152.82 74.5436 1152.82 74.7715C1152.82 75.0039 1152.87 75.2158 1152.98 75.4072C1153.08 75.5986 1153.24 75.7513 1153.45 75.8652C1153.66 75.9746 1153.93 76.0293 1154.24 76.0293C1154.62 76.0293 1154.97 75.9473 1155.26 75.7832C1155.56 75.6191 1155.79 75.4186 1155.97 75.1816C1156.14 74.9447 1156.24 74.7145 1156.25 74.4912L1156.79 75.0996C1156.76 75.291 1156.67 75.5029 1156.53 75.7354C1156.39 75.9678 1156.2 76.1911 1155.97 76.4053C1155.73 76.6149 1155.46 76.7904 1155.13 76.9316C1154.81 77.0684 1154.45 77.1367 1154.05 77.1367C1153.55 77.1367 1153.11 77.0387 1152.73 76.8428C1152.36 76.6468 1152.07 76.3848 1151.86 76.0566C1151.65 75.724 1151.55 75.3525 1151.55 74.9424C1151.55 74.5459 1151.63 74.1973 1151.78 73.8965C1151.94 73.5911 1152.16 73.3382 1152.45 73.1377C1152.74 72.9326 1153.09 72.7777 1153.5 72.6729C1153.92 72.568 1154.37 72.5156 1154.88 72.5156H1156.35ZM1162.34 76.0977C1162.64 76.0977 1162.92 76.0361 1163.18 75.9131C1163.43 75.79 1163.64 75.6214 1163.81 75.4072C1163.97 75.1885 1164.06 74.9401 1164.09 74.6621H1165.29C1165.27 75.0996 1165.12 75.5075 1164.85 75.8857C1164.58 76.2594 1164.22 76.5625 1163.79 76.7949C1163.35 77.0228 1162.87 77.1367 1162.34 77.1367C1161.79 77.1367 1161.3 77.0387 1160.89 76.8428C1160.48 76.6468 1160.14 76.3779 1159.86 76.0361C1159.59 75.6943 1159.39 75.3024 1159.25 74.8604C1159.12 74.4137 1159.06 73.9421 1159.06 73.4453V73.1582C1159.06 72.6615 1159.12 72.1921 1159.25 71.75C1159.39 71.3034 1159.59 70.9092 1159.86 70.5674C1160.14 70.2256 1160.48 69.9567 1160.89 69.7607C1161.3 69.5648 1161.79 69.4668 1162.34 69.4668C1162.92 69.4668 1163.43 69.5853 1163.86 69.8223C1164.29 70.0547 1164.63 70.3737 1164.88 70.7793C1165.13 71.1803 1165.27 71.6361 1165.29 72.1465H1164.09C1164.06 71.8411 1163.98 71.5654 1163.83 71.3193C1163.68 71.0732 1163.48 70.8773 1163.23 70.7314C1162.97 70.5811 1162.68 70.5059 1162.34 70.5059C1161.96 70.5059 1161.63 70.5833 1161.37 70.7383C1161.11 70.8887 1160.9 71.0938 1160.74 71.3535C1160.59 71.6087 1160.48 71.8936 1160.42 72.208C1160.35 72.5179 1160.32 72.8346 1160.32 73.1582V73.4453C1160.32 73.7689 1160.35 74.0879 1160.42 74.4023C1160.48 74.7168 1160.59 75.0016 1160.74 75.2568C1160.89 75.512 1161.1 75.7171 1161.36 75.8721C1161.62 76.0225 1161.95 76.0977 1162.34 76.0977ZM1167.98 66.5V77H1166.71V66.5H1167.98ZM1172.5 69.6035L1169.28 73.0557L1167.47 74.9287L1167.37 73.582L1168.66 72.0371L1170.96 69.6035H1172.5ZM1171.35 77L1168.71 73.4727L1169.36 72.3447L1172.84 77H1171.35ZM1175.18 69.6035V77H1173.91V69.6035H1175.18ZM1173.81 67.6416C1173.81 67.4365 1173.88 67.2633 1174 67.1221C1174.13 66.9808 1174.31 66.9102 1174.56 66.9102C1174.8 66.9102 1174.99 66.9808 1175.11 67.1221C1175.25 67.2633 1175.31 67.4365 1175.31 67.6416C1175.31 67.8376 1175.25 68.0062 1175.11 68.1475C1174.99 68.2842 1174.8 68.3525 1174.56 68.3525C1174.31 68.3525 1174.13 68.2842 1174 68.1475C1173.88 68.0062 1173.81 67.8376 1173.81 67.6416ZM1178.48 71.1826V77H1177.21V69.6035H1178.41L1178.48 71.1826ZM1178.18 73.0215L1177.65 73.001C1177.65 72.4951 1177.73 72.028 1177.88 71.5996C1178.02 71.1667 1178.23 70.7907 1178.49 70.4717C1178.75 70.1527 1179.07 69.9066 1179.43 69.7334C1179.8 69.5557 1180.21 69.4668 1180.66 69.4668C1181.02 69.4668 1181.35 69.5169 1181.64 69.6172C1181.93 69.7129 1182.18 69.8678 1182.39 70.082C1182.6 70.2962 1182.76 70.5742 1182.87 70.916C1182.97 71.2533 1183.03 71.6657 1183.03 72.1533V77H1181.76V72.1396C1181.76 71.7523 1181.7 71.4424 1181.59 71.21C1181.47 70.973 1181.31 70.8021 1181.09 70.6973C1180.87 70.5879 1180.6 70.5332 1180.28 70.5332C1179.97 70.5332 1179.68 70.5993 1179.42 70.7314C1179.16 70.8636 1178.94 71.0459 1178.76 71.2783C1178.57 71.5107 1178.43 71.7773 1178.33 72.0781C1178.23 72.3743 1178.18 72.6888 1178.18 73.0215ZM1189.74 69.6035H1190.89V76.8428C1190.89 77.4945 1190.76 78.0505 1190.49 78.5107C1190.23 78.971 1189.86 79.3197 1189.39 79.5566C1188.92 79.7982 1188.38 79.9189 1187.76 79.9189C1187.5 79.9189 1187.2 79.8779 1186.86 79.7959C1186.52 79.7184 1186.18 79.584 1185.85 79.3926C1185.52 79.2057 1185.24 78.9528 1185.02 78.6338L1185.68 77.8818C1185.99 78.2555 1186.32 78.5153 1186.65 78.6611C1186.99 78.807 1187.33 78.8799 1187.66 78.8799C1188.07 78.8799 1188.41 78.8047 1188.7 78.6543C1188.99 78.5039 1189.22 78.2806 1189.38 77.9844C1189.54 77.6927 1189.63 77.3327 1189.63 76.9043V71.2305L1189.74 69.6035ZM1184.65 73.3838V73.2402C1184.65 72.6751 1184.72 72.1624 1184.85 71.7021C1184.98 71.2373 1185.18 70.8385 1185.43 70.5059C1185.68 70.1732 1185.99 69.918 1186.35 69.7402C1186.71 69.5579 1187.12 69.4668 1187.57 69.4668C1188.03 69.4668 1188.44 69.5488 1188.79 69.7129C1189.14 69.8724 1189.43 70.1071 1189.67 70.417C1189.92 70.7223 1190.11 71.0915 1190.25 71.5244C1190.4 71.9574 1190.49 72.4473 1190.55 72.9941V73.623C1190.5 74.1654 1190.4 74.653 1190.25 75.0859C1190.11 75.5189 1189.92 75.888 1189.67 76.1934C1189.43 76.4987 1189.14 76.7334 1188.79 76.8975C1188.43 77.057 1188.02 77.1367 1187.55 77.1367C1187.11 77.1367 1186.71 77.0433 1186.35 76.8564C1186 76.6696 1185.69 76.4076 1185.44 76.0703C1185.18 75.7331 1184.98 75.3366 1184.85 74.8809C1184.72 74.4206 1184.65 73.9215 1184.65 73.3838ZM1185.91 73.2402V73.3838C1185.91 73.7529 1185.95 74.0993 1186.02 74.4229C1186.1 74.7464 1186.22 75.0312 1186.37 75.2773C1186.53 75.5234 1186.73 75.7171 1186.98 75.8584C1187.23 75.9951 1187.52 76.0635 1187.86 76.0635C1188.28 76.0635 1188.63 75.9746 1188.9 75.7969C1189.17 75.6191 1189.39 75.3844 1189.55 75.0928C1189.71 74.8011 1189.84 74.4844 1189.93 74.1426V72.4951C1189.88 72.2445 1189.81 72.0029 1189.7 71.7705C1189.6 71.5335 1189.47 71.3239 1189.3 71.1416C1189.15 70.9548 1188.95 70.8066 1188.71 70.6973C1188.47 70.5879 1188.19 70.5332 1187.88 70.5332C1187.53 70.5332 1187.23 70.6061 1186.98 70.752C1186.73 70.8932 1186.53 71.0892 1186.37 71.3398C1186.22 71.5859 1186.1 71.873 1186.02 72.2012C1185.95 72.5247 1185.91 72.8711 1185.91 73.2402Z" fill="#00AD3C"/>
<path d="M187 70H357.5" stroke="black"/>
<circle cx="186.5" cy="69.5" r="3" fill="white" stroke="black"/>
<circle cx="358.5" cy="69.5" r="3" fill="white" stroke="black"/>
<path d="M544 70H714.5" stroke="black"/>
<circle cx="543.5" cy="69.5" r="3" fill="white" stroke="black"/>
<circle cx="715.5" cy="69.5" r="3" fill="white" stroke="black"/>
<path d="M901 70H1071.5" stroke="black"/>
<circle cx="900.5" cy="69.5" r="3" fill="white" stroke="black"/>
<circle cx="1072.5" cy="69.5" r="3" fill="white" stroke="black"/>
</svg>
