<svg width="1457" height="144" viewBox="0 0 1457 144" fill="none" xmlns="http://www.w3.org/2000/svg">
<rect x="0.5" y="47" width="170" height="50" rx="9.5" fill="#F5F5F5"/>
<rect x="0.5" y="47" width="170" height="50" rx="9.5" stroke="#E1E1E1"/>
<path d="M29.517 79.5L37.107 63.285H40.442L48.032 79.5H43.8L41.891 75.038L43.501 76.211H34.025L35.658 75.038L33.749 79.5H29.517ZM38.74 67.701L36.072 74.072L35.428 72.968H42.121L41.477 74.072L38.786 67.701H38.74ZM53.0438 79.753C52.3538 79.753 51.6868 79.707 51.0428 79.615C50.4142 79.523 49.8392 79.385 49.3178 79.201C48.7965 79.017 48.3288 78.7947 47.9148 78.534L48.8578 75.889C49.2412 76.1037 49.6628 76.2953 50.1228 76.464C50.5982 76.6327 51.0888 76.763 51.5948 76.855C52.1008 76.947 52.5915 76.993 53.0668 76.993C53.6342 76.993 54.0405 76.9163 54.2858 76.763C54.5312 76.5943 54.6538 76.3797 54.6538 76.119C54.6538 75.889 54.5695 75.7127 54.4008 75.59C54.2475 75.4673 54.0252 75.383 53.7338 75.337L51.1808 74.923C50.2302 74.7543 49.4942 74.4093 48.9728 73.888C48.4515 73.3513 48.1908 72.6537 48.1908 71.795C48.1908 70.9977 48.4132 70.3153 48.8578 69.748C49.3178 69.1653 49.9388 68.7207 50.7208 68.414C51.5182 68.092 52.4305 67.931 53.4578 67.931C54.0098 67.931 54.5542 67.977 55.0908 68.069C55.6275 68.1457 56.1412 68.276 56.6318 68.46C57.1225 68.6287 57.5672 68.8587 57.9658 69.15L56.9538 71.749C56.6625 71.5343 56.3175 71.3503 55.9188 71.197C55.5202 71.0437 55.1062 70.921 54.6768 70.829C54.2628 70.7217 53.8795 70.668 53.5268 70.668C52.8982 70.668 52.4535 70.7523 52.1928 70.921C51.9322 71.0897 51.8018 71.3043 51.8018 71.565C51.8018 71.7643 51.8708 71.933 52.0088 72.071C52.1468 72.1937 52.3615 72.278 52.6528 72.324L55.2058 72.761C56.1872 72.9143 56.9385 73.2517 57.4598 73.773C57.9965 74.279 58.2648 74.969 58.2648 75.843C58.2648 76.671 58.0502 77.3763 57.6208 77.959C57.1915 78.5417 56.5858 78.9863 55.8038 79.293C55.0218 79.5997 54.1018 79.753 53.0438 79.753ZM64.454 79.753C63.764 79.753 63.097 79.707 62.453 79.615C61.8243 79.523 61.2493 79.385 60.728 79.201C60.2067 79.017 59.739 78.7947 59.325 78.534L60.268 75.889C60.6513 76.1037 61.073 76.2953 61.533 76.464C62.0083 76.6327 62.499 76.763 63.005 76.855C63.511 76.947 64.0017 76.993 64.477 76.993C65.0443 76.993 65.4507 76.9163 65.696 76.763C65.9413 76.5943 66.064 76.3797 66.064 76.119C66.064 75.889 65.9797 75.7127 65.811 75.59C65.6577 75.4673 65.4353 75.383 65.144 75.337L62.591 74.923C61.6403 74.7543 60.9043 74.4093 60.383 73.888C59.8617 73.3513 59.601 72.6537 59.601 71.795C59.601 70.9977 59.8233 70.3153 60.268 69.748C60.728 69.1653 61.349 68.7207 62.131 68.414C62.9283 68.092 63.8407 67.931 64.868 67.931C65.42 67.931 65.9643 67.977 66.501 68.069C67.0377 68.1457 67.5513 68.276 68.042 68.46C68.5327 68.6287 68.9773 68.8587 69.376 69.15L68.364 71.749C68.0727 71.5343 67.7277 71.3503 67.329 71.197C66.9303 71.0437 66.5163 70.921 66.087 70.829C65.673 70.7217 65.2897 70.668 64.937 70.668C64.3083 70.668 63.8637 70.7523 63.603 70.921C63.3423 71.0897 63.212 71.3043 63.212 71.565C63.212 71.7643 63.281 71.933 63.419 72.071C63.557 72.1937 63.7717 72.278 64.063 72.324L66.616 72.761C67.5973 72.9143 68.3487 73.2517 68.87 73.773C69.4067 74.279 69.675 74.969 69.675 75.843C69.675 76.671 69.4603 77.3763 69.031 77.959C68.6017 78.5417 67.996 78.9863 67.214 79.293C66.432 79.5997 65.512 79.753 64.454 79.753ZM77.5202 79.753C76.1402 79.753 74.9442 79.5153 73.9322 79.04C72.9355 78.5493 72.1688 77.8593 71.6322 76.97C71.0955 76.0807 70.8272 75.0303 70.8272 73.819C70.8272 72.6537 71.0802 71.634 71.5862 70.76C72.1075 69.8707 72.8128 69.1807 73.7022 68.69C74.6068 68.184 75.6342 67.931 76.7842 67.931C77.9342 67.931 78.9232 68.1687 79.7512 68.644C80.5792 69.1193 81.2155 69.8017 81.6602 70.691C82.1202 71.565 82.3502 72.5923 82.3502 73.773V74.67H74.2542V72.738H79.3602L78.9922 73.037C78.9922 72.209 78.8158 71.5957 78.4632 71.197C78.1105 70.783 77.6122 70.576 76.9682 70.576C76.4928 70.576 76.0788 70.691 75.7262 70.921C75.3888 71.1357 75.1282 71.4577 74.9442 71.887C74.7602 72.3163 74.6682 72.853 74.6682 73.497V73.704C74.6682 74.4247 74.7678 75.0073 74.9672 75.452C75.1818 75.8967 75.5115 76.2263 75.9562 76.441C76.4008 76.6403 76.9605 76.74 77.6352 76.74C78.2178 76.74 78.8235 76.6557 79.4522 76.487C80.0962 76.303 80.6635 76.0423 81.1542 75.705L82.1662 78.396C81.5835 78.81 80.8705 79.1397 80.0272 79.385C79.1838 79.6303 78.3482 79.753 77.5202 79.753ZM88.622 79.753C87.932 79.753 87.265 79.707 86.621 79.615C85.9923 79.523 85.4173 79.385 84.896 79.201C84.3746 79.017 83.907 78.7947 83.493 78.534L84.436 75.889C84.8193 76.1037 85.241 76.2953 85.701 76.464C86.1763 76.6327 86.667 76.763 87.173 76.855C87.679 76.947 88.1696 76.993 88.645 76.993C89.2123 76.993 89.6186 76.9163 89.864 76.763C90.1093 76.5943 90.232 76.3797 90.232 76.119C90.232 75.889 90.1476 75.7127 89.979 75.59C89.8256 75.4673 89.6033 75.383 89.312 75.337L86.759 74.923C85.8083 74.7543 85.0723 74.4093 84.551 73.888C84.0296 73.3513 83.769 72.6537 83.769 71.795C83.769 70.9977 83.9913 70.3153 84.436 69.748C84.896 69.1653 85.517 68.7207 86.299 68.414C87.0963 68.092 88.0086 67.931 89.036 67.931C89.588 67.931 90.1323 67.977 90.669 68.069C91.2056 68.1457 91.7193 68.276 92.21 68.46C92.7006 68.6287 93.1453 68.8587 93.544 69.15L92.532 71.749C92.2406 71.5343 91.8956 71.3503 91.497 71.197C91.0983 71.0437 90.6843 70.921 90.255 70.829C89.841 70.7217 89.4576 70.668 89.105 70.668C88.4763 70.668 88.0316 70.7523 87.771 70.921C87.5103 71.0897 87.38 71.3043 87.38 71.565C87.38 71.7643 87.449 71.933 87.587 72.071C87.725 72.1937 87.9396 72.278 88.231 72.324L90.784 72.761C91.7653 72.9143 92.5166 73.2517 93.038 73.773C93.5746 74.279 93.843 74.969 93.843 75.843C93.843 76.671 93.6283 77.3763 93.199 77.959C92.7696 78.5417 92.164 78.9863 91.382 79.293C90.6 79.5997 89.68 79.753 88.622 79.753ZM100.032 79.753C99.3421 79.753 98.6751 79.707 98.0311 79.615C97.4025 79.523 96.8275 79.385 96.3061 79.201C95.7848 79.017 95.3171 78.7947 94.9031 78.534L95.8461 75.889C96.2295 76.1037 96.6511 76.2953 97.1111 76.464C97.5865 76.6327 98.0771 76.763 98.5831 76.855C99.0891 76.947 99.5798 76.993 100.055 76.993C100.622 76.993 101.029 76.9163 101.274 76.763C101.519 76.5943 101.642 76.3797 101.642 76.119C101.642 75.889 101.558 75.7127 101.389 75.59C101.236 75.4673 101.013 75.383 100.722 75.337L98.1691 74.923C97.2185 74.7543 96.4825 74.4093 95.9611 73.888C95.4398 73.3513 95.1791 72.6537 95.1791 71.795C95.1791 70.9977 95.4015 70.3153 95.8461 69.748C96.3061 69.1653 96.9271 68.7207 97.7091 68.414C98.5065 68.092 99.4188 67.931 100.446 67.931C100.998 67.931 101.542 67.977 102.079 68.069C102.616 68.1457 103.129 68.276 103.62 68.46C104.111 68.6287 104.555 68.8587 104.954 69.15L103.942 71.749C103.651 71.5343 103.306 71.3503 102.907 71.197C102.508 71.0437 102.094 70.921 101.665 70.829C101.251 70.7217 100.868 70.668 100.515 70.668C99.8865 70.668 99.4418 70.7523 99.1811 70.921C98.9205 71.0897 98.7901 71.3043 98.7901 71.565C98.7901 71.7643 98.8591 71.933 98.9971 72.071C99.1351 72.1937 99.3498 72.278 99.6411 72.324L102.194 72.761C103.175 72.9143 103.927 73.2517 104.448 73.773C104.985 74.279 105.253 74.969 105.253 75.843C105.253 76.671 105.038 77.3763 104.609 77.959C104.18 78.5417 103.574 78.9863 102.792 79.293C102.01 79.5997 101.09 79.753 100.032 79.753ZM106.819 66.229V62.526H111.12V66.229H106.819ZM106.934 79.5V68.184H111.028V79.5H106.934ZM113.403 79.5V68.184H117.382V70.162H117.129C117.497 69.4413 118.018 68.8893 118.693 68.506C119.383 68.1227 120.165 67.931 121.039 67.931C121.944 67.931 122.687 68.1073 123.27 68.46C123.853 68.7973 124.29 69.334 124.581 70.07C124.872 70.7907 125.018 71.703 125.018 72.807V79.5H120.924V72.968C120.924 72.508 120.87 72.14 120.763 71.864C120.656 71.5727 120.495 71.3657 120.28 71.243C120.081 71.1203 119.828 71.059 119.521 71.059C119.107 71.059 118.747 71.151 118.44 71.335C118.133 71.5037 117.896 71.749 117.727 72.071C117.574 72.393 117.497 72.7763 117.497 73.221V79.5H113.403ZM132.963 83.893C131.829 83.893 130.763 83.7857 129.766 83.571C128.785 83.3563 127.942 83.0037 127.236 82.513L128.294 79.753C128.693 79.983 129.138 80.1823 129.628 80.351C130.134 80.535 130.64 80.6653 131.146 80.742C131.652 80.834 132.128 80.88 132.572 80.88C133.508 80.88 134.205 80.6807 134.665 80.282C135.141 79.8987 135.378 79.293 135.378 78.465V77.016H135.562C135.332 77.66 134.865 78.189 134.159 78.603C133.454 79.0017 132.687 79.201 131.859 79.201C130.847 79.201 129.966 78.971 129.214 78.511C128.463 78.0357 127.873 77.3763 127.443 76.533C127.029 75.6897 126.822 74.7007 126.822 73.566C126.822 72.4313 127.029 71.4423 127.443 70.599C127.873 69.7557 128.463 69.104 129.214 68.644C129.966 68.1687 130.847 67.931 131.859 67.931C132.718 67.931 133.485 68.1303 134.159 68.529C134.849 68.9277 135.309 69.449 135.539 70.093H135.355V68.184H139.357V77.982C139.357 79.3007 139.112 80.397 138.621 81.271C138.131 82.145 137.41 82.7967 136.459 83.226C135.509 83.6707 134.343 83.893 132.963 83.893ZM133.124 76.188C133.799 76.188 134.336 75.958 134.734 75.498C135.133 75.038 135.332 74.394 135.332 73.566C135.332 72.738 135.133 72.094 134.734 71.634C134.336 71.174 133.799 70.944 133.124 70.944C132.465 70.944 131.936 71.174 131.537 71.634C131.139 72.094 130.939 72.738 130.939 73.566C130.939 74.394 131.139 75.038 131.537 75.498C131.936 75.958 132.465 76.188 133.124 76.188Z" fill="#A5A5A5"/>
<path d="M174 72.5L365 72.5" stroke="black"/>
<circle cx="174.5" cy="72" r="3" fill="white" stroke="black"/>
<circle cx="366.5" cy="72" r="3" fill="white" stroke="black"/>
<rect x="370.5" y="38.5" width="210" height="67" rx="9.5" fill="#DFEAFF"/>
<rect x="370.5" y="38.5" width="210" height="67" rx="9.5" stroke="#97ADD7"/>
<path d="M401.472 79.5V63.285H409.269C410.496 63.285 411.538 63.4997 412.397 63.929C413.256 64.343 413.907 64.9487 414.352 65.746C414.812 66.528 415.042 67.4787 415.042 68.598C415.042 69.6867 414.812 70.6373 414.352 71.45C413.907 72.2473 413.256 72.8607 412.397 73.29C411.538 73.704 410.496 73.911 409.269 73.911H405.704V79.5H401.472ZM405.704 70.668H408.533C409.33 70.668 409.944 70.4993 410.373 70.162C410.802 69.8093 411.017 69.288 411.017 68.598C411.017 67.8927 410.802 67.3713 410.373 67.034C409.944 66.6967 409.33 66.528 408.533 66.528H405.704V70.668ZM422.274 79.753C420.894 79.753 419.698 79.5153 418.686 79.04C417.689 78.5493 416.923 77.8593 416.386 76.97C415.849 76.0807 415.581 75.0303 415.581 73.819C415.581 72.6537 415.834 71.634 416.34 70.76C416.861 69.8707 417.567 69.1807 418.456 68.69C419.361 68.184 420.388 67.931 421.538 67.931C422.688 67.931 423.677 68.1687 424.505 68.644C425.333 69.1193 425.969 69.8017 426.414 70.691C426.874 71.565 427.104 72.5923 427.104 73.773V74.67H419.008V72.738H424.114L423.746 73.037C423.746 72.209 423.57 71.5957 423.217 71.197C422.864 70.783 422.366 70.576 421.722 70.576C421.247 70.576 420.833 70.691 420.48 70.921C420.143 71.1357 419.882 71.4577 419.698 71.887C419.514 72.3163 419.422 72.853 419.422 73.497V73.704C419.422 74.4247 419.522 75.0073 419.721 75.452C419.936 75.8967 420.265 76.2263 420.71 76.441C421.155 76.6403 421.714 76.74 422.389 76.74C422.972 76.74 423.577 76.6557 424.206 76.487C424.85 76.303 425.417 76.0423 425.908 75.705L426.92 78.396C426.337 78.81 425.624 79.1397 424.781 79.385C423.938 79.6303 423.102 79.753 422.274 79.753ZM428.868 79.5V68.184H432.847V70.967H432.617C432.77 70.047 433.154 69.334 433.767 68.828C434.396 68.3067 435.216 68.0153 436.228 67.954L437.355 67.862L437.585 71.312L435.354 71.519C434.541 71.5957 433.951 71.8257 433.583 72.209C433.215 72.577 433.031 73.129 433.031 73.865V79.5H428.868ZM443.236 79.753C442.546 79.753 441.879 79.707 441.235 79.615C440.607 79.523 440.032 79.385 439.51 79.201C438.989 79.017 438.521 78.7947 438.107 78.534L439.05 75.889C439.434 76.1037 439.855 76.2953 440.315 76.464C440.791 76.6327 441.281 76.763 441.787 76.855C442.293 76.947 442.784 76.993 443.259 76.993C443.827 76.993 444.233 76.9163 444.478 76.763C444.724 76.5943 444.846 76.3797 444.846 76.119C444.846 75.889 444.762 75.7127 444.593 75.59C444.44 75.4673 444.218 75.383 443.926 75.337L441.373 74.923C440.423 74.7543 439.687 74.4093 439.165 73.888C438.644 73.3513 438.383 72.6537 438.383 71.795C438.383 70.9977 438.606 70.3153 439.05 69.748C439.51 69.1653 440.131 68.7207 440.913 68.414C441.711 68.092 442.623 67.931 443.65 67.931C444.202 67.931 444.747 67.977 445.283 68.069C445.82 68.1457 446.334 68.276 446.824 68.46C447.315 68.6287 447.76 68.8587 448.158 69.15L447.146 71.749C446.855 71.5343 446.51 71.3503 446.111 71.197C445.713 71.0437 445.299 70.921 444.869 70.829C444.455 70.7217 444.072 70.668 443.719 70.668C443.091 70.668 442.646 70.7523 442.385 70.921C442.125 71.0897 441.994 71.3043 441.994 71.565C441.994 71.7643 442.063 71.933 442.201 72.071C442.339 72.1937 442.554 72.278 442.845 72.324L445.398 72.761C446.38 72.9143 447.131 73.2517 447.652 73.773C448.189 74.279 448.457 74.969 448.457 75.843C448.457 76.671 448.243 77.3763 447.813 77.959C447.384 78.5417 446.778 78.9863 445.996 79.293C445.214 79.5997 444.294 79.753 443.236 79.753ZM455.865 79.753C454.608 79.753 453.512 79.5153 452.576 79.04C451.641 78.5647 450.913 77.8823 450.391 76.993C449.87 76.1037 449.609 75.0533 449.609 73.842C449.609 72.6153 449.87 71.565 450.391 70.691C450.913 69.8017 451.641 69.1193 452.576 68.644C453.512 68.1687 454.608 67.931 455.865 67.931C457.123 67.931 458.219 68.1687 459.154 68.644C460.09 69.1193 460.81 69.8017 461.316 70.691C461.838 71.565 462.098 72.6153 462.098 73.842C462.098 75.0533 461.838 76.1037 461.316 76.993C460.81 77.8823 460.09 78.5647 459.154 79.04C458.219 79.5153 457.123 79.753 455.865 79.753ZM455.865 76.74C456.479 76.74 456.985 76.51 457.383 76.05C457.782 75.59 457.981 74.854 457.981 73.842C457.981 72.8147 457.782 72.0787 457.383 71.634C456.985 71.174 456.479 70.944 455.865 70.944C455.237 70.944 454.723 71.174 454.324 71.634C453.926 72.0787 453.726 72.8147 453.726 73.842C453.726 74.854 453.926 75.59 454.324 76.05C454.723 76.51 455.237 76.74 455.865 76.74ZM463.974 79.5V68.184H467.953V70.162H467.7C468.068 69.4413 468.59 68.8893 469.264 68.506C469.954 68.1227 470.736 67.931 471.61 67.931C472.515 67.931 473.259 68.1073 473.841 68.46C474.424 68.7973 474.861 69.334 475.152 70.07C475.444 70.7907 475.589 71.703 475.589 72.807V79.5H471.495V72.968C471.495 72.508 471.442 72.14 471.334 71.864C471.227 71.5727 471.066 71.3657 470.851 71.243C470.652 71.1203 470.399 71.059 470.092 71.059C469.678 71.059 469.318 71.151 469.011 71.335C468.705 71.5037 468.467 71.749 468.298 72.071C468.145 72.393 468.068 72.7763 468.068 73.221V79.5H463.974ZM481.856 79.753C480.982 79.753 480.207 79.592 479.533 79.27C478.873 78.948 478.352 78.511 477.969 77.959C477.601 77.3917 477.417 76.7477 477.417 76.027C477.417 75.199 477.631 74.5473 478.061 74.072C478.49 73.5967 479.18 73.2593 480.131 73.06C481.081 72.8453 482.346 72.738 483.926 72.738H485.191V74.67H483.926C483.481 74.67 483.09 74.693 482.753 74.739C482.431 74.785 482.162 74.8617 481.948 74.969C481.733 75.061 481.572 75.1837 481.465 75.337C481.357 75.4903 481.304 75.6667 481.304 75.866C481.304 76.2187 481.426 76.51 481.672 76.74C481.932 76.97 482.3 77.085 482.776 77.085C483.159 77.085 483.496 77.0007 483.788 76.832C484.094 76.6633 484.34 76.4333 484.524 76.142C484.708 75.8353 484.8 75.4827 484.8 75.084V72.416C484.8 71.864 484.654 71.473 484.363 71.243C484.087 71.013 483.604 70.898 482.914 70.898C482.331 70.898 481.687 70.99 480.982 71.174C480.276 71.358 479.586 71.6417 478.912 72.025L477.877 69.334C478.275 69.058 478.766 68.8127 479.349 68.598C479.947 68.3833 480.575 68.2223 481.235 68.115C481.909 67.9923 482.53 67.931 483.098 67.931C484.355 67.931 485.39 68.115 486.203 68.483C487.031 68.8357 487.644 69.3877 488.043 70.139C488.457 70.875 488.664 71.8257 488.664 72.991V79.5H484.846V77.361H484.984C484.907 77.8517 484.731 78.2733 484.455 78.626C484.179 78.9787 483.818 79.2547 483.374 79.454C482.929 79.6533 482.423 79.753 481.856 79.753ZM495.457 79.753C493.893 79.753 492.758 79.362 492.053 78.58C491.347 77.7827 490.995 76.5867 490.995 74.992V63.285H495.089V74.854C495.089 75.1913 495.135 75.4827 495.227 75.728C495.334 75.9733 495.495 76.1573 495.71 76.28C495.94 76.4027 496.223 76.464 496.561 76.464C496.714 76.464 496.867 76.4563 497.021 76.441C497.189 76.4257 497.35 76.4027 497.504 76.372L497.458 79.5C497.151 79.592 496.829 79.6533 496.492 79.684C496.17 79.73 495.825 79.753 495.457 79.753ZM498.876 66.229V62.526H503.177V66.229H498.876ZM498.991 79.5V68.184H503.085V79.5H498.991ZM505.23 79.5V76.878L511.095 70.277V71.197H505.23V68.184H514.706V70.783L508.726 77.545V76.487H514.959V79.5H505.23ZM516.553 66.229V62.526H520.854V66.229H516.553ZM516.668 79.5V68.184H520.762V79.5H516.668ZM523.136 79.5V68.184H527.115V70.162H526.862C527.23 69.4413 527.752 68.8893 528.426 68.506C529.116 68.1227 529.898 67.931 530.772 67.931C531.677 67.931 532.421 68.1073 533.003 68.46C533.586 68.7973 534.023 69.334 534.314 70.07C534.606 70.7907 534.751 71.703 534.751 72.807V79.5H530.657V72.968C530.657 72.508 530.604 72.14 530.496 71.864C530.389 71.5727 530.228 71.3657 530.013 71.243C529.814 71.1203 529.561 71.059 529.254 71.059C528.84 71.059 528.48 71.151 528.173 71.335C527.867 71.5037 527.629 71.749 527.46 72.071C527.307 72.393 527.23 72.7763 527.23 73.221V79.5H523.136ZM542.697 83.893C541.562 83.893 540.496 83.7857 539.5 83.571C538.518 83.3563 537.675 83.0037 536.97 82.513L538.028 79.753C538.426 79.983 538.871 80.1823 539.362 80.351C539.868 80.535 540.374 80.6653 540.88 80.742C541.386 80.834 541.861 80.88 542.306 80.88C543.241 80.88 543.939 80.6807 544.399 80.282C544.874 79.8987 545.112 79.293 545.112 78.465V77.016H545.296C545.066 77.66 544.598 78.189 543.893 78.603C543.187 79.0017 542.421 79.201 541.593 79.201C540.581 79.201 539.699 78.971 538.948 78.511C538.196 78.0357 537.606 77.3763 537.177 76.533C536.763 75.6897 536.556 74.7007 536.556 73.566C536.556 72.4313 536.763 71.4423 537.177 70.599C537.606 69.7557 538.196 69.104 538.948 68.644C539.699 68.1687 540.581 67.931 541.593 67.931C542.451 67.931 543.218 68.1303 543.893 68.529C544.583 68.9277 545.043 69.449 545.273 70.093H545.089V68.184H549.091V77.982C549.091 79.3007 548.845 80.397 548.355 81.271C547.864 82.145 547.143 82.7967 546.193 83.226C545.242 83.6707 544.077 83.893 542.697 83.893ZM542.858 76.188C543.532 76.188 544.069 75.958 544.468 75.498C544.866 75.038 545.066 74.394 545.066 73.566C545.066 72.738 544.866 72.094 544.468 71.634C544.069 71.174 543.532 70.944 542.858 70.944C542.198 70.944 541.669 71.174 541.271 71.634C540.872 72.094 540.673 72.738 540.673 73.566C540.673 74.394 540.872 75.038 541.271 75.498C541.669 75.958 542.198 76.188 542.858 76.188Z" fill="#1362F3"/>
<path d="M585 72.5L731 72.5" stroke="black"/>
<circle cx="584.5" cy="72" r="3" fill="white" stroke="black"/>
<circle cx="732.5" cy="72" r="3" fill="white" stroke="black"/>
<rect x="736.5" y="19.5" width="238" height="105" rx="9.5" fill="#FFD6C7"/>
<rect x="736.5" y="19.5" width="238" height="105" rx="9.5" stroke="#FFB499"/>
<path d="M811.29 79.5V66.735H806.138V63.285H820.674V66.735H815.522V79.5H811.29ZM826.342 79.753C824.962 79.753 823.766 79.5153 822.754 79.04C821.758 78.5493 820.991 77.8593 820.454 76.97C819.918 76.0807 819.649 75.0303 819.649 73.819C819.649 72.6537 819.902 71.634 820.408 70.76C820.93 69.8707 821.635 69.1807 822.524 68.69C823.429 68.184 824.456 67.931 825.606 67.931C826.756 67.931 827.745 68.1687 828.573 68.644C829.401 69.1193 830.038 69.8017 830.482 70.691C830.942 71.565 831.172 72.5923 831.172 73.773V74.67H823.076V72.738H828.182L827.814 73.037C827.814 72.209 827.638 71.5957 827.285 71.197C826.933 70.783 826.434 70.576 825.79 70.576C825.315 70.576 824.901 70.691 824.548 70.921C824.211 71.1357 823.95 71.4577 823.766 71.887C823.582 72.3163 823.49 72.853 823.49 73.497V73.704C823.49 74.4247 823.59 75.0073 823.789 75.452C824.004 75.8967 824.334 76.2263 824.778 76.441C825.223 76.6403 825.783 76.74 826.457 76.74C827.04 76.74 827.646 76.6557 828.274 76.487C828.918 76.303 829.486 76.0423 829.976 75.705L830.988 78.396C830.406 78.81 829.693 79.1397 828.849 79.385C828.006 79.6303 827.17 79.753 826.342 79.753ZM836.869 79.753C835.995 79.753 835.221 79.592 834.546 79.27C833.887 78.948 833.366 78.511 832.982 77.959C832.614 77.3917 832.43 76.7477 832.43 76.027C832.43 75.199 832.645 74.5473 833.074 74.072C833.504 73.5967 834.194 73.2593 835.144 73.06C836.095 72.8453 837.36 72.738 838.939 72.738H840.204V74.67H838.939C838.495 74.67 838.104 74.693 837.766 74.739C837.444 74.785 837.176 74.8617 836.961 74.969C836.747 75.061 836.586 75.1837 836.478 75.337C836.371 75.4903 836.317 75.6667 836.317 75.866C836.317 76.2187 836.44 76.51 836.685 76.74C836.946 76.97 837.314 77.085 837.789 77.085C838.173 77.085 838.51 77.0007 838.801 76.832C839.108 76.6633 839.353 76.4333 839.537 76.142C839.721 75.8353 839.813 75.4827 839.813 75.084V72.416C839.813 71.864 839.668 71.473 839.376 71.243C839.1 71.013 838.617 70.898 837.927 70.898C837.345 70.898 836.701 70.99 835.995 71.174C835.29 71.358 834.6 71.6417 833.925 72.025L832.89 69.334C833.289 69.058 833.78 68.8127 834.362 68.598C834.96 68.3833 835.589 68.2223 836.248 68.115C836.923 67.9923 837.544 67.931 838.111 67.931C839.369 67.931 840.404 68.115 841.216 68.483C842.044 68.8357 842.658 69.3877 843.056 70.139C843.47 70.875 843.677 71.8257 843.677 72.991V79.5H839.859V77.361H839.997C839.921 77.8517 839.744 78.2733 839.468 78.626C839.192 78.9787 838.832 79.2547 838.387 79.454C837.943 79.6533 837.437 79.753 836.869 79.753ZM851.782 79.753C850.509 79.753 849.397 79.5153 848.447 79.04C847.511 78.5647 846.783 77.8823 846.262 76.993C845.74 76.0883 845.48 75.0303 845.48 73.819C845.48 72.5923 845.74 71.542 846.262 70.668C846.783 69.7787 847.511 69.104 848.447 68.644C849.397 68.1687 850.509 67.931 851.782 67.931C852.533 67.931 853.284 68.0307 854.036 68.23C854.787 68.4293 855.393 68.7207 855.853 69.104L854.772 71.91C854.419 71.634 854.005 71.4193 853.53 71.266C853.07 71.0973 852.633 71.013 852.219 71.013C851.406 71.013 850.777 71.2583 850.333 71.749C849.888 72.2243 849.666 72.9143 849.666 73.819C849.666 74.7083 849.888 75.406 850.333 75.912C850.777 76.418 851.406 76.671 852.219 76.671C852.633 76.671 853.07 76.5943 853.53 76.441C854.005 76.2723 854.419 76.05 854.772 75.774L855.853 78.58C855.393 78.9327 854.787 79.2163 854.036 79.431C853.284 79.6457 852.533 79.753 851.782 79.753ZM857.149 79.5V63.285H861.243V70.162H860.875C861.243 69.4413 861.764 68.8893 862.439 68.506C863.129 68.1227 863.911 67.931 864.785 67.931C865.69 67.931 866.433 68.1073 867.016 68.46C867.599 68.7973 868.036 69.334 868.327 70.07C868.618 70.7907 868.764 71.703 868.764 72.807V79.5H864.67V72.968C864.67 72.508 864.616 72.14 864.509 71.864C864.402 71.5727 864.241 71.3657 864.026 71.243C863.827 71.1203 863.574 71.059 863.267 71.059C862.853 71.059 862.493 71.151 862.186 71.335C861.879 71.5037 861.642 71.749 861.473 72.071C861.32 72.393 861.243 72.7763 861.243 73.221V79.5H857.149ZM870.982 66.229V62.526H875.283V66.229H870.982ZM871.097 79.5V68.184H875.191V79.5H871.097ZM877.566 79.5V68.184H881.545V70.162H881.292C881.66 69.4413 882.181 68.8893 882.856 68.506C883.546 68.1227 884.328 67.931 885.202 67.931C886.107 67.931 886.85 68.1073 887.433 68.46C888.016 68.7973 888.453 69.334 888.744 70.07C889.035 70.7907 889.181 71.703 889.181 72.807V79.5H885.087V72.968C885.087 72.508 885.033 72.14 884.926 71.864C884.819 71.5727 884.658 71.3657 884.443 71.243C884.244 71.1203 883.991 71.059 883.684 71.059C883.27 71.059 882.91 71.151 882.603 71.335C882.296 71.5037 882.059 71.749 881.89 72.071C881.737 72.393 881.66 72.7763 881.66 73.221V79.5H877.566ZM897.126 83.893C895.992 83.893 894.926 83.7857 893.929 83.571C892.948 83.3563 892.105 83.0037 891.399 82.513L892.457 79.753C892.856 79.983 893.301 80.1823 893.791 80.351C894.297 80.535 894.803 80.6653 895.309 80.742C895.815 80.834 896.291 80.88 896.735 80.88C897.671 80.88 898.368 80.6807 898.828 80.282C899.304 79.8987 899.541 79.293 899.541 78.465V77.016H899.725C899.495 77.66 899.028 78.189 898.322 78.603C897.617 79.0017 896.85 79.201 896.022 79.201C895.01 79.201 894.129 78.971 893.377 78.511C892.626 78.0357 892.036 77.3763 891.606 76.533C891.192 75.6897 890.985 74.7007 890.985 73.566C890.985 72.4313 891.192 71.4423 891.606 70.599C892.036 69.7557 892.626 69.104 893.377 68.644C894.129 68.1687 895.01 67.931 896.022 67.931C896.881 67.931 897.648 68.1303 898.322 68.529C899.012 68.9277 899.472 69.449 899.702 70.093H899.518V68.184H903.52V77.982C903.52 79.3007 903.275 80.397 902.784 81.271C902.294 82.145 901.573 82.7967 900.622 83.226C899.672 83.6707 898.506 83.893 897.126 83.893ZM897.287 76.188C897.962 76.188 898.499 75.958 898.897 75.498C899.296 75.038 899.495 74.394 899.495 73.566C899.495 72.738 899.296 72.094 898.897 71.634C898.499 71.174 897.962 70.944 897.287 70.944C896.628 70.944 896.099 71.174 895.7 71.634C895.302 72.094 895.102 72.738 895.102 73.566C895.102 74.394 895.302 75.038 895.7 75.498C896.099 75.958 896.628 76.188 897.287 76.188Z" fill="#FF662F"/>
<path d="M979 72.5L1156 72.5" stroke="black"/>
<circle cx="978.5" cy="72" r="3" fill="white" stroke="black"/>
<circle cx="1157.5" cy="72" r="3" fill="white" stroke="black"/>
<rect x="1161.5" y="0.5" width="295" height="143" rx="9.5" fill="#B4E9C6"/>
<rect x="1161.5" y="0.5" width="295" height="143" rx="9.5" stroke="#4CC375"/>
<path d="M1270.56 62.9375V80H1266.45V62.9375H1270.56ZM1275.7 62.9375V66.1133H1261.43V62.9375H1275.7ZM1280.46 70.4609V80H1276.52V67.3203H1280.21L1280.46 70.4609ZM1284.21 67.2266L1284.14 70.8945C1283.99 70.8789 1283.78 70.8594 1283.51 70.8359C1283.25 70.8125 1283.02 70.8008 1282.84 70.8008C1282.38 70.8008 1281.98 70.8555 1281.65 70.9648C1281.32 71.0664 1281.05 71.2227 1280.83 71.4336C1280.62 71.6367 1280.46 71.8945 1280.36 72.207C1280.27 72.5195 1280.22 72.8828 1280.23 73.2969L1279.52 72.8281C1279.52 71.9766 1279.6 71.2031 1279.76 70.5078C1279.93 69.8047 1280.18 69.1992 1280.49 68.6914C1280.8 68.1758 1281.18 67.7812 1281.62 67.5078C1282.07 67.2266 1282.57 67.0859 1283.12 67.0859C1283.32 67.0859 1283.51 67.0977 1283.7 67.1211C1283.89 67.1445 1284.07 67.1797 1284.21 67.2266ZM1291.81 76.8125V71.5859C1291.81 71.2266 1291.76 70.918 1291.66 70.6602C1291.55 70.4023 1291.39 70.2031 1291.18 70.0625C1290.96 69.9141 1290.66 69.8398 1290.3 69.8398C1290 69.8398 1289.75 69.8906 1289.54 69.9922C1289.32 70.0938 1289.16 70.2461 1289.05 70.4492C1288.95 70.6523 1288.89 70.9102 1288.89 71.2227H1284.94C1284.94 70.6367 1285.07 70.0938 1285.33 69.5938C1285.59 69.0859 1285.97 68.6445 1286.45 68.2695C1286.95 67.8945 1287.53 67.6055 1288.21 67.4023C1288.9 67.1914 1289.66 67.0859 1290.51 67.0859C1291.52 67.0859 1292.41 67.2539 1293.2 67.5898C1294 67.9258 1294.63 68.4297 1295.09 69.1016C1295.55 69.7656 1295.78 70.6016 1295.78 71.6094V76.8008C1295.78 77.6289 1295.83 78.2578 1295.92 78.6875C1296.02 79.1094 1296.15 79.4805 1296.32 79.8008V80H1292.36C1292.17 79.6094 1292.03 79.1328 1291.94 78.5703C1291.85 78 1291.81 77.4141 1291.81 76.8125ZM1292.29 72.2539L1292.31 74.3633H1290.57C1290.2 74.3633 1289.89 74.4141 1289.63 74.5156C1289.38 74.6172 1289.18 74.7578 1289.02 74.9375C1288.87 75.1094 1288.76 75.3047 1288.69 75.5234C1288.63 75.7422 1288.6 75.9727 1288.6 76.2148C1288.6 76.4492 1288.65 76.6602 1288.76 76.8477C1288.88 77.0273 1289.04 77.168 1289.23 77.2695C1289.43 77.3711 1289.64 77.4219 1289.89 77.4219C1290.32 77.4219 1290.7 77.3398 1291 77.1758C1291.31 77.0039 1291.55 76.7969 1291.71 76.5547C1291.88 76.3125 1291.96 76.0859 1291.96 75.875L1292.83 77.4922C1292.67 77.8047 1292.49 78.1211 1292.29 78.4414C1292.09 78.7617 1291.85 79.0586 1291.55 79.332C1291.26 79.5977 1290.91 79.8164 1290.48 79.9883C1290.06 80.1523 1289.55 80.2344 1288.95 80.2344C1288.17 80.2344 1287.45 80.0742 1286.79 79.7539C1286.14 79.4336 1285.62 78.9883 1285.23 78.418C1284.84 77.8398 1284.65 77.1758 1284.65 76.4258C1284.65 75.7695 1284.77 75.1836 1285 74.668C1285.24 74.1523 1285.61 73.7148 1286.09 73.3555C1286.57 72.9961 1287.19 72.7227 1287.94 72.5352C1288.69 72.3477 1289.57 72.2539 1290.59 72.2539H1292.29ZM1303.33 77.1875C1303.7 77.1875 1304.01 77.1211 1304.27 76.9883C1304.53 76.8477 1304.73 76.6523 1304.86 76.4023C1305 76.1445 1305.07 75.8359 1305.06 75.4766H1308.78C1308.79 76.4297 1308.55 77.2656 1308.07 77.9844C1307.61 78.6953 1306.96 79.25 1306.15 79.6484C1305.35 80.0391 1304.44 80.2344 1303.42 80.2344C1302.43 80.2344 1301.56 80.0742 1300.82 79.7539C1300.08 79.4258 1299.46 78.9727 1298.96 78.3945C1298.46 77.8086 1298.09 77.125 1297.84 76.3438C1297.6 75.5625 1297.48 74.7148 1297.48 73.8008V73.5312C1297.48 72.6172 1297.6 71.7695 1297.84 70.9883C1298.09 70.1992 1298.46 69.5156 1298.96 68.9375C1299.46 68.3516 1300.07 67.8984 1300.81 67.5781C1301.55 67.25 1302.41 67.0859 1303.4 67.0859C1304.45 67.0859 1305.38 67.2852 1306.19 67.6836C1307 68.082 1307.64 68.6602 1308.1 69.418C1308.56 70.1758 1308.79 71.0938 1308.78 72.1719H1305.06C1305.07 71.7891 1305.01 71.4453 1304.89 71.1406C1304.76 70.8359 1304.57 70.5938 1304.3 70.4141C1304.04 70.2266 1303.71 70.1328 1303.3 70.1328C1302.9 70.1328 1302.57 70.2227 1302.32 70.4023C1302.07 70.582 1301.88 70.832 1301.75 71.1523C1301.62 71.4648 1301.54 71.8242 1301.49 72.2305C1301.45 72.6367 1301.43 73.0703 1301.43 73.5312V73.8008C1301.43 74.2695 1301.45 74.7109 1301.49 75.125C1301.54 75.5312 1301.62 75.8906 1301.76 76.2031C1301.89 76.5078 1302.08 76.75 1302.33 76.9297C1302.58 77.1016 1302.91 77.1875 1303.33 77.1875ZM1314.45 61.9883V80H1310.5V61.9883H1314.45ZM1322.56 67.3203L1317.05 73.7773L1314.17 76.6602L1312.45 74.1523L1314.85 71.0234L1317.82 67.3203H1322.56ZM1318.33 80L1314.94 74.2227L1317.86 72.1484L1322.85 80H1318.33ZM1327.76 67.3203V80H1323.8V67.3203H1327.76ZM1323.57 64.0508C1323.57 63.4883 1323.77 63.0273 1324.18 62.668C1324.58 62.3086 1325.11 62.1289 1325.76 62.1289C1326.41 62.1289 1326.93 62.3086 1327.34 62.668C1327.75 63.0273 1327.95 63.4883 1327.95 64.0508C1327.95 64.6133 1327.75 65.0742 1327.34 65.4336C1326.93 65.793 1326.41 65.9727 1325.76 65.9727C1325.11 65.9727 1324.58 65.793 1324.18 65.4336C1323.77 65.0742 1323.57 64.6133 1323.57 64.0508ZM1334.08 70.0273V80H1330.13V67.3203H1333.83L1334.08 70.0273ZM1333.61 73.2266L1332.68 73.25C1332.68 72.2812 1332.8 71.418 1333.04 70.6602C1333.27 69.8945 1333.6 69.2461 1334.03 68.7148C1334.46 68.1836 1334.97 67.7812 1335.57 67.5078C1336.17 67.2266 1336.84 67.0859 1337.57 67.0859C1338.16 67.0859 1338.69 67.1719 1339.18 67.3438C1339.67 67.5156 1340.09 67.793 1340.44 68.1758C1340.8 68.5586 1341.07 69.0664 1341.26 69.6992C1341.46 70.3242 1341.55 71.0977 1341.55 72.0195V80H1337.58V72.0078C1337.58 71.5 1337.51 71.1133 1337.37 70.8477C1337.23 70.5742 1337.03 70.3867 1336.76 70.2852C1336.5 70.1836 1336.17 70.1328 1335.79 70.1328C1335.38 70.1328 1335.04 70.2109 1334.76 70.3672C1334.48 70.5234 1334.25 70.7422 1334.08 71.0234C1333.91 71.2969 1333.79 71.6211 1333.71 71.9961C1333.64 72.3711 1333.61 72.7812 1333.61 73.2266ZM1351.71 67.3203H1355.3V79.5078C1355.3 80.6797 1355.03 81.6719 1354.49 82.4844C1353.95 83.3047 1353.2 83.9258 1352.23 84.3477C1351.27 84.7773 1350.14 84.9922 1348.86 84.9922C1348.29 84.9922 1347.7 84.918 1347.11 84.7695C1346.52 84.6289 1345.96 84.418 1345.45 84.1367C1344.93 83.8555 1344.5 83.5078 1344.14 83.0938L1345.8 80.7734C1346.12 81.1328 1346.52 81.4375 1347 81.6875C1347.49 81.9453 1348.06 82.0742 1348.71 82.0742C1349.29 82.0742 1349.76 81.9727 1350.14 81.7695C1350.54 81.5664 1350.83 81.2695 1351.04 80.8789C1351.24 80.4961 1351.34 80.0312 1351.34 79.4844V70.3203L1351.71 67.3203ZM1343.29 73.8125V73.5664C1343.29 72.6055 1343.41 71.7305 1343.64 70.9414C1343.88 70.1445 1344.23 69.4609 1344.67 68.8906C1345.12 68.3125 1345.67 67.8672 1346.31 67.5547C1346.95 67.2422 1347.68 67.0859 1348.48 67.0859C1349.35 67.0859 1350.06 67.2539 1350.61 67.5898C1351.18 67.918 1351.62 68.3789 1351.96 68.9727C1352.3 69.5664 1352.57 70.2617 1352.76 71.0586C1352.95 71.8477 1353.12 72.6992 1353.25 73.6133V73.9062C1353.12 74.7656 1352.93 75.5781 1352.7 76.3438C1352.47 77.1016 1352.18 77.7734 1351.81 78.3594C1351.44 78.9453 1350.98 79.4062 1350.43 79.7422C1349.88 80.0703 1349.22 80.2344 1348.46 80.2344C1347.66 80.2344 1346.94 80.0742 1346.3 79.7539C1345.67 79.4336 1345.12 78.9844 1344.67 78.4062C1344.23 77.8281 1343.88 77.1484 1343.64 76.3672C1343.41 75.5859 1343.29 74.7344 1343.29 73.8125ZM1347.24 73.5664V73.8125C1347.24 74.2891 1347.28 74.7305 1347.37 75.1367C1347.46 75.543 1347.6 75.9023 1347.79 76.2148C1347.98 76.5195 1348.21 76.7578 1348.48 76.9297C1348.76 77.1016 1349.09 77.1875 1349.46 77.1875C1350.04 77.1875 1350.5 77.0664 1350.85 76.8242C1351.2 76.582 1351.45 76.2383 1351.61 75.793C1351.77 75.3477 1351.83 74.8242 1351.81 74.2227V73.2969C1351.82 72.7812 1351.79 72.3281 1351.7 71.9375C1351.62 71.5391 1351.48 71.207 1351.29 70.9414C1351.11 70.6758 1350.87 70.4766 1350.57 70.3438C1350.27 70.2031 1349.91 70.1328 1349.49 70.1328C1349.12 70.1328 1348.8 70.2188 1348.52 70.3906C1348.23 70.5625 1348 70.8047 1347.81 71.1172C1347.62 71.4219 1347.48 71.7852 1347.38 72.207C1347.29 72.6211 1347.24 73.0742 1347.24 73.5664Z" fill="#00AD3C"/>
</svg>
