<svg width="369" height="336" viewBox="0 0 369 336" fill="none" xmlns="http://www.w3.org/2000/svg">
<path d="M77.4477 232.943C77.4477 254.257 60.0369 271.667 38.7238 271.667C17.4107 271.667 0 254.257 0 232.943C0 211.63 17.4107 194.22 38.7238 194.22H77.4477V232.943Z" fill="#E01E5A"/>
<path d="M96.959 232.943C96.959 211.63 114.37 194.22 135.683 194.22C156.996 194.22 174.407 211.63 174.407 232.943V329.903C174.407 351.216 156.996 368.627 135.683 368.627C114.37 368.627 96.959 351.216 96.959 329.903V232.943Z" fill="#E01E5A"/>
<path d="M135.683 77.4477C114.37 77.4477 96.959 60.0369 96.959 38.7238C96.959 17.4107 114.37 0 135.683 0C156.996 0 174.407 17.4107 174.407 38.7238V77.4477H135.683Z" fill="#36C5F0"/>
<path d="M135.684 96.9597C156.997 96.9597 174.407 114.37 174.407 135.684C174.407 156.997 156.997 174.407 135.684 174.407H38.7238C17.4107 174.407 0 156.997 0 135.684C0 114.37 17.4107 96.9597 38.7238 96.9597H135.684Z" fill="#36C5F0"/>
<path d="M291.176 135.684C291.176 114.37 308.586 96.9597 329.9 96.9597C351.213 96.9597 368.623 114.37 368.623 135.684C368.623 156.997 351.213 174.407 329.9 174.407H291.176V135.684Z" fill="#2EB67D"/>
<path d="M271.664 135.684C271.664 156.997 254.254 174.407 232.941 174.407C211.627 174.407 194.217 156.997 194.217 135.684V38.7238C194.217 17.4107 211.627 0 232.941 0C254.254 0 271.664 17.4107 271.664 38.7238V135.684Z" fill="#2EB67D"/>
<path d="M232.941 291.179C254.254 291.179 271.664 308.59 271.664 329.903C271.664 351.216 254.254 368.627 232.941 368.627C211.627 368.627 194.217 351.216 194.217 329.903V291.179H232.941Z" fill="#ECB22E"/>
<path d="M232.941 271.667C211.627 271.667 194.217 254.256 194.217 232.943C194.217 211.63 211.627 194.22 232.941 194.22H329.9C351.213 194.22 368.624 211.63 368.624 232.943C368.624 254.256 351.213 271.667 329.9 271.667H232.941Z" fill="#ECB22E"/>
</svg>
