<svg width="257" height="253" viewBox="0 0 257 253" fill="none" xmlns="http://www.w3.org/2000/svg">
<path fill-rule="evenodd" clip-rule="evenodd" d="M227.242 24.5574C202.241 -0.476577 168.988 -14.27 133.559 -14.2827C60.5527 -14.2827 1.13675 45.1269 1.11135 118.152C1.09865 141.496 7.20155 164.282 18.7913 184.363L0 253L70.2119 234.583C89.5555 245.138 111.338 250.695 133.502 250.701H133.559C206.552 250.701 265.975 191.285 266 118.26C266.013 82.8686 252.251 49.5977 227.242 24.5637V24.5574ZM133.559 228.334H133.514C113.764 228.329 94.3886 223.019 77.4836 212.991L73.4634 210.604L31.7973 221.533L42.9172 180.908L40.3007 176.742C29.2825 159.215 23.459 138.956 23.4717 118.159C23.4971 57.4661 72.8791 8.08397 133.604 8.08397C163.006 8.09668 190.644 19.5595 211.429 40.3703C232.215 61.1748 243.652 88.8381 243.64 118.247C243.614 178.946 194.232 228.329 133.559 228.329V228.334ZM193.94 145.891C190.631 144.234 174.362 136.232 171.325 135.127C168.29 134.022 166.087 133.47 163.883 136.785C161.679 140.1 155.335 147.555 153.404 149.759C151.474 151.969 149.543 152.242 146.234 150.584C142.926 148.927 132.263 145.434 119.619 134.162C109.783 125.385 103.139 114.551 101.209 111.236C99.2786 107.921 101.006 106.13 102.657 104.486C104.143 103 105.966 100.618 107.623 98.6875C109.281 96.7568 109.827 95.3728 110.932 93.1687C112.037 90.9587 111.484 89.0287 110.659 87.3707C109.833 85.7133 103.216 69.4238 100.453 62.8004C97.7668 56.3483 95.0366 57.2247 93.0106 57.1168C91.0799 57.0215 88.8765 57.0025 86.6665 57.0025C84.4565 57.0025 80.8743 57.828 77.839 61.1431C74.8036 64.4577 66.2555 72.4658 66.2555 88.7487C66.2555 105.032 78.1124 120.775 79.7697 122.985C81.427 125.195 103.108 158.618 136.302 172.958C144.196 176.368 150.362 178.406 155.17 179.931C163.096 182.452 170.309 182.096 176.012 181.245C182.37 180.293 195.591 173.237 198.347 165.508C201.103 157.779 201.103 151.149 200.278 149.771C199.453 148.393 197.243 147.561 193.934 145.904L193.94 145.891Z" fill="#25D366"/>
</svg>
